<svg width="189" height="88" viewBox="0 0 189 88" fill="none" xmlns="http://www.w3.org/2000/svg">
<path fill-rule="evenodd" clip-rule="evenodd" d="M49.9914 43.7824C49.9914 57.4694 38.7809 68.5649 24.9521 68.5649C11.8321 68.5649 1.06894 58.5777 0 45.8656H33.0962V41.6992H0C1.06894 28.9871 11.8321 19 24.9521 19C38.7809 19 49.9914 30.0955 49.9914 43.7824ZM142.821 64.0748C151.498 64.0748 157.188 59.4387 157.188 52.4564C157.188 45.9767 152.906 42.9045 146.427 41.8432L140.681 40.8936C136.286 40.1674 133.356 38.2682 133.356 34.0788C133.356 29.8336 136.624 26.5937 142.821 26.5937C148.85 26.5937 151.948 29.6101 152.286 33.9112H156.625C156.287 28.2136 151.892 23.1305 142.878 23.1305C133.976 23.1305 129.075 28.1019 129.075 34.2464C129.075 40.7818 133.525 43.7982 139.61 44.8037L145.413 45.6974C150.258 46.5353 152.962 48.4904 152.962 52.6239C152.962 57.4837 148.962 60.6117 142.878 60.6117C136.568 60.6117 132.624 57.5954 132.286 52.4564H128.004C128.342 59.1594 133.525 64.0748 142.821 64.0748ZM78.8593 63.2929H63.0842V23.9684H78.296C85.0005 23.9684 89.6764 27.8785 89.6764 34.1347C89.6764 38.6592 87.0849 41.6756 82.916 42.681V42.8486C87.8736 43.7982 90.9158 47.1498 90.9158 52.4005C90.9158 59.1594 85.9019 63.2929 78.8593 63.2929ZM77.7326 41.2287C82.5217 41.2287 85.4512 38.6592 85.4512 34.6374V34.0788C85.4512 30.057 82.5217 27.5433 77.7326 27.5433H67.3099V41.2287H77.7326ZM78.2396 59.718C83.4794 59.718 86.6906 56.8692 86.6906 52.5122V51.9536C86.6906 47.4291 83.4231 44.692 78.1833 44.692H67.3099V59.718H78.2396ZM125.038 63.2929H120.531L117.15 52.6239H101.375L97.9951 63.2929H93.7131L106.728 23.9684H111.854L125.038 63.2929ZM109.488 28.2695H109.15L102.502 49.1048H116.08L109.488 28.2695ZM163.535 63.2929V23.9684H189V27.5992H167.76V41.117H187.31V44.692H167.76V59.6621H189V63.2929H163.535Z" fill="white"/>
</svg>
