<svg width="435" height="95" viewBox="0 0 435 95" fill="none" xmlns="http://www.w3.org/2000/svg">
<g clip-path="url(#clip0_6061_1808)">
<path d="M47.3462 93.7241C72.9595 93.7241 93.7232 72.9605 93.7232 47.3472C93.7232 21.7339 72.9595 0.970215 47.3462 0.970215C21.7329 0.970215 0.969238 21.7339 0.969238 47.3472C0.969238 72.9605 21.7329 93.7241 47.3462 93.7241Z" stroke="white" stroke-width="1.8187"/>
<path d="M80.5966 54.0535C80.8588 51.8553 80.9991 49.6168 80.9991 47.3465C80.9991 45.0761 80.8588 42.8421 80.5966 40.6394C85.8517 37.5643 87.2357 29.6 81.6323 25.308C79.2941 23.5171 76.8112 21.9026 74.2017 20.4915C72.7861 17.8865 71.176 15.3991 69.3852 13.061C65.0933 7.46203 57.1289 8.84143 54.0538 14.0966C51.8556 13.8343 49.6171 13.6941 47.3467 13.6941C45.0764 13.6941 42.8424 13.8343 40.6396 14.0966C37.5645 8.84143 29.6002 7.45752 25.3083 13.061C23.5174 15.3991 21.9028 17.882 20.4918 20.4915C17.8868 21.9071 15.3994 23.5171 13.0612 25.308C7.46228 29.6 8.84167 37.5643 14.0969 40.6394C13.8346 42.8376 13.6944 45.0761 13.6944 47.3465C13.6944 49.6168 13.8346 51.8508 14.0969 54.0535C8.84167 57.1287 7.45776 65.0931 13.0612 69.3849C15.3994 71.1757 17.8823 72.7904 20.4918 74.2015C21.9073 76.8064 23.5174 79.2938 25.3083 81.6321C29.6002 87.231 37.5645 85.8515 40.6396 80.5963C42.8378 80.8585 45.0764 80.9989 47.3467 80.9989C49.6171 80.9989 51.851 80.8585 54.0538 80.5963C57.1289 85.8515 65.0933 87.2355 69.3852 81.6321C71.176 79.2938 72.7907 76.811 74.2017 74.2015C76.8067 72.7859 79.2941 71.1757 81.6323 69.3849C87.2312 65.0931 85.8517 57.1287 80.5966 54.0535Z" fill="white"/>
<path d="M44.0445 47.3469C44.0445 51.8297 43.0545 55.8833 41.4583 58.8132C39.8606 61.7465 37.6678 63.5333 35.2683 63.5333C32.8686 63.5333 30.6761 61.7465 29.0782 58.8132C27.4822 55.8833 26.4922 51.8297 26.4922 47.3469C26.4922 42.8641 27.4822 38.8105 29.0782 35.8805C30.6761 32.9473 32.8686 31.1604 35.2683 31.1604C37.6678 31.1604 39.8606 32.9473 41.4583 35.8805C43.0545 38.8105 44.0445 42.8641 44.0445 47.3469Z" fill="#080808" stroke="white" stroke-width="0.18187"/>
<path d="M35.3006 45.13C37.4168 45.13 39.1324 41.9824 39.1324 38.0997C39.1324 34.2169 37.4168 31.0693 35.3006 31.0693C33.1843 31.0693 31.4688 34.2169 31.4688 38.0997C31.4688 41.9824 33.1843 45.13 35.3006 45.13Z" fill="white"/>
<path d="M68.1763 47.3469C68.1763 51.8297 67.1864 55.8833 65.5901 58.8132C63.9921 61.7465 61.7997 63.5333 59.4002 63.5333C57.0004 63.5333 54.808 61.7465 53.2099 58.8132C51.614 55.8833 50.624 51.8297 50.624 47.3469C50.624 42.8641 51.614 38.8105 53.2099 35.8805C54.808 32.9473 57.0004 31.1604 59.4002 31.1604C61.7997 31.1604 63.9921 32.9473 65.5901 35.8805C67.1864 38.8105 68.1763 42.8641 68.1763 47.3469Z" fill="#080808" stroke="white" stroke-width="0.18187"/>
<path d="M59.3684 45.13C61.4847 45.13 63.2003 41.9824 63.2003 38.0997C63.2003 34.2169 61.4847 31.0693 59.3684 31.0693C57.2522 31.0693 55.5366 34.2169 55.5366 38.0997C55.5366 41.9824 57.2522 45.13 59.3684 45.13Z" fill="white"/>
</g>
<path d="M123.251 68.8367V25.7782H138.625C141.592 25.7782 144.067 26.2791 146.052 27.2809C148.055 28.2828 149.558 29.641 150.56 31.3556C151.562 33.0702 152.063 35.0161 152.063 37.1931C152.063 38.9847 151.745 40.4875 151.109 41.7012C150.492 42.8956 149.654 43.8686 148.595 44.6199C147.535 45.3713 146.35 45.9396 145.04 46.3249V46.6139C146.485 46.768 147.872 47.2689 149.202 48.1166C150.531 48.945 151.619 50.1106 152.467 51.6133C153.334 53.116 153.768 54.9655 153.768 57.1618C153.768 59.4158 153.247 61.4291 152.207 63.2015C151.167 64.9547 149.558 66.3322 147.381 67.334C145.223 68.3358 142.439 68.8367 139.029 68.8367H123.251ZM128.655 64.0685H138.914C142.247 64.0685 144.674 63.4327 146.196 62.1612C147.718 60.8896 148.479 59.2328 148.479 57.1907C148.479 55.688 148.104 54.349 147.352 53.1738C146.62 51.9793 145.56 51.0353 144.173 50.3418C142.805 49.6289 141.149 49.2725 139.203 49.2725H128.655V64.0685ZM128.655 44.6777H138.48C140.118 44.6777 141.563 44.3791 142.815 43.7819C144.067 43.1846 145.05 42.3369 145.763 41.2388C146.476 40.1407 146.832 38.8595 146.832 37.3953C146.832 35.411 146.148 33.7734 144.78 32.4826C143.412 31.1918 141.351 30.5465 138.596 30.5465H128.655V44.6777ZM170.182 69.5013C168.159 69.5013 166.319 69.1257 164.662 68.3743C163.025 67.6229 161.724 66.5248 160.761 65.0799C159.798 63.635 159.316 61.8722 159.316 59.7915C159.316 57.9613 159.672 56.4778 160.385 55.3412C161.098 54.2045 162.052 53.3183 163.246 52.6825C164.441 52.0275 165.77 51.5362 167.234 51.2087C168.718 50.8812 170.22 50.6211 171.742 50.4285C173.669 50.1587 175.22 49.9565 176.395 49.8216C177.589 49.6867 178.456 49.4652 178.996 49.1569C179.554 48.8294 179.834 48.2707 179.834 47.4808V47.2786C179.834 46.007 179.574 44.9185 179.054 44.013C178.553 43.1076 177.792 42.4044 176.771 41.9035C175.769 41.4026 174.536 41.1521 173.072 41.1521C171.569 41.1521 170.268 41.3929 169.17 41.8746C168.072 42.3562 167.186 42.9727 166.512 43.7241C165.857 44.4754 165.394 45.2653 165.125 46.0937L160.125 44.9956C160.722 43.069 161.666 41.4989 162.957 40.2852C164.248 39.0522 165.76 38.1467 167.494 37.5687C169.228 36.9715 171.049 36.6729 172.956 36.6729C174.266 36.6729 175.615 36.8366 177.002 37.1642C178.408 37.4917 179.709 38.06 180.903 38.8692C182.098 39.6783 183.061 40.7957 183.793 42.2214C184.544 43.647 184.92 45.4483 184.92 47.6253V68.8367H179.892V64.473H179.603C179.237 65.2051 178.668 65.9661 177.898 66.756C177.127 67.5266 176.106 68.1816 174.834 68.7211C173.582 69.2412 172.031 69.5013 170.182 69.5013ZM171.02 64.9643C172.966 64.9643 174.594 64.5983 175.904 63.8662C177.214 63.1148 178.196 62.1515 178.851 60.9763C179.506 59.7819 179.834 58.52 179.834 57.1907V52.9426C179.622 53.1738 179.188 53.3857 178.533 53.5784C177.898 53.7518 177.146 53.9155 176.279 54.0696C175.432 54.2238 174.574 54.3586 173.707 54.4742C172.86 54.5898 172.128 54.6861 171.511 54.7632C170.278 54.9173 169.122 55.187 168.043 55.5724C166.964 55.9384 166.098 56.4778 165.442 57.1907C164.787 57.8842 164.46 58.8379 164.46 60.0516C164.46 61.1112 164.739 62.007 165.298 62.7391C165.857 63.4712 166.627 64.0299 167.61 64.4152C168.592 64.7813 169.729 64.9643 171.02 64.9643ZM204.282 69.5302C202.085 69.5302 200.111 69.2027 198.358 68.5477C196.624 67.8734 195.198 66.8716 194.081 65.5423C192.983 64.1937 192.279 62.5368 191.971 60.5718L196.884 59.7915C197.25 61.5639 198.059 62.8933 199.311 63.7795C200.583 64.6464 202.22 65.0799 204.224 65.0799C206.42 65.0799 208.164 64.6175 209.455 63.6928C210.765 62.7488 211.42 61.6025 211.42 60.2539C211.42 59.1365 211.015 58.2117 210.206 57.4796C209.416 56.7476 208.26 56.2081 206.738 55.8613L201.508 54.6476C198.618 53.9541 196.45 52.8848 195.005 51.4399C193.58 49.9757 192.867 48.1166 192.867 45.8625C192.867 44.0516 193.368 42.4525 194.37 41.0654C195.371 39.6783 196.749 38.5898 198.502 37.7999C200.275 37.01 202.288 36.6151 204.542 36.6151C206.719 36.6151 208.607 36.9715 210.206 37.6843C211.805 38.3972 213.086 39.3893 214.049 40.6608C215.032 41.9131 215.697 43.3869 216.043 45.0823L211.304 45.8914C210.996 44.5814 210.302 43.4351 209.223 42.4525C208.145 41.47 206.584 40.9787 204.542 40.9787C202.635 40.9787 201.064 41.4315 199.831 42.3369C198.618 43.2232 198.011 44.3309 198.011 45.6603C198.011 46.8354 198.435 47.7891 199.282 48.5212C200.149 49.234 201.459 49.7927 203.213 50.1973L208.096 51.3532C211.025 52.0468 213.182 53.1064 214.57 54.532C215.976 55.9577 216.679 57.7783 216.679 59.9938C216.679 61.8818 216.149 63.5483 215.09 64.9932C214.049 66.4188 212.595 67.5362 210.726 68.3454C208.857 69.1353 206.709 69.5302 204.282 69.5302ZM236.908 69.5302C233.825 69.5302 231.176 68.8463 228.961 67.4785C226.765 66.0913 225.069 64.1744 223.875 61.7277C222.68 59.2617 222.083 56.4104 222.083 53.1738C222.083 49.9372 222.68 47.0763 223.875 44.591C225.069 42.1058 226.736 40.1599 228.874 38.7536C231.032 37.3279 233.536 36.6151 236.388 36.6151C238.237 36.6151 240 36.933 241.676 37.5687C243.352 38.2045 244.845 39.187 246.155 40.5164C247.465 41.8264 248.496 43.4929 249.247 45.5158C250.018 47.5386 250.403 49.9468 250.403 52.7403V54.6187H225.32V50.284H247.6L245.288 51.8734C245.288 49.7542 244.942 47.8951 244.248 46.296C243.555 44.6777 242.543 43.4255 241.214 42.5392C239.904 41.6338 238.295 41.181 236.388 41.181C234.48 41.181 232.843 41.6434 231.475 42.5681C230.107 43.4736 229.057 44.697 228.325 46.2382C227.593 47.7602 227.227 49.4459 227.227 51.2954V53.9541C227.227 56.2467 227.622 58.2214 228.412 59.8782C229.202 61.5158 230.319 62.7777 231.764 63.6639C233.228 64.5308 234.952 64.9643 236.937 64.9643C238.266 64.9643 239.461 64.7716 240.52 64.3863C241.58 63.9818 242.476 63.4038 243.208 62.6524C243.959 61.8818 244.518 60.9474 244.884 59.8493L249.883 60.7741C249.421 62.5079 248.583 64.0299 247.369 65.34C246.175 66.65 244.682 67.6807 242.89 68.4321C241.117 69.1642 239.123 69.5302 236.908 69.5302ZM262.338 49.9661V68.8367H257.223V37.1353H262.165L262.194 44.8222H261.24C262.223 41.9131 263.62 39.8324 265.431 38.5802C267.241 37.3086 269.361 36.6729 271.788 36.6729C273.927 36.6729 275.824 37.1256 277.481 38.0311C279.138 38.9173 280.438 40.2563 281.382 42.048C282.346 43.8397 282.827 46.1034 282.827 48.8391V68.8367H277.712V49.2436C277.712 46.7006 277.067 44.7451 275.776 43.3773C274.485 41.9902 272.713 41.2966 270.459 41.2966C268.937 41.2966 267.559 41.6241 266.326 42.2792C265.093 42.9149 264.12 43.8782 263.408 45.169C262.695 46.4598 262.338 48.0588 262.338 49.9661ZM300.455 69.5013C298.432 69.5013 296.592 69.1257 294.936 68.3743C293.298 67.6229 291.998 66.5248 291.034 65.0799C290.071 63.635 289.589 61.8722 289.589 59.7915C289.589 57.9613 289.946 56.4778 290.659 55.3412C291.372 54.2045 292.325 53.3183 293.52 52.6825C294.714 52.0275 296.043 51.5362 297.508 51.2087C298.991 50.8812 300.494 50.6211 302.016 50.4285C303.942 50.1587 305.493 49.9565 306.668 49.8216C307.863 49.6867 308.73 49.4652 309.269 49.1569C309.828 48.8294 310.107 48.2707 310.107 47.4808V47.2786C310.107 46.007 309.847 44.9185 309.327 44.013C308.826 43.1076 308.065 42.4044 307.044 41.9035C306.042 41.4026 304.809 41.1521 303.345 41.1521C301.842 41.1521 300.542 41.3929 299.444 41.8746C298.346 42.3562 297.459 42.9727 296.785 43.7241C296.13 44.4754 295.668 45.2653 295.398 46.0937L290.399 44.9956C290.996 43.069 291.94 41.4989 293.231 40.2852C294.521 39.0522 296.034 38.1467 297.768 37.5687C299.502 36.9715 301.322 36.6729 303.229 36.6729C304.54 36.6729 305.888 36.8366 307.275 37.1642C308.682 37.4917 309.982 38.06 311.176 38.8692C312.371 39.6783 313.334 40.7957 314.066 42.2214C314.818 43.647 315.193 45.4483 315.193 47.6253V68.8367H310.165V64.473H309.876C309.51 65.2051 308.942 65.9661 308.171 66.756C307.4 67.5266 306.379 68.1816 305.108 68.7211C303.856 69.2412 302.305 69.5013 300.455 69.5013ZM301.293 64.9643C303.239 64.9643 304.867 64.5983 306.177 63.8662C307.487 63.1148 308.47 62.1515 309.125 60.9763C309.78 59.7819 310.107 58.52 310.107 57.1907V52.9426C309.895 53.1738 309.462 53.3857 308.807 53.5784C308.171 53.7518 307.42 53.9155 306.553 54.0696C305.705 54.2238 304.848 54.3586 303.981 54.4742C303.133 54.5898 302.401 54.6861 301.785 54.7632C300.552 54.9173 299.396 55.187 298.317 55.5724C297.238 55.9384 296.371 56.4778 295.716 57.1907C295.061 57.8842 294.733 58.8379 294.733 60.0516C294.733 61.1112 295.013 62.007 295.571 62.7391C296.13 63.4712 296.901 64.0299 297.883 64.4152C298.866 64.7813 300.002 64.9643 301.293 64.9643ZM323.689 68.8367V37.1353H328.66L328.689 44.013H328.226C328.708 42.3562 329.431 40.9787 330.394 39.8806C331.357 38.7825 332.475 37.954 333.746 37.3953C335.018 36.8366 336.347 36.5573 337.734 36.5573C340.104 36.5573 342.049 37.2701 343.571 38.6958C345.093 40.1021 346.066 41.8938 346.49 44.0708H345.681C346.086 42.5681 346.779 41.2581 347.762 40.1407C348.764 39.004 349.977 38.1274 351.403 37.5109C352.848 36.8752 354.428 36.5573 356.142 36.5573C358.011 36.5573 359.706 36.9619 361.228 37.771C362.77 38.5802 363.993 39.8035 364.898 41.4411C365.823 43.0787 366.286 45.1497 366.286 47.6542V68.8367H361.171V47.7409C361.171 45.3905 360.515 43.7144 359.205 42.7126C357.895 41.7108 356.373 41.2099 354.64 41.2099C353.175 41.2099 351.913 41.5182 350.854 42.1347C349.794 42.7319 348.975 43.5699 348.397 44.6488C347.839 45.7084 347.559 46.9221 347.559 48.29V68.8367H342.444V47.2208C342.444 45.4098 341.838 43.9553 340.624 42.8571C339.429 41.759 337.917 41.2099 336.087 41.2099C334.815 41.2099 333.621 41.5085 332.503 42.1058C331.405 42.6837 330.509 43.5603 329.816 44.7355C329.142 45.8914 328.804 47.3364 328.804 49.0702V68.8367H323.689ZM388.104 69.5302C385.021 69.5302 382.372 68.8463 380.157 67.4785C377.96 66.0913 376.265 64.1744 375.071 61.7277C373.876 59.2617 373.279 56.4104 373.279 53.1738C373.279 49.9372 373.876 47.0763 375.071 44.591C376.265 42.1058 377.932 40.1599 380.07 38.7536C382.228 37.3279 384.732 36.6151 387.584 36.6151C389.433 36.6151 391.196 36.933 392.872 37.5687C394.548 38.2045 396.041 39.187 397.351 40.5164C398.661 41.8264 399.692 43.4929 400.443 45.5158C401.214 47.5386 401.599 49.9468 401.599 52.7403V54.6187H376.516V50.284H398.796L396.484 51.8734C396.484 49.7542 396.137 47.8951 395.444 46.296C394.75 44.6777 393.739 43.4255 392.41 42.5392C391.099 41.6338 389.491 41.181 387.584 41.181C385.676 41.181 384.039 41.6434 382.671 42.5681C381.303 43.4736 380.253 44.697 379.521 46.2382C378.789 47.7602 378.423 49.4459 378.423 51.2954V53.9541C378.423 56.2467 378.818 58.2214 379.608 59.8782C380.398 61.5158 381.515 62.7777 382.96 63.6639C384.424 64.5308 386.148 64.9643 388.133 64.9643C389.462 64.9643 390.656 64.7716 391.716 64.3863C392.776 63.9818 393.671 63.4038 394.404 62.6524C395.155 61.8818 395.714 60.9474 396.08 59.8493L401.079 60.7741C400.617 62.5079 399.779 64.0299 398.565 65.34C397.37 66.65 395.877 67.6807 394.086 68.4321C392.313 69.1642 390.319 69.5302 388.104 69.5302ZM419.285 69.5302C417.089 69.5302 415.114 69.2027 413.361 68.5477C411.627 67.8734 410.201 66.8716 409.084 65.5423C407.986 64.1937 407.283 62.5368 406.974 60.5718L411.887 59.7915C412.253 61.5639 413.062 62.8933 414.314 63.7795C415.586 64.6464 417.224 65.0799 419.227 65.0799C421.423 65.0799 423.167 64.6175 424.458 63.6928C425.768 62.7488 426.423 61.6025 426.423 60.2539C426.423 59.1365 426.018 58.2117 425.209 57.4796C424.419 56.7476 423.263 56.2081 421.741 55.8613L416.511 54.6476C413.621 53.9541 411.454 52.8848 410.009 51.4399C408.583 49.9757 407.87 48.1166 407.87 45.8625C407.87 44.0516 408.371 42.4525 409.373 41.0654C410.375 39.6783 411.752 38.5898 413.505 37.7999C415.278 37.01 417.291 36.6151 419.545 36.6151C421.722 36.6151 423.61 36.9715 425.209 37.6843C426.808 38.3972 428.089 39.3893 429.053 40.6608C430.035 41.9131 430.7 43.3869 431.047 45.0823L426.307 45.8914C425.999 44.5814 425.305 43.4351 424.227 42.4525C423.148 41.47 421.587 40.9787 419.545 40.9787C417.638 40.9787 416.068 41.4315 414.835 42.3369C413.621 43.2232 413.014 44.3309 413.014 45.6603C413.014 46.8354 413.438 47.7891 414.286 48.5212C415.152 49.234 416.463 49.7927 418.216 50.1973L423.1 51.3532C426.028 52.0468 428.186 53.1064 429.573 54.532C430.979 55.9577 431.682 57.7783 431.682 59.9938C431.682 61.8818 431.153 63.5483 430.093 64.9932C429.053 66.4188 427.598 67.5362 425.729 68.3454C423.861 69.1353 421.712 69.5302 419.285 69.5302Z" fill="#F6F6FD"/>
<defs>
<clipPath id="clip0_6061_1808">
<rect width="94.6939" height="94.6939" fill="white"/>
</clipPath>
</defs>
</svg>
