<svg width="370" height="88" viewBox="0 0 370 88" fill="none" xmlns="http://www.w3.org/2000/svg">
<g clip-path="url(#clip0_6060_1579)">
<path d="M22.6312 38.5141L37.0036 23.9536L51.3818 38.5259L59.7399 30.0491L37.0036 7L14.2673 30.0432L22.6312 38.5141Z" fill="white"/>
<path d="M-0.00292969 44.5013L8.35794 36.0275L16.7188 44.5013L8.35794 52.975L-0.00292969 44.5013Z" fill="white"/>
<path d="M22.6312 50.4859L37.0036 65.0523L51.3818 50.48L59.7457 58.9449L37.0036 82L14.2556 58.9509L22.6312 50.4859Z" fill="white"/>
<path d="M57.2742 44.5034L65.635 36.0296L73.9959 44.5034L65.635 52.9771L57.2742 44.5034Z" fill="white"/>
<path d="M45.4844 44.497L37.0036 35.8958L30.7321 42.252L30.0073 42.9806L28.5111 44.497L28.5228 44.5148L37.0036 53.1042L45.4902 44.497H45.4844Z" fill="white"/>
<path d="M87.041 25.1739H105.23C109.742 25.1739 113.156 26.3587 115.47 28.7281C116.342 29.6034 117.03 30.6491 117.491 31.8018C117.952 32.9545 118.177 34.1902 118.153 35.4338V35.5463C118.169 36.5651 118.029 37.5802 117.738 38.5556C117.479 39.3952 117.103 40.1931 116.622 40.925C116.173 41.6153 115.63 42.2375 115.008 42.7732C114.402 43.3027 113.737 43.7598 113.027 44.1357C115.074 44.8582 116.914 46.0786 118.387 47.6899C119.688 49.1906 120.339 51.2639 120.339 53.9098V54.0223C120.376 55.6748 120.021 57.3121 119.304 58.7969C118.61 60.1648 117.592 61.3371 116.341 62.2089C114.927 63.1697 113.353 63.8621 111.694 64.2526C109.724 64.7261 107.705 64.9548 105.68 64.9338H87.041V25.1739ZM103.407 41.2508C104.98 41.3279 106.546 40.9848 107.948 40.2557C108.495 39.9321 108.941 39.4598 109.236 38.8924C109.532 38.3249 109.664 37.685 109.62 37.045V36.9325C109.648 36.3428 109.53 35.7552 109.276 35.2241C109.022 34.693 108.639 34.2354 108.164 33.8936C107.194 33.1946 105.793 32.8451 103.962 32.8451H95.4517V41.2508H103.407ZM105.704 57.2745C107.271 57.3635 108.832 56.9999 110.204 56.226C110.739 55.8779 111.171 55.391 111.457 54.8159C111.743 54.2408 111.871 53.5986 111.829 52.9561V52.8435C111.85 52.2329 111.723 51.6263 111.459 51.0768C111.195 50.5274 110.802 50.052 110.315 49.6921C109.31 48.9023 107.685 48.5074 105.44 48.5074H95.4517V57.2745H105.704Z" fill="white"/>
<path d="M131.175 25.1739H139.808V64.9457H131.175V25.1739Z" fill="white"/>
<path d="M152.871 25.1739H160.832L179.231 49.6507V25.1739H187.753V64.9457H180.406L161.405 39.6633V64.9457H152.871V25.1739Z" fill="white"/>
<path d="M213.891 24.8896H221.84L238.655 64.9457H229.643L226.054 56.0246H209.461L205.872 64.9457H197.07L213.891 24.8896ZM222.974 48.3001L217.749 35.3982L212.547 48.3001H222.974Z" fill="white"/>
<path d="M247.99 25.1739H255.95L274.338 49.6507V25.1739H282.86V64.9457H275.513L256.511 39.6633V64.9457H247.99V25.1739Z" fill="white"/>
<path d="M313.931 65.6447C311.18 65.6685 308.452 65.1285 305.912 64.0571C303.52 63.0563 301.351 61.5806 299.531 59.7168C297.711 57.853 296.278 55.6389 295.315 53.2049C294.3 50.6589 293.785 47.9362 293.801 45.1901V45.0776C293.756 39.6646 295.811 34.4504 299.523 30.5586C301.35 28.6575 303.537 27.1503 305.953 26.1276C308.58 25.0244 311.402 24.4742 314.246 24.5105C315.929 24.4977 317.608 24.6505 319.261 24.9666C320.676 25.2377 322.058 25.6566 323.388 26.2165C324.594 26.731 325.741 27.3787 326.807 28.1476C327.848 28.8976 328.825 29.7337 329.729 30.6474L324.241 37.0687C322.839 35.7574 321.265 34.6473 319.565 33.7692C317.895 32.9598 316.062 32.5543 314.211 32.5845C312.671 32.5678 311.145 32.8835 309.734 33.5106C308.323 34.1377 307.06 35.0618 306.029 36.2216C305.006 37.3784 304.205 38.7184 303.667 40.1727C303.104 41.7097 302.821 43.3374 302.832 44.9769V45.0894C302.826 46.7265 303.109 48.3514 303.667 49.8876C304.198 51.3472 304.991 52.6947 306.005 53.8624C307.028 55.0366 308.288 55.9743 309.7 56.612C311.112 57.2498 312.642 57.5726 314.188 57.5588C316.156 57.6216 318.109 57.1924 319.875 56.3089C321.556 55.3804 323.11 54.2333 324.498 52.8969L329.992 58.5244C329.022 59.5915 327.973 60.5817 326.854 61.4862C325.754 62.3674 324.56 63.1205 323.294 63.7313C321.945 64.3748 320.524 64.8502 319.063 65.1471C317.373 65.4903 315.654 65.657 313.931 65.6447Z" fill="white"/>
<path d="M340.18 25.1739H369.714V32.9577H348.672V41.0257H367.2V48.8095H348.702V57.1619H370.006V64.9457H340.197L340.18 25.1739Z" fill="white"/>
</g>
<defs>
<clipPath id="clip0_6060_1579">
<rect width="370" height="88" fill="white"/>
</clipPath>
</defs>
</svg>
