<svg width="185" height="88" viewBox="0 0 185 88" fill="none" xmlns="http://www.w3.org/2000/svg">
<path d="M163.996 59.3999C172.482 59.3999 179.285 52.515 179.285 43.9999C179.285 35.4849 172.482 28.6575 163.996 28.6575C155.511 28.6575 148.707 35.5424 148.707 43.9999C148.726 52.4383 155.587 59.3999 163.996 59.3999ZM143.164 23.0767H184.904V64.9616H143.164V23.0767Z" fill="white"/>
<path fill-rule="evenodd" clip-rule="evenodd" d="M82.2368 50.3479C79.7905 55.6794 74.4775 59.3999 68.2663 59.3999C60.0292 59.3999 53.2828 52.8027 52.977 44.5945H89.1552V23.0767H47.4346V64.9616H89.1743V50.3479H82.2368ZM53.6459 39.4356H82.7911C80.6506 32.3013 74.9171 28.6575 68.2854 28.6575C61.6536 28.6575 55.4806 32.5506 53.6459 39.4356Z" fill="white"/>
<path d="M41.8158 23.0767H0.0761719V64.9616H41.8158V50.3479H34.8975C32.5085 55.6794 27.1382 59.3999 20.9842 59.3999C12.4987 59.3999 5.63764 52.4575 5.63764 43.9999C5.63764 35.5424 12.4987 28.6575 20.9842 28.6575C27.2528 28.6575 32.6232 32.4931 35.0121 37.9397H41.8158V23.0767Z" fill="white"/>
<path d="M137.947 50.3479H131.029C128.945 55.852 123.327 59.3424 116.943 59.3424C108.706 59.3424 101.769 53.3589 101.769 43.9999V23.0767H94.7167V64.9616H137.947V50.3479Z" fill="white"/>
</svg>
