<svg width="50" height="50" xmlns="http://www.w3.org/2000/svg" viewBox="0 0 100 100">

<path xmlns="http://www.w3.org/2000/svg" d="M12.96 18.5 c-1.24 1.12 -2.9 1.7 -4.76 1.7 c-3.92 0 -7.3 -2.94 -7.3 -7.2 s3.38 -7.2 7.3 -7.2 c1.84 0 3.48 0.6 4.68 1.66 l-1.76 1.98 c-0.74 -0.52 -1.74 -0.9 -2.76 -0.9 c-2.52 0 -4.42 1.86 -4.42 4.46 s1.9 4.46 4.42 4.46 c1.06 0 2.1 -0.4 2.86 -1 z M20.88 9.44 c1.98 0 3.94 1.3 3.94 4.58 l0 5.98 l-2.86 0 l0 -5.78 c0 -1.7 -0.66 -2.28 -1.76 -2.28 c-1.52 0 -2.42 1.44 -2.64 2.16 l0 5.9 l-2.86 0 l0 -14.14 l2.86 0 l0 5.66 c0.2 -0.54 1.32 -2.08 3.32 -2.08 z M34.44 9.6 l2.86 0 l0 10.4 l-2.86 0 l0 -1.28 c-0.06 0.42 -1.08 1.48 -2.88 1.48 c-2.38 0 -5.14 -1.72 -5.14 -5.42 c0 -3.58 2.76 -5.36 5.14 -5.36 c1.8 0 2.82 1.12 2.88 1.34 l0 -1.16 z M31.96 17.66 c1.4 0 2.62 -0.96 2.62 -2.88 c0 -1.86 -1.22 -2.82 -2.62 -2.82 c-1.44 0 -2.76 0.98 -2.76 2.82 c0 1.9 1.32 2.88 2.76 2.88 z M42.24 5.859999999999999 l0 2.44 l-2.86 0 l0 -2.44 l2.86 0 z M42.24 9.6 l0 10.4 l-2.86 0 l0 -10.4 l2.86 0 z M50.5 9.44 c1.98 0 3.94 1.3 3.94 4.58 l0 5.98 l-2.86 0 l0 -5.78 c0 -1.7 -0.66 -2.28 -1.76 -2.28 c-1.52 0 -2.42 1.44 -2.64 2.16 l0 5.9 l-2.86 0 l0 -10.4 l2.86 0 l0 1.92 c0.2 -0.54 1.32 -2.08 3.32 -2.08 z M64.68 6 l-4.08 5.3 c0.06 -0.06 0.26 -0.08 0.54 -0.08 c2.32 0 4.46 2.12 4.46 4.52 c0 2.64 -2.34 4.46 -4.78 4.46 c-2.38 0 -4.78 -1.82 -4.78 -4.52 c0 -2.28 1.26 -3.82 2.24 -5.14 l3.42 -4.54 l2.98 0 z M60.82000000000001 13.719999999999999 c-1.36 0 -2.06 1.06 -2.06 1.98 c0 1.2 0.86 2.04 2.06 2.04 s2.06 -0.84 2.06 -2.04 c0 -1.04 -0.82 -1.98 -2.06 -1.98 z M77.52000000000001 14.4 l0 2.5 l-1.5 0 l0 3.1 l-2.92 0 l0 -3.1 l-6 0 l0 -2.5 l6 -8.4 l2.92 0 l0 8.4 l1.5 0 z M70.10000000000001 14.4 l3 0 l0 -4.48 z" fill="#ff325d"></path>

</svg>