<svg width="315" height="88" viewBox="0 0 315 88" fill="none" xmlns="http://www.w3.org/2000/svg">
<path d="M63.1716 31.1925C51.8011 31.1925 42.9166 40.1464 42.9166 52.1331C42.9166 64.1198 51.5766 72.9971 63.1716 72.9971C74.7667 72.9971 83.5773 63.9665 83.5773 52.0565C83.5773 40.223 74.9172 31.1925 63.1716 31.1925ZM63.2484 64.3585C56.7732 64.3585 52.0284 59.1418 52.0284 52.136C52.0284 45.0507 56.6965 39.8369 63.1716 39.8369C69.7235 39.8369 74.4655 45.1303 74.4655 52.136C74.4655 59.1418 69.7235 64.3585 63.2484 64.3585ZM86.0605 40.3026H91.7088V72.2219H100.744V31.9706H86.0605V40.3026ZM20.1783 39.834C24.9232 39.834 28.6878 42.8697 30.1169 47.385H39.6805C37.9473 37.7326 30.2675 31.1925 20.255 31.1925C8.88449 31.1925 0 40.1464 0 52.136C0 64.1257 8.66003 73 20.255 73C30.043 73 37.8734 66.4599 39.6066 56.7279H30.1169C28.7617 61.2432 24.997 64.3585 20.2522 64.3585C13.7004 64.3585 9.10895 59.1418 9.10895 52.136C9.11179 45.0507 13.6293 39.834 20.1783 39.834ZM257.733 48.2426L251.107 47.2317C247.945 46.766 245.686 45.6755 245.686 43.1055C245.686 40.3026 248.624 38.9026 252.613 38.9026C256.98 38.9026 259.767 40.8479 260.369 44.0398H269.103C268.123 35.9435 262.1 31.1954 252.84 31.1954C243.276 31.1954 236.952 36.256 236.952 43.4179C236.952 50.2674 241.094 54.2404 249.45 55.4842L256.076 56.4951C259.315 56.9608 261.122 58.2871 261.122 60.7775C261.122 63.9695 257.96 65.2928 253.593 65.2928C248.246 65.2928 245.234 63.0352 244.782 59.6104H235.898C236.727 67.4738 242.674 73 253.516 73C263.381 73 269.93 68.3285 269.93 60.3089C269.93 53.147 265.188 49.4098 257.733 48.2426ZM96.2264 15.389C92.9135 15.389 90.4275 17.8795 90.4275 21.3043C90.4275 24.7291 92.9107 27.2195 96.2264 27.2195C99.5392 27.2195 102.025 24.7291 102.025 21.3043C102.025 17.8795 99.5392 15.389 96.2264 15.389ZM228.82 45.7522C228.82 37.034 223.7 31.1954 212.858 31.1954C202.619 31.1954 196.896 36.5684 195.766 44.8208H204.727C205.179 41.6289 207.588 38.9822 212.708 38.9822C217.302 38.9822 219.561 41.0836 219.561 43.6537C219.561 47.0018 215.418 47.8565 210.298 48.4018C203.372 49.1799 194.788 51.6704 194.788 61.0133C194.788 68.2548 199.985 72.9234 208.267 72.9234C214.742 72.9234 218.808 70.1205 220.842 65.6818C221.143 69.6519 224.005 72.2219 227.996 72.2219H233.267V63.8928H228.823V45.7522H228.82ZM219.936 55.8732C219.936 61.2462 215.418 65.2162 209.921 65.2162C206.531 65.2162 203.67 63.7366 203.67 60.6243C203.67 56.6543 208.264 55.5637 212.481 55.0981C216.546 54.709 218.805 53.7747 219.936 51.9828V55.8732ZM171.973 31.1925C166.927 31.1925 162.711 33.3735 159.699 37.0311V15H150.664V72.2219H159.549V66.9286C162.56 70.7424 166.853 73 171.973 73C182.815 73 191.024 64.1257 191.024 52.136C191.024 40.1464 182.665 31.1925 171.973 31.1925ZM170.618 64.3585C164.143 64.3585 159.398 59.1418 159.398 52.136C159.398 45.1303 164.217 39.8369 170.692 39.8369C177.244 39.8369 181.835 45.0537 181.835 52.136C181.835 59.1418 177.093 64.3585 170.618 64.3585ZM129.054 31.1925C123.181 31.1925 119.34 33.683 117.081 37.1873V31.9706H108.12V72.219H117.155V50.3441C117.155 44.193 120.919 39.834 126.491 39.834C131.688 39.834 134.924 43.6478 134.924 49.1769V72.2219H143.959V48.4784C143.962 38.3544 138.919 31.1925 129.054 31.1925ZM313 50.8127C313 39.2917 304.868 31.1954 293.95 31.1954C282.355 31.1954 273.845 40.226 273.845 52.136C273.845 64.6709 282.957 73 294.1 73C303.513 73 310.892 67.238 312.773 59.0651H303.36C302.004 62.6461 298.692 64.6709 294.248 64.6709C288.449 64.6709 284.082 60.9337 283.105 54.3937H312.997V50.8127H313ZM283.633 47.6974C285.065 42.0916 289.131 39.3683 293.799 39.3683C298.919 39.3683 302.834 42.404 303.738 47.6974H283.633Z" fill="white"/>
</svg>
