<svg width="216" height="88" viewBox="0 0 216 88" fill="none" xmlns="http://www.w3.org/2000/svg">
<path d="M28.9418 30.1579C34.6502 30.1579 39.2783 34.818 39.2783 40.5656C39.2783 46.3132 34.6502 50.9734 28.9418 50.9734C23.2337 50.9734 18.6055 46.3132 18.6055 40.5656C18.6055 34.818 23.2337 30.1579 28.9418 30.1579ZM28.9418 11.4241C25.0426 11.4241 21.2517 12.1968 17.6701 13.7216C14.2203 15.1891 11.1272 17.2888 8.47587 19.9584C5.82456 22.6279 3.73919 25.7424 2.28176 29.216C0.767479 32.8198 0 36.6394 0 40.5656C0 44.4918 0.767479 48.309 2.28176 51.9151C3.73919 55.3886 5.82456 58.5032 8.47587 61.1728C11.1272 63.8424 14.2203 65.9421 17.6701 67.4095C21.2491 68.9342 25.0426 69.707 28.9418 69.707C32.8412 69.707 36.6322 68.9342 40.2138 67.4095C43.6635 65.9421 46.7568 63.8424 49.408 61.1728C52.0593 58.5032 54.1448 55.3886 55.6022 51.9151C57.1164 48.3114 57.8839 44.4918 57.8839 40.5656C57.8839 36.6394 57.1164 32.8222 55.6022 29.216C54.1448 25.7424 52.0593 22.6279 49.408 19.9584C46.7568 17.2888 43.6635 15.1891 40.2138 13.7216C36.635 12.1968 32.8412 11.4241 28.9418 11.4241Z" fill="white"/>
<path d="M28.9418 30.1579C34.6502 30.1579 39.2783 34.818 39.2783 40.5656C39.2783 46.3132 34.6502 50.9734 28.9418 50.9734C23.2337 50.9734 18.6055 46.3132 18.6055 40.5656C18.6055 34.818 23.2337 30.1579 28.9418 30.1579ZM28.9418 17.6687C16.4039 17.6687 6.20184 27.9411 6.20184 40.5656C6.20184 53.19 16.4039 63.4625 28.9418 63.4625C41.4799 63.4625 51.6821 53.19 51.6821 40.5656C51.6821 27.9411 41.4799 17.6687 28.9418 17.6687Z" fill="#CCCCCC"/>
<path d="M28.9418 30.1579C34.6502 30.1579 39.2783 34.818 39.2783 40.5656C39.2783 46.3132 34.6502 50.9734 28.9418 50.9734C23.2337 50.9734 18.6055 46.3132 18.6055 40.5656C18.6055 34.818 23.2337 30.1579 28.9418 30.1579ZM28.9418 23.9134C19.8227 23.9134 12.4037 31.3835 12.4037 40.5656C12.4037 49.7479 19.8227 57.2179 28.9418 57.2179C38.0614 57.2179 45.4801 49.7479 45.4801 40.5656C45.4801 31.3835 38.0614 23.9134 28.9418 23.9134Z" fill="#999999"/>
<path d="M28.9418 30.1579C34.6502 30.1579 39.2783 34.818 39.2783 40.5656C39.2783 46.3132 34.6502 50.9734 28.9418 50.9734C23.2337 50.9734 18.6055 46.3132 18.6055 40.5656C18.6055 34.818 23.2337 30.1579 28.9418 30.1579Z" fill="white"/>
<path d="M90.8029 80.7889L93.2938 73.0715C92.3996 73.1338 91.4954 73.1652 90.5779 73.1652C81.4872 73.1652 73.5617 69.9856 67.6569 63.9701C61.773 57.9751 58.6642 49.9171 58.6642 40.6673C58.6642 31.4174 61.8659 23.3202 67.6827 17.3826C73.5332 11.4112 81.6964 8.12239 90.6711 8.12239C97.8159 8.12239 104.408 10.1753 109.742 14.0574C111.109 15.0513 112.39 16.1701 113.571 17.3878H115.946V8.71822H153.976L154.007 17.9993C155.023 18.3401 156.013 18.7434 156.971 19.2117C160.661 17.4555 164.713 16.5656 169.044 16.5656C169.202 16.5656 169.357 16.5656 169.515 16.5682H169.623C169.827 16.5682 170.031 16.5734 170.233 16.5786H194.164L212.902 16.5266V57.3272L205.377 56.0991V73.3006H169.732C169.633 73.303 169.543 73.3057 169.45 73.3057C169.303 73.3057 169.132 73.3082 168.964 73.3082C164.662 73.3082 160.462 72.3638 156.718 70.5659C153.248 72.2312 149.459 73.1704 146.108 73.1704H133.058L130.42 80.7913H90.808L90.8029 80.7889Z" fill="#07DC10"/>
<path d="M90.6711 11.2446C97.1598 11.2446 103.124 13.092 107.923 16.5863C109.494 17.7312 110.933 19.0452 112.217 20.51H119.045V11.8404H150.883L150.912 20.3721C153.043 20.8535 155.077 21.6471 156.951 22.7295C160.543 20.7286 164.644 19.6878 169.044 19.6878C169.194 19.6878 169.344 19.6878 169.494 19.6904C169.538 19.6904 169.579 19.6904 169.623 19.6904C169.799 19.6904 169.975 19.6956 170.148 19.6982H194.164L209.801 19.654V53.6533L202.276 52.4227V70.1728H169.677C169.592 70.1755 169.507 70.178 169.421 70.178C169.269 70.178 169.114 70.1807 168.964 70.1807C164.563 70.1807 160.354 69.0879 156.721 67.0481C153.405 68.8979 149.514 70.0402 146.108 70.0402H130.856L128.218 77.6611H95.077L97.785 69.2778C95.5084 69.7852 93.1052 70.0402 90.5858 70.0402C82.3425 70.0402 75.1794 67.1807 69.8691 61.7712C64.5715 56.3749 61.773 49.0738 61.773 40.6618C61.773 32.2499 64.6595 24.9203 69.8973 19.5707C75.1585 14.1978 82.5389 11.2394 90.6763 11.2394M90.6711 5C80.8617 5 71.9131 8.61927 65.476 15.1917C59.0854 21.7173 55.5661 30.7642 55.5661 40.667C55.5661 50.5699 58.9848 59.5753 65.4526 66.166C71.6079 72.4365 79.7246 75.9076 89.0042 76.2613L86.534 83.9136H132.619L135.257 76.2924H146.103C149.472 76.2924 153.206 75.4705 156.713 73.9848C160.524 75.5927 164.7 76.4305 168.959 76.4305C169.137 76.4305 169.315 76.4305 169.496 76.4253C169.587 76.4253 169.675 76.4226 169.765 76.4201H208.475V59.7653L216 60.996V13.3938L194.157 13.4562H170.279C170.086 13.451 169.863 13.4458 169.618 13.4458H169.53C169.367 13.4458 169.205 13.4432 169.042 13.4432C164.806 13.4432 160.803 14.216 157.098 15.7433L157.064 5.59844H112.842V12.5169C112.421 12.1761 111.992 11.8483 111.556 11.5282C105.695 7.25586 98.4724 5 90.6711 5Z" fill="white"/>
<path d="M99.3407 74.0236L102.648 63.785C99.0899 65.523 95.0484 66.4027 90.5806 66.4027C83.185 66.4027 76.7841 63.8632 72.0706 59.0625C67.3599 54.2621 64.8687 47.721 64.8687 40.1493C64.8687 32.5776 67.4374 26.0104 72.1016 21.2515C76.7762 16.4796 83.3708 13.849 90.6735 13.849C96.5034 13.849 101.842 15.4908 106.108 18.5975C107.861 19.8751 109.424 21.3894 110.773 23.1119H122.151V14.4423H147.798L147.824 22.5108C151.18 22.8153 154.268 23.9627 156.925 25.8855C160.401 23.523 164.54 22.2871 169.047 22.2871C169.192 22.2871 169.336 22.2871 169.481 22.2897H169.623C169.771 22.2897 169.915 22.2923 170.062 22.2975L194.172 22.3001L206.702 22.2663V49.4666L199.167 48.236C199.167 48.3948 199.178 48.9098 199.178 48.9098V66.5353H169.59C169.52 66.538 169.45 66.5405 169.38 66.5405C169.241 66.5405 169.101 66.5432 168.964 66.5432C164.396 66.5432 160.214 65.2838 156.726 62.8797C153.333 65.2005 149.085 66.4027 146.108 66.4027H128.652C128.492 66.8657 128.34 67.3108 128.19 67.7399L126.014 74.0236H99.3407Z" fill="#999999"/>
<path d="M90.6711 17.4892C95.8442 17.4892 100.555 18.9254 104.289 21.647C106.207 23.0443 107.855 24.7641 109.199 26.7546H125.251V18.085H144.707L144.728 24.3088C144.728 24.8474 144.73 25.4536 144.73 26.1041C145.059 26.0833 145.392 26.0729 145.725 26.0729C145.813 26.0729 145.901 26.0729 145.986 26.0729C150.191 26.0729 153.963 27.595 156.852 30.4077C160.103 27.5066 164.349 25.9324 169.047 25.9324C169.184 25.9324 169.321 25.9324 169.46 25.935C169.515 25.935 169.571 25.935 169.626 25.935C169.794 25.935 169.959 25.9402 170.127 25.9454H194.175L203.604 25.9194V46.3184L196.41 45.1424C196.34 45.132 196.273 45.1216 196.208 45.1112C196.113 45.91 196.038 47.2109 196.079 49.3133V63.9359H169.623C169.533 63.9359 169.442 63.9411 169.352 63.9411C169.223 63.9411 169.096 63.9438 168.969 63.9438C164.23 63.9438 159.956 62.354 156.71 59.4269C153.865 62.1875 149.214 63.8058 146.113 63.8058H126.448C126.027 65.034 125.629 66.1919 125.267 67.2378L123.817 71.427H103.62L107.439 59.6013L107.465 59.5231L107.494 59.4452C107.754 58.7009 108.031 57.8215 108.297 56.9733C108.315 56.9134 108.333 56.8535 108.354 56.7964C108.269 56.5725 108.183 56.3462 108.098 56.1198C106.933 57.5536 105.589 58.8102 104.085 59.864C100.351 62.4817 95.8108 63.8085 90.5909 63.8085C84.0427 63.8085 78.4042 61.5916 74.2853 57.3948C70.1584 53.19 67.9775 47.4112 67.9775 40.6749C67.9775 27.0278 77.3139 17.497 90.6787 17.497M90.6711 11.2446C82.5337 11.2446 75.1533 14.2029 69.8922 19.5759C64.6541 24.9254 61.7678 32.4163 61.7678 40.667C61.7678 48.9177 64.5691 56.3773 69.8636 61.7764C75.174 67.1859 82.3373 70.0454 90.5806 70.0454C93.1001 70.0454 95.5032 69.7904 97.7798 69.283L95.0718 77.6663H128.213L130.851 70.0454H146.103C149.508 70.0454 153.403 68.9031 156.715 67.053C160.349 69.0931 164.558 70.1859 168.959 70.1859C169.111 70.1859 169.264 70.1859 169.416 70.1832C169.502 70.1832 169.587 70.1807 169.672 70.178H202.271V52.4276L202.601 52.4823L209.796 53.6585V19.6566L194.159 19.7008H170.143C169.969 19.6956 169.794 19.6904 169.618 19.6904C169.574 19.6904 169.533 19.6904 169.489 19.6904C169.339 19.6904 169.189 19.6878 169.039 19.6878C164.638 19.6878 160.537 20.7285 156.946 22.7294C155.072 21.647 153.041 20.8534 150.906 20.3721L150.878 11.8404H119.039V20.51H112.212C110.925 19.0451 109.488 17.7311 107.917 16.5863C103.119 13.0919 97.1519 11.2446 90.6659 11.2446L90.6711 11.2446Z" fill="#CCCCCC"/>
<path d="M197.394 32.2343V38.7158C196.611 38.5881 195.903 38.5231 195.265 38.5231C190.678 38.5231 189.732 41.8848 189.869 49.1676V56.6974H182.799C182.779 53.5153 182.848 35.5465 182.756 32.7364H189.327C189.329 34.8024 189.26 35.1381 189.234 36.5248H189.324C190.549 33.4676 192.862 32.1433 195.945 32.1433C196.624 32.1433 197.079 32.1901 197.394 32.2343ZM181.569 46.3886H163.889C164.207 49.995 166.382 52.0947 169.509 52.0947C171.685 52.0947 173.181 51.2727 174.044 49.5839H181.251C179.799 54.2856 175.675 57.4339 169.284 57.4339C169.176 57.4366 169.067 57.4366 168.961 57.4366C152.64 57.4366 152.85 31.9169 169.042 31.9169C169.168 31.9169 169.292 31.9169 169.419 31.9169H169.621C177.877 31.9169 182.115 38.3462 181.569 46.3862V46.3886ZM174.497 41.9578C174.135 38.8093 172.321 36.9827 169.375 36.9827C166.429 36.9827 164.478 38.8093 164.073 41.9578H174.497ZM145.73 57.3013C145.64 57.3013 145.549 57.2985 145.459 57.2985C141.423 57.2985 139.11 55.1519 138.069 53.5076C138.113 54.2829 138.113 55.7453 138.113 56.7054H131.451V24.0695H138.521C138.531 27.0565 138.515 32.3124 138.477 35.2526C139.611 33.8839 141.922 32.0574 145.774 32.0574H145.981C159.793 32.0548 159.548 57.3013 145.73 57.3013ZM143.534 37.4824C143.48 37.4824 143.428 37.4824 143.371 37.4849C140.154 37.4849 138.069 40.2247 138.069 44.4686C138.069 48.7121 139.97 51.7721 143.371 51.7721H143.526C150.462 51.7721 150.501 37.4824 143.534 37.4824ZM121.995 37.1052C120.75 41.3958 119.401 46.0349 118.768 48.8945H118.541C117.026 43.5788 115.357 38.5283 113.597 32.7364H106.075C108.793 40.5396 112.013 48.5744 114.915 56.3801C114.434 57.754 113.889 59.6664 113.328 61.2639L112.147 64.9145H119.401C122.458 56.0939 127.939 39.7513 130.554 32.7364H123.254C122.871 34.0843 122.44 35.5725 121.995 37.1052ZM90.4124 29.7234C90.4823 29.7234 90.5545 29.7234 90.6244 29.7261C94.2499 29.7261 96.6995 31.5526 98.1053 34.701L106.22 34.6567C104.178 27.6705 98.6014 23.4736 90.6708 23.4736C80.8796 23.4736 74.1714 30.0435 74.1714 40.407C74.1714 50.7702 80.7427 57.2934 90.5806 57.2934C98.5137 57.2934 104 53.3696 106.129 46.4772H97.8314C96.3819 49.2143 94.0689 50.8588 90.6244 50.8588C90.5263 50.8588 90.4255 50.864 90.3271 50.864C78.8821 50.864 79.1717 29.7234 90.4124 29.7234Z" fill="white"/>
</svg>
