<svg width="249" height="88" viewBox="0 0 249 88" fill="none" xmlns="http://www.w3.org/2000/svg">
<path fill-rule="evenodd" clip-rule="evenodd" d="M9.45823 51.9105L9.71999 56.6898C9.73757 57.0143 9.85867 57.3212 10.0638 57.5714C11.5015 59.313 17.9476 65.3922 32.4748 65.3922C47.002 65.3922 53.37 59.3932 54.8624 57.6046C55.087 57.3349 55.2159 57.0006 55.2374 56.6468L55.4972 51.9144C57.2259 50.9644 59.0113 49.8913 59.0113 49.8913C61.8183 48.3686 64.9515 50.5559 64.9574 53.7616C64.9671 58.9495 60.9158 64.28 55.4523 67.6402C49.2913 71.4284 40.0949 73 32.4787 73C24.8625 73 15.666 71.4284 9.50511 67.6402C4.04154 64.28 -0.00974923 58.9514 1.76216e-05 53.7616C0.00587773 50.5559 3.13908 48.3686 5.94607 49.8913C5.94607 49.8913 7.72755 50.9625 9.45628 51.9105H9.45823Z" fill="white"/>
<path fill-rule="evenodd" clip-rule="evenodd" d="M32.4787 18C44.3571 18 47.5782 18.2776 52.407 18.8327C54.6338 19.0888 56.4172 20.7464 56.2512 22.9924L54.4717 47.2446C53.915 47.4068 53.3075 47.6101 52.6277 47.8388C49.0589 49.0371 43.4644 50.9156 32.4806 50.9156C21.4968 50.9156 15.9004 49.0371 12.3336 47.8388C11.6519 47.6101 11.0444 47.4068 10.4877 47.2446L8.70814 22.9943C8.54406 20.7483 10.3236 19.0516 12.5524 18.8347C17.3225 18.3714 22.2899 18.002 32.4806 18.002L32.4787 18ZM11.3374 58.8635L11.3432 58.9495L11.4663 58.9768C11.4233 58.9377 11.3804 58.9006 11.3374 58.8635ZM53.5028 58.9749L53.6141 58.9495L53.62 58.8713C53.5829 58.9045 53.5438 58.9397 53.5028 58.9749Z" fill="white"/>
<path d="M143.518 32.1248V28.0199C143.518 26.9409 142.643 26.0652 141.565 26.0652H118.515C117.437 26.0652 116.561 26.9409 116.561 28.0199V63.2049C116.561 64.2839 117.437 65.1596 118.515 65.1596H141.565C142.643 65.1596 143.518 64.2839 143.518 63.2049V59.1C143.518 58.021 142.643 57.1453 141.565 57.1453H125.742C125.203 57.1453 124.766 56.7074 124.766 56.1679V50.5969C124.766 50.0574 125.203 49.6196 125.742 49.6196H137.5C138.578 49.6196 139.453 48.7439 139.453 47.6649V43.5599C139.453 42.4809 138.578 41.6052 137.5 41.6052H125.742C125.203 41.6052 124.766 41.1674 124.766 40.6279V35.0569C124.766 34.5174 125.203 34.0795 125.742 34.0795H141.565C142.643 34.0795 143.518 33.2038 143.518 32.1248Z" fill="white"/>
<path d="M163.061 43.5599V47.6649C163.061 48.7439 163.937 49.6196 165.015 49.6196H169.498C170.037 49.6196 170.475 50.0574 170.475 50.5969V54.4419C170.475 54.7019 170.371 54.9501 170.189 55.1338L168.66 56.8599C168.476 57.0436 168.228 57.1453 167.968 57.1453H162.54C162.28 57.1453 162.032 57.0417 161.848 56.8599L160.212 55.2218C160.028 55.0381 159.926 54.7898 159.926 54.5298V36.304C159.926 36.044 160.03 35.7958 160.212 35.612L161.458 34.3649C161.641 34.1812 161.889 34.0795 162.149 34.0795H168.164C168.423 34.0795 168.672 34.1831 168.855 34.3649L172.522 38.0339C173.285 38.7982 174.522 38.7982 175.284 38.0339L178.087 35.2289C178.851 34.4646 178.851 33.2273 178.087 32.4649L172.262 26.6379C171.895 26.2724 171.398 26.0652 170.881 26.0652H159.553C159.041 26.0652 158.551 26.2646 158.186 26.6242L152.308 32.3926C151.933 32.7601 151.722 33.2625 151.722 33.7883L151.726 57.3114C151.726 57.8294 151.931 58.3259 152.298 58.6934L158.184 64.5849C158.551 64.9524 159.047 65.1577 159.565 65.1577H170.879C171.398 65.1577 171.899 64.9505 172.264 64.581L178.112 58.6934C178.476 58.3279 178.681 57.8314 178.681 57.3153V43.558C178.681 42.479 177.806 41.6033 176.727 41.6033H165.017C163.939 41.6033 163.063 42.479 163.063 43.558L163.061 43.5599Z" fill="white"/>
<path d="M247.047 26.0652H242.749C241.671 26.0652 240.796 26.9409 240.796 28.0199V45.0397C240.796 45.4365 240.272 45.5811 240.069 45.239L229.253 27.021C228.902 26.4288 228.263 26.0652 227.573 26.0652H223.997C222.919 26.0652 222.043 26.9409 222.043 28.0199V63.2049C222.043 64.2839 222.919 65.1596 223.997 65.1596H228.294C229.373 65.1596 230.248 64.2839 230.248 63.2049V46.2027C230.248 45.804 230.775 45.6613 230.976 46.0053L241.599 64.1901C241.948 64.7902 242.591 65.1577 243.284 65.1577H247.047C248.125 65.1577 249 64.2819 249 63.2029V28.0199C249 26.9409 248.125 26.0652 247.047 26.0652Z" fill="white"/>
<path d="M98.7311 26.0652H83.3542C82.2759 26.0652 81.4008 26.9409 81.4008 28.0199V63.2049C81.4008 64.2839 82.2759 65.1596 83.3542 65.1596H98.7311C99.7664 65.1596 100.761 64.7472 101.493 64.0141L107.213 58.2907C107.945 57.5577 108.357 56.5627 108.357 55.5267V35.6981C108.357 34.662 107.945 33.6671 107.213 32.9341L101.493 27.2106C100.761 26.4776 99.7664 26.0652 98.7311 26.0652ZM96.8188 57.1453H90.5817C90.0425 57.1453 89.605 56.7074 89.605 56.1679V35.0569C89.605 34.5174 90.0425 34.0795 90.5817 34.0795H96.8188C97.0786 34.0795 97.3267 34.1831 97.5103 34.3649L99.868 36.7243C100.052 36.908 100.153 37.1563 100.153 37.4163V53.8085C100.153 54.0685 100.05 54.3168 99.868 54.5005L97.5103 56.8599C97.3267 57.0436 97.0786 57.1453 96.8188 57.1453Z" fill="white"/>
<path d="M213.839 32.1248V28.0199C213.839 26.9409 212.964 26.0652 211.886 26.0652H188.836C187.758 26.0652 186.883 26.9409 186.883 28.0199V63.2049C186.883 64.2839 187.758 65.1596 188.836 65.1596H211.886C212.964 65.1596 213.839 64.2839 213.839 63.2049V59.1C213.839 58.021 212.964 57.1453 211.886 57.1453H196.064C195.525 57.1453 195.087 56.7074 195.087 56.1679V50.5969C195.087 50.0574 195.525 49.6196 196.064 49.6196H207.821C208.899 49.6196 209.774 48.7439 209.774 47.6649V43.5599C209.774 42.4809 208.899 41.6052 207.821 41.6052H196.064C195.525 41.6052 195.087 41.1674 195.087 40.6279V35.0569C195.087 34.5174 195.525 34.0795 196.064 34.0795H211.886C212.964 34.0795 213.839 33.2038 213.839 32.1248Z" fill="white"/>
</svg>
