<svg width="82" height="88" viewBox="0 0 82 88" fill="none" xmlns="http://www.w3.org/2000/svg">
<path fill-rule="evenodd" clip-rule="evenodd" d="M82 44C82 66.6437 63.6437 85 41 85C18.3563 85 0 66.6437 0 44C0 21.3563 18.3563 3 41 3C63.6437 3 82 21.3563 82 44ZM15.4781 53.4007H25.1541C31.4622 53.4007 35.458 49.8911 35.458 43.8395C35.458 37.7891 31.4622 34.2783 25.1541 34.2783H15.4781V53.4007ZM20.8444 39.1023H25.1541C28.5501 39.1023 29.7215 39.5298 29.7215 43.8395C29.7215 48.1492 28.5512 48.5779 25.1553 48.5779H20.8444V39.1023ZM36.3073 57.1973H46.5819L46.5807 53.4019H36.3073V57.1973ZM48.0344 53.4019H57.7104L57.7093 53.3995C64.0174 53.3995 68.0131 49.8899 68.0131 43.8383C68.0131 37.7879 64.0174 34.2771 57.7104 34.2771H48.0344V53.4019ZM53.3984 39.0999H57.7093C61.1052 39.0999 62.2755 39.5275 62.2755 43.8372C62.2755 48.1469 61.1052 48.5756 57.7093 48.5756H53.3984V39.0999Z" fill="white"/>
</svg>
