<svg width="243" height="88" viewBox="0 0 243 88" fill="none" xmlns="http://www.w3.org/2000/svg">
<path d="M8.13428 68.0579C8.13428 68.0579 36.1106 59.0041 85.4174 43.1206C85.4174 43.1206 88.1182 69.1326 60.8234 82.7005C60.8234 82.7005 47.3637 89.0739 32.5974 84.9858C32.5974 84.9858 17.8932 82.2437 8.13428 68.0579Z" fill="white"/>
<path d="M110.907 23.573H125.588C128.208 23.573 130.577 24.0053 132.697 24.8699C134.855 25.7345 136.685 27.0312 138.188 28.7608C139.729 30.4508 140.904 32.5922 141.713 35.186C142.561 37.7408 142.985 40.7274 142.985 44.1464C142.985 47.5659 142.561 50.5721 141.713 53.166C140.904 55.7207 139.729 57.8626 138.188 59.5917C136.685 61.2816 134.855 62.5588 132.697 63.4235C130.577 64.2878 128.208 64.7202 125.588 64.7202H110.907V23.573ZM125.588 57.823C128.439 57.823 130.693 56.9783 132.35 55.2883C134.046 53.5592 134.893 50.9258 134.893 47.3889V40.9045C134.893 37.3676 134.046 34.7541 132.35 33.0642C130.693 31.3346 128.439 30.4703 125.588 30.4703H118.537V57.823H125.588Z" fill="white"/>
<path d="M167.748 59.5916H167.459C167.189 60.3777 166.823 61.1241 166.36 61.8319C165.937 62.5 165.378 63.109 164.685 63.6592C164.03 64.2095 163.22 64.6414 162.257 64.9559C161.332 65.2704 160.253 65.4275 159.02 65.4275C155.899 65.4275 153.51 64.3861 151.854 62.3034C150.196 60.2202 149.368 57.2531 149.368 53.4017V33.948H156.766V52.6352C156.766 54.7576 157.171 56.3888 157.98 57.5285C158.789 58.6285 160.08 59.1788 161.852 59.1788C162.584 59.1788 163.297 59.0805 163.991 58.8844C164.723 58.6877 165.359 58.3928 165.898 58C166.438 57.5676 166.881 57.0565 167.227 56.4671C167.574 55.8385 167.748 55.1112 167.748 54.286V33.948H175.145V64.7202H167.748V59.5916Z" fill="white"/>
<path d="M183.115 64.7202V33.948H190.513V39.077H190.802C191.419 37.4262 192.382 36.0508 193.692 34.9502C195.041 33.8106 196.89 33.2407 199.241 33.2407C202.362 33.2407 204.751 34.2821 206.408 36.3653C208.064 38.448 208.893 41.4151 208.893 45.2665V64.7202H201.495V46.033C201.495 43.8324 201.11 42.1815 200.339 41.081C199.568 39.9809 198.296 39.4307 196.524 39.4307C195.754 39.4307 195.002 39.5485 194.27 39.7843C193.577 39.9809 192.941 40.295 192.363 40.7274C191.824 41.1206 191.38 41.6313 191.033 42.2603C190.687 42.8497 190.513 43.557 190.513 44.3826V64.7202H183.115Z" fill="white"/>
<path fill-rule="evenodd" clip-rule="evenodd" d="M63.5734 16.3143C57.9367 12.3142 51.2257 10.0551 44.2888 9.82278C37.352 9.59044 30.5014 11.3953 24.6033 15.0091C18.7049 18.6228 14.024 23.8831 11.1522 30.1245C8.28052 36.3663 7.34691 43.3086 8.46945 50.0742C9.59193 56.8399 12.7202 63.1252 17.4587 68.1344C22.1971 73.144 28.3333 76.6531 35.0909 78.2178C41.8485 79.7825 48.924 79.333 55.4226 76.925C61.9213 74.5175 67.551 70.2606 71.6004 64.6924C74.2888 60.995 76.2143 56.811 77.2658 52.379C78.3174 47.947 78.4749 43.3536 77.7297 38.8614C76.9846 34.3692 75.3508 30.0658 72.9219 26.1973C70.4929 22.3285 67.3164 18.9703 63.5734 16.3143ZM44.5344 2.67003C52.9026 2.9503 60.9994 5.67568 67.7996 10.5015C72.3153 13.7058 76.1474 17.7573 79.0779 22.4246C82.0084 27.0919 83.9794 32.2836 84.8785 37.7036C85.7776 43.1232 85.5874 48.665 84.3185 54.0122C83.0501 59.3594 80.7271 64.4077 77.4837 68.8681C72.5981 75.5858 65.8063 80.7217 57.9659 83.6266C50.1261 86.5311 41.5901 87.0735 33.4378 85.1859C25.2855 83.2984 17.8826 79.065 12.1659 73.0213C6.4491 66.9776 2.67492 59.3946 1.32063 51.232C-0.0336613 43.0694 1.09274 34.6935 4.55738 27.1633C8.02203 19.6328 13.6693 13.2866 20.7851 8.92684C27.9011 4.56712 36.1658 2.38971 44.5344 2.67003Z" fill="white"/>
<path d="M228.711 65.4275C226.477 65.4275 224.473 65.0543 222.7 64.3078C220.967 63.5218 219.483 62.4408 218.25 61.0654C217.055 59.6503 216.131 57.9604 215.476 55.9956C214.821 53.9911 214.493 51.7514 214.493 49.2754C214.493 46.8385 214.802 44.638 215.418 42.6726C216.073 40.7078 216.998 39.0374 218.192 37.662C219.387 36.2474 220.851 35.1664 222.585 34.42C224.319 33.634 226.284 33.2407 228.48 33.2407C230.83 33.2407 232.873 33.6535 234.607 34.4787C236.34 35.3039 237.766 36.424 238.884 37.839C240.001 39.2536 240.829 40.9044 241.369 42.791C241.947 44.6379 242.236 46.6223 242.236 48.7447V51.2207H222.18V51.9871C222.18 54.2274 222.796 56.0347 224.03 57.4106C225.263 58.7464 227.093 59.4146 229.52 59.4146C231.37 59.4146 232.873 59.0218 234.029 58.2358C235.223 57.4497 236.282 56.4475 237.207 55.2291L241.195 59.7682C239.963 61.5369 238.267 62.9319 236.109 63.9537C233.99 64.9364 231.524 65.4275 228.711 65.4275ZM228.596 38.9C226.63 38.9 225.07 39.5681 223.914 40.9044C222.758 42.2407 222.18 43.9698 222.18 46.0921V46.5637H234.549V46.033C234.549 43.9106 234.029 42.2011 232.988 40.9044C231.986 39.5681 230.522 38.9 228.596 38.9Z" fill="white"/>
</svg>
