<svg width="40" height="40" viewBox="0 0 40 40" fill="none" xmlns="http://www.w3.org/2000/svg">
<path d="M7.68539 11.2031C8.05219 10.6262 8.5107 10.1318 9.15261 9.76094L19.3773 3.33325L8.8775 18.908C8.8775 18.908 7.96049 17.5071 7.59369 16.8067C6.72253 15.0349 6.72253 12.9748 7.68539 11.2031ZM3.46714 21.9571C3.69639 24.9649 5.39286 27.7667 8.05219 29.5796L19.3773 36.6666C19.3773 36.6666 12.2704 27.4783 6.30987 18.3312C5.71382 17.3835 5.30116 16.3122 5.11776 15.1998C5.02606 14.7053 5.02606 14.2109 5.11776 13.7164C4.98021 13.9637 4.65926 14.4993 4.65926 14.4993C4.0632 15.6118 3.65054 16.8067 3.42129 18.0428C3.28374 19.3613 3.28374 20.6798 3.46714 21.9571ZM32.353 23.1932C31.9862 22.4927 31.0692 21.0918 31.0692 21.0918L20.5694 36.6666L30.8399 30.2801C31.436 29.9093 31.9403 29.4148 32.3071 28.838C33.2241 27.0663 33.27 25.0061 32.353 23.1932ZM36.4795 18.084C36.2503 15.0761 34.5538 12.2743 31.8945 10.4614L20.6152 3.33325C20.6152 3.33325 27.7221 12.5216 33.6826 21.6686C34.2787 22.6163 34.6914 23.6876 34.8748 24.8001C34.9665 25.2945 34.9665 25.789 34.8748 26.2834C35.0123 26.0362 35.3333 25.5005 35.3333 25.5005C35.9293 24.3881 36.342 23.1932 36.5712 21.9983C36.6629 20.6386 36.6629 19.3613 36.4795 18.084Z" fill="white"/>
</svg>
