<svg width="200" height="88" viewBox="0 0 200 88" fill="none" xmlns="http://www.w3.org/2000/svg">
<g clip-path="url(#clip0_6060_1460)">
<path d="M10.3288 20.7049C11.1537 19.1765 12.3442 17.8734 13.7953 16.9108L38.1484 0L13.1957 41.0303C13.1957 41.0303 11.0155 37.3665 10.1652 35.5126C9.10562 33.1816 8.57124 30.6487 8.59946 28.0908C8.62772 25.5329 9.21796 23.0121 10.3288 20.7049ZM0.277911 49.0088C0.552874 52.9325 1.66769 56.7525 3.54772 60.2129C5.42774 63.6736 8.02957 66.6946 11.179 69.0741L38.1156 87.7518C38.1156 87.7518 21.2625 63.5999 7.0475 39.567C5.60836 37.0279 4.64089 34.2519 4.1914 31.3717C3.99242 30.0676 3.99242 28.7409 4.1914 27.4367C3.82075 28.1198 3.10129 29.5181 3.10129 29.5181C1.65994 32.4411 0.678317 35.567 0.190704 38.7865C-0.0899623 42.1896 -0.0607741 45.6108 0.277911 49.0088ZM68.9548 52.2607C68.0825 50.4071 65.9242 46.743 65.9242 46.743L41.0153 87.7518L65.3683 70.8518C66.8194 69.8892 68.01 68.5863 68.835 67.0579C69.9457 64.7506 70.5358 62.2297 70.5642 59.6721C70.5925 57.1141 70.0581 54.5809 68.9984 52.25L68.9548 52.2607ZM78.8419 38.7538C78.5669 34.8303 77.4522 31.0101 75.5723 27.5496C73.6922 24.0892 71.0903 21.068 67.9409 18.6886L41.0479 0C41.0479 0 57.8901 24.1521 72.1161 48.1848C73.5513 50.7248 74.5151 53.5008 74.9613 56.3801C75.1602 57.6843 75.1602 59.011 74.9613 60.3152C75.332 59.6321 76.0514 58.2337 76.0514 58.2337C77.4928 55.3107 78.4745 52.1848 78.9618 48.9653C79.2462 45.5625 79.2207 42.1413 78.8857 38.7431L78.8419 38.7538Z" fill="white"/>
<path d="M124.401 63.3171H98.9011V22.9798H124.401V30.5875H104.659L107.127 28.2888V39.3446H122.482V46.5692H107.127V58.0081L104.659 55.7094H124.401V63.3171Z" fill="white"/>
<path d="M139.352 63.3171H131.181V22.9798H139.352L159.533 53.4106H157.065V22.9798H165.181V63.3171H157.065L136.829 32.941H139.352V63.3171Z" fill="white"/>
<path d="M170.531 34.5282C170.531 32.12 171.152 30.0037 172.395 28.1793C173.675 26.3184 175.411 24.8589 177.605 23.8008C179.835 22.7426 182.376 22.2136 185.227 22.2136C188.079 22.2136 190.528 22.7244 192.576 23.7461C194.66 24.7312 196.268 26.136 197.402 27.9604C198.571 29.7848 199.156 31.9558 199.156 34.4735H190.985C190.949 32.941 190.401 31.7369 189.34 30.8612C188.317 29.9855 186.909 29.5476 185.118 29.5476C183.18 29.5476 181.626 29.9672 180.456 30.8064C179.323 31.6457 178.756 32.795 178.756 34.2545C178.756 35.5681 179.104 36.5898 179.798 37.3195C180.53 38.0128 181.645 38.5236 183.144 38.852L189.34 40.1656C192.887 40.8953 195.519 42.1541 197.237 43.9421C198.955 45.73 199.814 48.1929 199.814 51.3308C199.814 53.885 199.193 56.129 197.95 58.0628C196.707 59.9602 194.934 61.438 192.631 62.4961C190.364 63.5178 187.695 64.0286 184.624 64.0286C181.699 64.0286 179.122 63.536 176.892 62.5508C174.698 61.5292 172.998 60.1062 171.792 58.2818C170.585 56.4209 169.964 54.2681 169.927 51.8234H178.153C178.153 53.3559 178.72 54.56 179.853 55.4357C181.023 56.2749 182.632 56.6945 184.679 56.6945C186.799 56.6945 188.481 56.2932 189.724 55.4904C190.967 54.6512 191.589 53.5383 191.589 52.1518C191.589 50.9112 191.278 49.9625 190.656 49.3058C190.035 48.6125 188.993 48.1199 187.531 47.828L181.279 46.5144C177.733 45.7847 175.046 44.4164 173.218 42.4096C171.426 40.4027 170.531 37.7756 170.531 34.5282Z" fill="white"/>
</g>
<defs>
<clipPath id="clip0_6060_1460">
<rect width="200" height="88" fill="white"/>
</clipPath>
</defs>
</svg>
