<svg width="40" height="40" viewBox="0 0 40 40" fill="none" xmlns="http://www.w3.org/2000/svg">
<path fill-rule="evenodd" clip-rule="evenodd" d="M4.68848 4.68634C6.55862 2.8168 9.87483 2.50136 14.0237 3.80322C15.0151 4.11679 15.9857 4.49256 16.9298 4.92829C12.2123 8.13622 8.14434 12.2076 4.94065 16.9276C5.4268 17.9744 5.97189 18.9929 6.57329 19.9781C9.94545 14.524 14.5447 9.93247 20.0047 6.56904L20.0105 6.5726L20.0149 6.56991C25.4662 9.94202 30.0561 14.5383 33.4203 19.9938L33.4192 19.9957L33.4204 19.9978C31.753 22.7241 29.7646 25.2406 27.4978 27.4934C25.2488 29.7613 22.7357 31.7512 20.0125 33.4205C17.2809 31.7534 14.7598 29.7637 12.5037 27.4944C10.2335 25.2382 8.24312 22.7171 6.57552 19.9853C6.57552 19.9853 5.42101 22.0068 4.93284 23.0635C6.52989 25.4212 8.35115 27.6191 10.3712 29.6264C12.377 31.6465 14.5752 33.4661 16.9345 35.0592C17.9215 35.7247 18.9402 36.3414 19.9879 36.9064C20.8194 36.4606 21.6326 35.9816 22.4256 35.4706C22.6378 35.3345 22.8497 35.1958 23.0616 35.0519L23.0636 35.0528C25.4245 33.4615 27.6247 31.6438 29.6328 29.6255C31.6505 27.6198 33.4692 25.4236 35.0637 23.0675L35.0627 23.0654C35.7297 22.0764 36.3476 21.0552 36.9142 20.0055C40.6996 12.9862 41.1407 6.24869 37.4434 2.55233C33.7457 -1.14413 27.0085 -0.702572 19.9871 3.08215C21.0415 3.64967 22.0674 4.26867 23.061 4.93691C25.7791 3.68018 28.3682 3.00643 30.5614 3.00643C32.5223 3.00643 34.1678 3.54402 35.3084 4.68441C37.7281 7.10369 37.4409 11.7857 35.0598 16.9297C33.4664 14.5714 31.649 12.3724 29.6328 10.3634C27.6246 8.3451 25.4246 6.52739 23.0636 4.93604L23.0587 4.9383C22.066 4.27081 21.0411 3.65247 19.9877 3.0855C18.9423 3.64818 17.9257 4.26293 16.9419 4.92743C17.9264 4.26245 18.9433 3.6471 19.9895 3.08409C18.3735 2.20444 16.6776 1.48037 14.9245 0.921676C9.65263 -0.728218 5.25903 -0.150504 2.5535 2.55427C0.824796 4.28265 0.00195199 6.67725 0.00195199 9.45298C0.00195199 12.6146 1.06957 16.2732 3.08342 20.01C3.64956 21.0569 4.26702 22.0741 4.93182 23.0613C5.41999 22.0047 5.96846 20.977 6.5745 19.9832C5.97309 18.998 5.428 17.9795 4.94185 16.9326C2.55948 11.7875 2.2684 7.10597 4.68848 4.68634Z" fill="white"/>
<path d="M13.2642 21.6236L19.9997 25.472L26.7354 21.6236L19.9997 30.7632L13.2642 21.6236Z" fill="white"/>
<path d="M36.9151 20.0124C37.7939 21.6277 38.518 23.3224 39.078 25.0739C40.7284 30.3475 40.1506 34.7403 37.4453 37.4453C35.7166 39.1737 33.3216 39.9961 30.5456 39.9961C27.3833 39.9961 23.7266 38.9287 19.989 36.9127C20.8204 36.4669 21.6337 35.9879 22.4267 35.477C22.6389 35.3408 22.8508 35.2022 23.0627 35.0582C28.2084 37.4403 32.89 37.7302 35.3101 35.3105C37.7305 32.8933 37.4428 28.2154 35.0628 23.0729C35.7301 22.0838 36.3483 21.0623 36.9151 20.0124Z" fill="white"/>
<path d="M4.68822 35.3118C6.55836 37.1816 9.87432 37.4971 14.0234 36.1977C15.0174 35.8836 15.9903 35.506 16.9358 35.0671C17.9227 35.7327 18.9414 36.3477 19.989 36.9127C18.3725 37.7913 16.6771 38.5167 14.9245 39.0765C13.1495 39.6604 11.2963 39.9718 9.42791 40C6.60652 40 4.24933 39.1397 2.55324 37.4467C-0.149285 34.7417 -0.729615 30.3489 0.923096 25.0752C1.48208 23.3246 2.20531 21.6307 3.08316 20.0162C3.64924 21.0631 4.26574 22.082 4.93048 23.0693C4.49307 24.0141 4.11629 24.9859 3.80242 25.9787C2.50283 30.1267 2.81807 33.4423 4.68822 35.3118Z" fill="white"/>
<path d="M19.9977 9.22757L13.2622 19.8105L19.9977 23.6584L26.7335 19.8105L19.9977 9.22757Z" fill="white"/>
</svg>
