<svg width="318" height="88" viewBox="0 0 318 88" fill="none" xmlns="http://www.w3.org/2000/svg">
<path fill-rule="evenodd" clip-rule="evenodd" d="M23.3019 44.2119L35.1363 25.4016L46.9711 44.2119L35.1363 51.0513L23.3019 44.2119Z" fill="white"/>
<path fill-rule="evenodd" clip-rule="evenodd" d="M23.3057 47.4342L35.1401 54.2745L46.975 47.4342L35.1401 63.6792L23.3057 47.4342Z" fill="white"/>
<path fill-rule="evenodd" clip-rule="evenodd" d="M40.5201 17.7807C38.6822 18.6481 36.8925 19.6167 35.1593 20.6821C33.4152 19.6048 31.6103 18.6315 29.7539 17.7673C31.4867 16.5826 33.2774 15.4868 35.1192 14.484C36.9718 15.4927 38.7743 16.593 40.5201 17.7807Z" fill="white"/>
<path fill-rule="evenodd" clip-rule="evenodd" d="M65.7891 13.5366C59.2923 6.96639 47.4539 7.75123 35.1172 14.4783C36.9698 15.487 38.7723 16.5872 40.5182 17.775C45.2939 15.5412 49.8431 14.3437 53.6965 14.3437C57.1419 14.3437 60.033 15.2992 62.0371 17.3262C66.2893 21.627 65.7839 29.9509 61.5982 39.0958C62.7711 40.8622 63.8587 42.6851 64.8572 44.558C71.5087 32.0813 72.2856 20.1068 65.7891 13.5366Z" fill="white"/>
<path fill-rule="evenodd" clip-rule="evenodd" d="M40.5236 17.7731C38.6856 18.6405 36.896 19.6091 35.1627 20.6745C44.743 26.6686 52.8094 34.8396 58.7214 44.5383C59.7781 42.7773 60.7401 40.9598 61.6032 39.0939C58.8031 34.9011 55.6092 30.9916 52.0659 27.4198C48.5374 23.8325 44.672 20.6016 40.5236 17.7731Z" fill="white"/>
<path fill-rule="evenodd" clip-rule="evenodd" d="M64.8589 44.5586C63.8631 46.4252 62.7769 48.241 61.6043 49.9995C60.7416 48.1281 59.7781 46.3059 58.7181 44.5412C59.7748 42.7802 60.7368 40.9627 61.5999 39.0968C62.7729 40.8633 63.8605 42.6857 64.8589 44.5586Z" fill="white"/>
<path fill-rule="evenodd" clip-rule="evenodd" d="M61.608 50.0013C60.7453 48.1301 59.7818 46.3081 58.7218 44.5435C55.7919 49.3899 52.2979 53.8633 48.3146 57.868C44.363 61.899 39.9475 65.4359 35.1627 68.4029C36.8941 69.4717 38.6839 70.4403 40.5236 71.3043C44.6718 68.4758 48.5376 65.2449 52.0659 61.6576C55.611 58.0926 58.8066 54.189 61.608 50.0013Z" fill="white"/>
<path fill-rule="evenodd" clip-rule="evenodd" d="M68.6607 53.5674C67.6769 50.4543 66.4046 47.4421 64.8606 44.571C63.8647 46.4372 62.7785 48.2527 61.606 50.0109C65.7877 59.1513 66.2931 67.4659 62.0405 71.7622C57.7882 76.063 49.5627 75.5478 40.5216 71.3139C40.1492 71.5697 39.7769 71.8162 39.4041 72.0582C38.0107 72.9664 36.5818 73.8177 35.121 74.6101C41.6879 78.1934 48.113 80.0906 53.6691 80.0906C58.5466 80.0906 62.7547 78.6288 65.7921 75.5568C70.5453 70.7488 71.5606 62.9409 68.6607 53.5674Z" fill="white"/>
<path fill-rule="evenodd" clip-rule="evenodd" d="M40.5201 71.3021C40.1478 71.5579 39.7755 71.8044 39.4027 72.0464C38.0093 72.9546 36.5804 73.8059 35.1196 74.5983C33.2787 73.5941 31.4879 72.4984 29.7539 71.3155C31.6103 70.4513 33.4152 69.478 35.1593 68.4007C36.891 69.4695 38.6805 70.4379 40.5201 71.3021Z" fill="white"/>
<path fill-rule="evenodd" clip-rule="evenodd" d="M24.6394 73.339C17.3494 75.6485 11.5232 75.0878 8.2373 71.7644C4.95141 68.4414 4.39752 62.5482 6.68095 55.1753C7.23241 53.4108 7.89443 51.6836 8.66297 50.0041C7.495 48.2494 6.4118 46.4384 5.41718 44.5776C3.87479 47.4472 2.60404 50.458 1.6219 53.5696C-1.28195 62.9431 -0.262298 70.7509 4.48609 75.5589C7.46618 78.5681 11.6078 80.0972 16.5651 80.0972C19.8478 80.0471 23.104 79.4936 26.2227 78.4558C29.3021 77.4608 32.2817 76.1739 35.1219 74.6123C33.2812 73.608 31.4905 72.5123 29.7566 71.3294C28.0954 72.1095 26.3858 72.7807 24.6394 73.339Z" fill="white"/>
<path fill-rule="evenodd" clip-rule="evenodd" d="M29.76 71.3185C31.6164 70.4543 33.4213 69.4811 35.1654 68.4038C30.3648 65.4403 25.9343 61.9033 21.9694 57.8689C17.9806 53.8587 14.4834 49.3776 11.5534 44.5221C10.4886 46.2885 9.52495 48.1152 8.66721 49.9933C11.4733 54.184 14.6733 58.0906 18.2226 61.6585C21.7484 65.2506 25.6125 68.486 29.76 71.3185Z" fill="white"/>
<path fill-rule="evenodd" clip-rule="evenodd" d="M11.5517 44.5189C10.4869 46.2853 9.52324 48.112 8.6655 49.9901C7.49738 48.2353 6.41404 46.4244 5.41927 44.5635C6.4171 42.6878 7.50639 40.8633 8.68313 39.0968C9.53731 40.9575 10.495 42.7678 11.5517 44.5189Z" fill="white"/>
<path fill-rule="evenodd" clip-rule="evenodd" d="M8.23708 17.3296C11.523 14.0066 17.3496 13.446 24.6392 15.7599C26.3849 16.3185 28.0939 16.988 29.756 17.7646C31.4889 16.58 33.2796 15.4844 35.1213 14.4817C32.282 12.9182 29.3022 11.6313 26.222 10.6382C16.9592 7.70565 9.23954 8.73249 4.48587 13.54C1.4485 16.6121 0.00274359 20.8683 0.00274359 25.802C0.00274359 31.4215 1.87857 37.9244 5.41695 44.5664C6.41478 42.6906 7.50407 40.8661 8.68081 39.0997C4.49468 29.9544 3.98485 21.6304 8.23708 17.3296Z" fill="white"/>
<path fill-rule="evenodd" clip-rule="evenodd" d="M29.7556 17.7528C21.4625 23.4557 14.3116 30.6947 8.68038 39.0874C9.53456 40.9482 10.4923 42.7584 11.549 44.5096C17.4766 34.811 25.562 26.647 35.1609 20.668C33.4169 19.5907 31.612 18.617 29.7556 17.7528Z" fill="white"/>
<path d="M309.926 59.0531V62.0239C309.414 62.3282 308.83 62.4861 308.236 62.4808C305.817 62.5414 303.674 60.9106 303.053 58.5387C299.44 62.5436 293.604 63.5424 288.895 60.9623C284.186 58.3819 281.811 52.884 283.134 47.6241C284.457 42.3642 289.138 38.6909 294.49 38.7132C296.017 38.7095 297.529 39.0104 298.94 39.5987C300.352 40.187 301.634 41.051 302.715 42.1413V39.17H306.208V56.0817C306.208 58.196 307.279 59.0531 308.518 59.0531H309.926ZM302.715 50.5972C302.715 45.9902 299.033 42.2554 294.49 42.2554C289.947 42.2554 286.265 45.9902 286.265 50.5972C286.265 55.2042 289.947 58.9385 294.49 58.9385C299.03 58.9332 302.71 55.2019 302.715 50.5972ZM314.33 27.5712H318V62.4825H314.33V27.5712ZM277.633 50.4434C277.635 55.2978 274.792 59.6783 270.423 61.5511C266.054 63.4234 261.016 62.421 257.647 59.0094V62.019H254.147V26.8283H257.647V41.8771C261.016 38.4654 266.055 37.4626 270.423 39.3354C274.792 41.2081 277.635 45.5882 277.633 50.4434ZM274.133 50.4434C274.133 45.7763 270.442 41.9929 265.89 41.9929C261.338 41.9929 257.647 45.7763 257.647 50.443C257.647 55.1101 261.338 58.8935 265.89 58.8935C266.976 58.8959 268.052 58.6789 269.054 58.2553C270.056 57.8317 270.965 57.21 271.726 56.4267C273.277 54.8313 274.142 52.6808 274.133 50.4434ZM224.056 50.5976C224.056 44.0341 229.312 38.7132 235.799 38.7132C242.284 38.7132 247.542 44.0341 247.542 50.5976C247.542 57.1616 242.284 62.4825 235.798 62.4825C234.256 62.4837 232.728 62.1771 231.303 61.5803C229.877 60.9835 228.583 60.1081 227.492 59.0045C226.401 57.9003 225.536 56.5895 224.946 55.147C224.357 53.7045 224.054 52.1586 224.056 50.5976ZM244.041 50.5976C244.041 45.9907 240.351 42.2559 235.798 42.2559C231.246 42.2559 227.556 45.9907 227.556 50.5981C227.556 55.2051 231.246 58.9399 235.798 58.9399C240.348 58.9345 244.036 55.2028 244.041 50.5976ZM206.441 43.4993V44.5342C206.5 53.4968 200.111 61.1108 191.518 62.3185C182.926 63.5263 174.802 57.9518 172.543 49.298C170.285 40.6448 174.595 31.6037 182.609 28.1818C190.624 24.759 199.851 28.02 204.16 35.7976L201.102 37.5794C197.846 31.634 190.925 28.9698 184.699 31.2646C178.473 33.5598 174.746 40.1496 175.865 46.8825C176.984 53.6158 182.625 58.5423 189.235 58.5583C195.845 58.5744 201.509 53.6759 202.659 46.9484H189.257V43.4993H206.441ZM213.78 27.5708H217.45V62.4825H213.78V27.5708ZM166.074 27.5708V62.4825H158.678V48.4018H144.903V62.4825H137.45V27.5712H144.903V41.5936H158.678V27.5712L166.074 27.5708ZM134.515 34.379H126.088V62.4825H118.778V34.379H110.295V27.5712H134.515V34.379ZM95.0567 34.321V41.6524H106.214V48.4018H95.0567V55.7332H108.093V62.4825H87.5424V27.5712H108.093V34.3201L95.0567 34.321Z" fill="white"/>
</svg>
