<svg width="298" height="88" viewBox="0 0 298 88" fill="none" xmlns="http://www.w3.org/2000/svg">
<g opacity="0.8">
<path d="M83.8047 50.1542C83.8004 50.4149 83.6943 50.6633 83.5097 50.8451C83.3251 51.0268 83.0769 51.1272 82.8194 51.1242H64.6736C65.1389 55.6697 68.5053 59.8271 73.2676 59.8271C76.5245 59.8271 78.933 58.5799 80.7394 55.9468C80.8235 55.8085 80.9398 55.6932 81.0782 55.6111C81.2166 55.5289 81.3728 55.4824 81.5331 55.4757C81.6526 55.4722 81.7716 55.4935 81.8827 55.5383C81.9938 55.583 82.0947 55.6503 82.1793 55.7359C82.2639 55.8215 82.3303 55.9237 82.3745 56.0363C82.4186 56.1488 82.4397 56.2693 82.4363 56.3903C82.4369 56.5575 82.3893 56.7213 82.2994 56.8615C80.4657 60.0766 76.8256 61.6564 73.2676 61.6564C67.1642 61.6564 62.7851 56.1131 62.7851 50.2096C62.7851 44.306 67.1368 38.7628 73.2676 38.7628C79.3983 38.7628 83.7774 44.2506 83.8047 50.1542ZM81.8615 49.295C81.4783 44.7495 78.0298 40.5921 73.2676 40.5921C68.5053 40.5921 65.1389 44.7495 64.6736 49.295H81.8615Z" fill="white"/>
<path d="M105.864 39.2063C106.102 39.2132 106.327 39.3118 106.495 39.4819C106.663 39.6519 106.761 39.8805 106.768 40.1209C106.771 40.242 106.75 40.3624 106.706 40.475C106.662 40.5875 106.595 40.6897 106.511 40.7753C106.426 40.8609 106.325 40.9282 106.214 40.9729C106.103 41.0177 105.984 41.039 105.864 41.0355H100.993V60.4091C100.99 60.6511 100.895 60.8824 100.726 61.0535C100.557 61.2246 100.328 61.3216 100.089 61.3238C99.8521 61.3168 99.6263 61.2182 99.4584 61.0482C99.2905 60.8781 99.1931 60.6495 99.1863 60.4091V41.0355H94.5061C94.3866 41.039 94.2676 41.0177 94.1565 40.9729C94.0454 40.9282 93.9445 40.8609 93.8599 40.7753C93.7753 40.6897 93.7089 40.5875 93.6648 40.475C93.6206 40.3624 93.5995 40.242 93.6029 40.1209C93.6051 39.879 93.7009 39.6476 93.8698 39.4766C94.0388 39.3055 94.2672 39.2084 94.5061 39.2063H99.1863V32.1386C99.1867 31.9044 99.2697 31.6781 99.4202 31.5003C99.5707 31.3225 99.7789 31.2049 100.007 31.1686C100.135 31.1514 100.265 31.1623 100.388 31.2007C100.511 31.239 100.625 31.3038 100.721 31.3906C100.817 31.4775 100.894 31.5843 100.945 31.7038C100.997 31.8234 101.022 31.9528 101.02 32.0832V39.2063H105.864Z" fill="white"/>
<path d="M135.56 48.5743V60.2983C135.553 60.5387 135.456 60.7673 135.288 60.9373C135.12 61.1073 134.894 61.206 134.657 61.2129C134.537 61.2164 134.418 61.1951 134.307 61.1503C134.196 61.1056 134.095 61.0383 134.011 60.9527C133.926 60.8671 133.86 60.7649 133.815 60.6523C133.771 60.5398 133.75 60.4193 133.754 60.2983V48.5743C133.754 44.6109 131.537 40.6752 127.185 40.6752C121.602 40.6752 119.193 45.6087 119.522 50.6808C119.522 50.8194 119.576 51.4014 119.576 51.4845V60.2706C119.576 60.5048 119.493 60.7311 119.342 60.9089C119.192 61.0867 118.984 61.2044 118.755 61.2406C118.628 61.2578 118.498 61.2469 118.375 61.2085C118.251 61.1702 118.138 61.1054 118.042 61.0186C117.946 60.9318 117.869 60.8249 117.817 60.7054C117.766 60.5859 117.74 60.4564 117.743 60.326V21.7728C117.745 21.5309 117.841 21.2995 118.01 21.1284C118.178 20.9574 118.407 20.8603 118.646 20.8582C118.883 20.8651 119.109 20.9637 119.277 21.1338C119.445 21.3038 119.542 21.5324 119.549 21.7728V43.5577C121.109 40.7307 123.901 38.8182 127.158 38.8182C132.522 38.8182 135.56 43.5577 135.56 48.5743Z" fill="white"/>
<path d="M168.157 50.1542C168.153 50.4149 168.046 50.6633 167.862 50.8451C167.677 51.0268 167.429 51.1272 167.172 51.1242H149.026C149.491 55.6697 152.857 59.8271 157.62 59.8271C160.877 59.8271 163.285 58.5799 165.091 55.9468C165.176 55.8085 165.292 55.6932 165.43 55.6111C165.569 55.5289 165.725 55.4824 165.885 55.4757C166.005 55.4722 166.124 55.4935 166.235 55.5383C166.346 55.583 166.447 55.6503 166.531 55.7359C166.616 55.8215 166.682 55.9237 166.727 56.0363C166.771 56.1488 166.792 56.2693 166.788 56.3903C166.789 56.5575 166.741 56.7213 166.652 56.8615C164.818 60.0766 161.178 61.6564 157.62 61.6564C151.516 61.6564 147.137 56.1131 147.137 50.2096C147.137 44.306 151.489 38.7628 157.62 38.7628C163.696 38.7628 168.129 44.2506 168.157 50.1542ZM166.186 49.295C165.803 44.7495 162.355 40.5921 157.592 40.5921C152.83 40.5921 149.464 44.7495 148.998 49.295H166.186Z" fill="white"/>
<path d="M190.463 40.0655C190.48 40.3115 190.401 40.5546 190.242 40.7415C190.083 40.9285 189.857 41.0441 189.614 41.0633C184.277 41.867 181.869 46.2739 181.869 51.4014V60.1874C181.868 60.4216 181.785 60.648 181.635 60.8258C181.484 61.0036 181.276 61.1212 181.048 61.1575C180.92 61.1747 180.79 61.1637 180.667 61.1254C180.544 61.0871 180.43 61.0223 180.334 60.9354C180.238 60.8486 180.162 60.7418 180.11 60.6222C180.058 60.5027 180.033 60.3733 180.035 60.2429V40.2041C180.036 39.9699 180.119 39.7435 180.269 39.5657C180.42 39.3879 180.628 39.2703 180.856 39.234C180.984 39.2168 181.114 39.2278 181.237 39.2661C181.36 39.3044 181.474 39.3692 181.57 39.456C181.666 39.5429 181.742 39.6497 181.794 39.7692C181.846 39.8888 181.871 40.0182 181.869 40.1486V44.2229C183.374 41.6453 186.357 39.2063 189.478 39.2063C189.943 39.2063 190.463 39.5389 190.463 40.0655Z" fill="white"/>
<path d="M220.295 50.1542C220.291 50.4149 220.185 50.6633 220 50.8451C219.816 51.0268 219.568 51.1272 219.31 51.1242H201.164C201.629 55.6697 204.996 59.8271 209.758 59.8271C213.015 59.8271 215.424 58.5799 217.23 55.9468C217.314 55.8085 217.43 55.6932 217.569 55.6111C217.707 55.5289 217.863 55.4824 218.024 55.4757C218.143 55.4722 218.262 55.4935 218.373 55.5383C218.484 55.583 218.585 55.6503 218.67 55.7359C218.754 55.8215 218.821 55.9237 218.865 56.0363C218.909 56.1488 218.93 56.2693 218.927 56.3903C218.928 56.5575 218.88 56.7213 218.79 56.8615C216.956 60.0766 213.316 61.6564 209.758 61.6564C203.655 61.6564 199.276 56.1131 199.276 50.2096C199.276 44.306 203.627 38.7628 209.758 38.7628C215.889 38.7628 220.268 44.2506 220.295 50.1542ZM218.352 49.295C217.969 44.7495 214.52 40.5921 209.758 40.5921C204.996 40.5921 201.629 44.7495 201.164 49.295H218.352Z" fill="white"/>
<path d="M249.635 40.2872V60.4091C249.628 60.6495 249.531 60.8781 249.363 61.0482C249.195 61.2182 248.969 61.3168 248.732 61.3238C248.612 61.3272 248.494 61.3059 248.382 61.2612C248.271 61.2164 248.17 61.1492 248.086 61.0636C248.001 60.9779 247.935 60.8757 247.891 60.7632C247.846 60.6507 247.825 60.5302 247.829 60.4091V56.5843C246.324 59.6054 243.669 61.795 240.275 61.795C234.883 61.795 231.9 57.0555 231.9 52.0389V40.2595C231.902 40.0176 231.998 39.7862 232.167 39.6151C232.336 39.4441 232.564 39.347 232.803 39.3448C233.04 39.3518 233.266 39.4504 233.434 39.6205C233.602 39.7905 233.699 40.0191 233.706 40.2595V52.0389C233.706 56.0023 235.923 59.938 240.275 59.938C246.378 59.938 247.829 54.1453 247.829 47.7429V40.2318C247.831 40.0835 247.868 39.9379 247.937 39.8071C248.006 39.6763 248.105 39.5641 248.225 39.48C248.346 39.3959 248.485 39.3422 248.63 39.3235C248.775 39.3048 248.923 39.3216 249.06 39.3726C249.232 39.4535 249.378 39.5827 249.48 39.7448C249.582 39.9069 249.636 40.0951 249.635 40.2872Z" fill="white"/>
<path d="M295.588 48.4912V60.2706C295.581 60.5109 295.484 60.7396 295.316 60.9096C295.148 61.0796 294.922 61.1782 294.685 61.1852C294.565 61.1886 294.447 61.1673 294.335 61.1226C294.224 61.0779 294.123 61.0106 294.039 60.925C293.954 60.8394 293.888 60.7371 293.844 60.6246C293.799 60.5121 293.778 60.3916 293.782 60.2706V48.4912C293.782 44.5278 291.565 40.6475 287.213 40.6475C281.739 40.6475 279.659 46.5788 279.659 51.1797V60.2706C279.652 60.5109 279.555 60.7396 279.387 60.9096C279.219 61.0796 278.993 61.1782 278.756 61.1852C278.637 61.1886 278.518 61.1673 278.406 61.1226C278.295 61.0779 278.194 61.0106 278.11 60.925C278.025 60.8394 277.959 60.7371 277.915 60.6246C277.871 60.5121 277.85 60.3916 277.853 60.2706V48.4912C277.853 44.5278 275.636 40.6475 271.284 40.6475C265.756 40.6475 263.484 45.0544 263.676 50.9302C263.676 51.0688 263.73 51.3182 263.676 51.4014V60.2429C263.675 60.477 263.592 60.7034 263.442 60.8812C263.291 61.059 263.083 61.1766 262.855 61.2129C262.727 61.2301 262.597 61.2192 262.474 61.1808C262.351 61.1425 262.237 61.0777 262.141 60.9909C262.045 60.904 261.968 60.7972 261.917 60.6777C261.865 60.5581 261.84 60.4287 261.842 60.2983V40.2041C261.842 39.9699 261.925 39.7435 262.076 39.5657C262.226 39.3879 262.435 39.2703 262.663 39.234C262.791 39.2168 262.921 39.2278 263.044 39.2661C263.167 39.3044 263.28 39.3692 263.377 39.456C263.473 39.5429 263.549 39.6497 263.601 39.7692C263.652 39.8888 263.678 40.0182 263.676 40.1486V43.5023C265.236 40.6752 268.027 38.8182 271.284 38.8182C274.979 38.8182 277.853 41.2018 279.03 44.6664C280.535 41.2295 283.464 38.8182 287.213 38.8182C292.55 38.8182 295.588 43.5023 295.588 48.4912Z" fill="white"/>
<path d="M22.7165 34.744L0 45.193L22.7165 58.8016L45.4604 45.193L22.7165 34.744Z" fill="white"/>
<path d="M22.7165 63.1531V82.0001L45.4604 49.5721L22.7165 63.1531Z" fill="white"/>
</g>
<path opacity="0.45" d="M0 45.1929L22.7165 58.8016V7L0 45.1929Z" fill="white"/>
<path opacity="0.8" d="M22.7168 7V58.8016L45.4607 45.1929L22.7168 7Z" fill="white"/>
<path opacity="0.45" d="M0 49.572L22.7165 82V63.153L0 49.572Z" fill="white"/>
</svg>
