<svg width="422" height="96" viewBox="0 0 422 96" fill="none" xmlns="http://www.w3.org/2000/svg">
<g clip-path="url(#clip0_6061_1809)">
<path d="M124.576 31.041V44.2559H140.635V49.6902H124.576V63.2144H142.492V68.9586H117.533V25.3652H142.488V31.0465L124.576 31.041ZM166.462 62.8406V68.9539H162.137C158.513 68.9539 155.764 68.0791 153.89 66.3296C152.015 64.5801 151.079 61.6684 151.079 57.5944V40.9211H146.198V34.9313H151.079V26.4715H158.184V34.9313H166.4V40.9211H158.184V57.718C158.184 59.6526 158.545 60.9903 159.265 61.7311C159.985 62.4718 161.252 62.8416 163.064 62.8406H166.462ZM192.101 34.3758C196.055 34.3758 199.226 35.6521 201.615 38.2048C204.003 40.7574 205.197 44.4007 205.198 49.1346V68.957H198.155V49.8759C198.155 46.8295 197.373 44.4726 195.808 42.8049C194.976 41.9565 193.972 41.2948 192.865 40.8637C191.757 40.4325 190.57 40.2418 189.383 40.3042C188.134 40.2493 186.888 40.4603 185.727 40.9235C184.566 41.3866 183.516 42.0913 182.649 42.9906C180.96 44.7816 180.115 47.4061 180.115 50.8642V68.957H173.073V23.2603H180.115V42.4036C180.929 39.9701 182.54 37.8817 184.687 36.4752C186.895 35.0561 189.476 34.3253 192.101 34.3758ZM245.046 50.3079C245.058 51.3218 244.975 52.3347 244.799 53.3334H218.604C218.727 56.833 219.695 59.4265 221.507 61.1142C223.333 62.8078 225.751 63.7171 228.241 63.6464C230.37 63.7131 232.463 63.0844 234.203 61.8554C235.788 60.7261 236.865 59.0176 237.199 57.1003H244.736C244.314 59.418 243.339 61.5998 241.894 63.4607C240.405 65.3503 238.475 66.8454 236.272 67.8145C233.842 68.8898 231.207 69.4267 228.549 69.3883C225.505 69.4485 222.496 68.7255 219.811 67.2888C217.28 65.8908 215.209 63.7885 213.85 61.2369C212.351 58.3619 211.607 55.1534 211.687 51.9123C211.611 48.6913 212.355 45.5038 213.85 42.6491C215.209 40.0976 217.28 37.9952 219.811 36.5972C222.496 35.1605 225.505 34.4376 228.549 34.4978C231.591 34.4277 234.6 35.14 237.288 36.5665C239.707 37.8729 241.701 39.8443 243.034 42.2478C244.389 44.716 245.082 47.4927 245.045 50.3079H245.046ZM237.941 50.1229C238.085 48.1907 237.689 46.2567 236.798 44.5361C236.017 43.094 234.808 41.9291 233.338 41.2012C231.848 40.4744 230.208 40.1045 228.55 40.1208C226.004 40.0423 223.525 40.9494 221.631 42.653C219.778 44.3411 218.769 46.833 218.604 50.1285L237.941 50.1229ZM258.881 41.601C260.002 39.413 261.714 37.5836 263.824 36.321C266.066 34.9971 268.633 34.3235 271.237 34.3758V42.033H269.137C266.047 42.033 263.566 42.7841 261.693 44.2866C259.819 45.789 258.884 48.2696 258.888 51.7282V68.961H251.845V34.9313H258.888L258.881 41.601ZM287.67 34.4993C291.665 34.4993 294.866 35.5184 297.274 37.5564C299.711 39.6426 301.285 42.5591 301.692 45.74H295.021C294.798 44.0086 293.953 42.4174 292.643 41.2626C291.193 40.0777 289.355 39.4726 287.484 39.5645C286.006 39.4699 284.544 39.9203 283.376 40.8306C282.893 41.2573 282.513 41.7866 282.261 42.3796C282.01 42.9726 281.895 43.6142 281.924 44.2575C281.905 44.7401 281.988 45.2213 282.169 45.6691C282.35 46.1168 282.625 46.5209 282.974 46.8542C283.732 47.5469 284.626 48.0729 285.6 48.3981C287.071 48.8864 288.566 49.2987 290.079 49.6335C292.189 50.0801 294.264 50.6786 296.288 51.4245C297.873 52.0419 299.276 53.0513 300.365 54.358C301.57 55.9162 302.173 57.8563 302.064 59.8229C302.099 61.1485 301.825 62.464 301.261 63.6646C300.698 64.8653 299.863 65.9179 298.821 66.7388C296.658 68.5093 293.745 69.3946 290.082 69.3946C285.84 69.3946 282.412 68.4065 279.796 66.4304C278.494 65.4382 277.405 64.1943 276.593 62.7728C275.782 61.3512 275.265 59.7809 275.073 58.1555H281.931C282.012 59.0358 282.274 59.8899 282.699 60.6652C283.124 61.4406 283.703 62.1207 284.402 62.6635C286.039 63.8798 288.047 64.4915 290.085 64.3947C291.535 64.4774 292.96 64.0024 294.07 63.0672C294.543 62.6438 294.917 62.1226 295.167 61.5398C295.417 60.9571 295.537 60.3269 295.519 59.693C295.545 59.1679 295.459 58.6432 295.268 58.1535C295.076 57.6638 294.782 57.2204 294.407 56.8524C293.606 56.1171 292.658 55.5593 291.627 55.2157C290.129 54.7214 288.602 54.3193 287.055 54.0117C285.014 53.5595 283.003 52.9813 281.032 52.2806C279.491 51.7064 278.127 50.7374 277.078 49.4706C275.918 47.9634 275.336 46.0898 275.441 44.1906C275.403 42.8513 275.676 41.5213 276.238 40.3052C276.801 39.0892 277.639 38.02 278.684 37.1818C280.847 35.3935 283.843 34.4993 287.673 34.4993H287.67ZM324.243 34.4993C328.652 34.4993 332.297 35.6624 335.178 37.9884C338.091 40.366 340.008 43.7474 340.552 47.4672H333.074C332.749 45.4698 331.679 43.6699 330.077 42.4311C328.351 41.172 326.251 40.5303 324.116 40.6095C322.844 40.579 321.581 40.8193 320.409 41.3143C319.237 41.8094 318.185 42.5479 317.32 43.4808C315.508 45.3951 314.602 48.2048 314.602 51.91C314.602 55.6151 315.508 58.4351 317.32 60.3698C318.18 61.3106 319.231 62.0564 320.403 62.557C321.575 63.0576 322.841 63.3013 324.116 63.2718C326.258 63.3537 328.364 62.7019 330.084 61.4242C331.682 60.1703 332.751 58.3636 333.081 56.3606H340.559C340.011 60.0873 338.095 63.4769 335.185 65.8701C332.302 68.2166 328.657 69.3898 324.25 69.3898C321.206 69.45 318.197 68.727 315.512 67.2904C312.98 65.8924 310.91 63.79 309.55 61.2385C308.048 58.3638 307.302 55.1551 307.381 51.9131C307.304 48.6921 308.049 45.5046 309.543 42.6499C310.903 40.0983 312.973 37.9959 315.505 36.598C318.191 35.161 321.201 34.4384 324.246 34.4993H324.243ZM361.002 34.4993C363.812 34.4164 366.576 35.2144 368.91 36.7813C371.056 38.2572 372.679 40.3763 373.543 42.8332V34.9313H380.586V68.957H373.543V61.0528C372.679 63.5097 371.056 65.6288 368.91 67.1047C366.576 68.6716 363.812 69.4695 361.002 69.3867C358.213 69.4337 355.465 68.707 353.064 67.2873C350.694 65.8409 348.795 63.7387 347.596 61.2353C346.218 58.3242 345.541 55.1306 345.62 51.9107C345.545 48.711 346.222 45.5383 347.596 42.6475C348.795 40.1441 350.694 38.042 353.064 36.5956C355.466 35.1765 358.215 34.4508 361.005 34.4993H361.002ZM363.164 40.6748C361.772 40.612 360.382 40.8467 359.088 41.3631C357.794 41.8795 356.624 42.6659 355.658 43.6697C353.784 45.6663 352.847 48.4144 352.847 51.9139C352.847 55.4134 353.785 58.1612 355.661 60.1573C356.627 61.1617 357.796 61.9486 359.091 62.4656C360.385 62.9826 361.774 63.2177 363.167 63.1553C365.032 63.1849 366.868 62.7044 368.48 61.7657C370.056 60.8281 371.34 59.4704 372.187 57.8447C373.128 56.0126 373.594 53.9747 373.546 51.9163C373.587 49.8683 373.121 47.8421 372.187 46.0185C371.346 44.3797 370.062 43.0101 368.48 42.066C366.869 41.1265 365.032 40.6451 363.167 40.674L363.164 40.6748ZM408.078 34.3797C412.032 34.3797 415.203 35.6561 417.592 38.2087C419.98 40.7614 421.174 44.4046 421.175 49.1386V68.957H414.133V49.8759C414.133 46.8295 413.35 44.4726 411.785 42.8049C410.953 41.9566 409.949 41.2949 408.842 40.8637C407.734 40.4326 406.547 40.2419 405.36 40.3042C404.111 40.2493 402.865 40.4603 401.704 40.9235C400.543 41.3866 399.493 42.0913 398.626 42.9906C396.937 44.7816 396.093 47.4061 396.093 50.8642V68.957H389.05V34.9313H396.093V42.4067C396.907 39.9732 398.517 37.8848 400.664 36.4784C402.873 35.0576 405.454 34.3258 408.08 34.3758L408.078 34.3797Z" fill="white"/>
<path d="M19.909 45.5719C19.909 45.0374 20.0148 44.5083 20.22 44.0149C20.4252 43.5213 20.7259 43.0733 21.1049 42.6963C21.484 42.3193 21.9336 42.0208 22.4283 41.818C22.923 41.6153 23.4529 41.5123 23.9876 41.5147L30.7499 41.5367C31.828 41.5367 32.862 41.9649 33.6243 42.7269C34.3868 43.489 34.8151 44.5225 34.8151 45.6002V71.1582C35.5763 70.9324 36.5541 70.6916 37.6239 70.4398C38.3671 70.2654 39.0294 69.845 39.5034 69.2469C39.9774 68.6489 40.2353 67.9082 40.2352 67.1451V35.4415C40.2352 34.3637 40.6634 33.3301 41.4258 32.568C42.1881 31.8058 43.2221 31.3775 44.3004 31.3772H51.0761C52.1542 31.3775 53.1883 31.8058 53.9506 32.568C54.713 33.3301 55.1413 34.3637 55.1413 35.4415V64.8655C55.1413 64.8655 56.8378 64.1793 58.4902 63.4822C59.104 63.2227 59.6278 62.7883 59.9963 62.2332C60.3648 61.6781 60.5615 61.0268 60.5621 60.3606V25.2828C60.5621 24.2053 60.9903 23.1718 61.7525 22.4098C62.5147 21.6477 63.5485 21.2196 64.6265 21.2193H71.4022C72.4804 21.2193 73.5144 21.6475 74.2768 22.4095C75.0392 23.1715 75.4675 24.2051 75.4675 25.2828V54.1686C81.3418 49.9131 87.2948 44.7952 92.0189 38.641C92.7046 37.7477 93.158 36.6988 93.3391 35.5877C93.5202 34.4767 93.4233 33.3381 93.0573 32.2735C90.8704 25.9846 87.3948 20.2211 82.8517 15.3521C78.3086 10.483 72.7987 6.61552 66.6746 3.99713C60.5504 1.37876 53.9468 0.0671313 47.2864 0.146195C40.626 0.22526 34.0555 1.69328 27.9954 4.4563C21.9351 7.21931 16.5187 11.2165 12.0927 16.192C7.66665 21.1676 4.3285 27.0118 2.29186 33.351C0.255225 39.6901 -0.43506 46.3843 0.265178 53.0054C0.965416 59.6265 3.04076 66.0286 6.3584 71.8019C6.93634 72.7978 7.7866 73.6082 8.8093 74.1379C9.83199 74.6675 10.9846 74.8944 12.132 74.7921C13.4136 74.6795 15.0093 74.5198 16.9065 74.2971C17.7324 74.2034 18.4949 73.8092 19.0487 73.1897C19.6026 72.5703 19.909 71.7688 19.9098 70.9379L19.909 45.5719Z" fill="white"/>
<path d="M19.7607 86.5647C26.9027 91.7581 35.3429 94.8757 44.1475 95.5721C52.9522 96.2677 61.7779 94.5161 69.6481 90.5093C77.5183 86.5025 84.1259 80.3978 88.7406 72.8704C93.3546 65.3428 95.7957 56.6859 95.7934 47.8576C95.7934 46.756 95.7422 45.6661 95.669 44.5825C78.1776 70.6583 45.8817 82.849 19.7622 86.5607" fill="#8B8B8B"/>
</g>
<defs>
<clipPath id="clip0_6061_1809">
<rect width="421.953" height="96" fill="white"/>
</clipPath>
</defs>
</svg>
