<svg width="40" height="40" viewBox="0 0 40 40" fill="none" xmlns="http://www.w3.org/2000/svg">
<path d="M35.8196 33.7956H35.6286V32.59C35.6286 32.0389 35.1946 31.5911 34.6565 31.5911V13.8006H35.7328L37 9.40889H30.9416V5H9.65913V9.39167H4L5.26723 13.7833H6.3435V31.5911C5.80537 31.5911 5.37138 32.0389 5.37138 32.59V33.7956H5.18043C4.64229 33.7956 4.20831 34.2433 4.20831 34.7944V36H15.1447V34.7944C15.1447 34.2433 14.7107 33.7956 14.1725 33.7956H13.9816V32.59C13.9816 32.0389 13.5476 31.5911 13.0095 31.5911H12.8185V21.7917H12.8532C13.2004 17.865 16.4119 14.7994 20.3351 14.7994C24.2583 14.7994 27.4698 17.8822 27.8169 21.7917H27.8517V31.6256C27.4177 31.7289 27.0705 32.1078 27.0705 32.59V33.7956H26.8795C26.3414 33.7956 25.9074 34.2433 25.9074 34.7944V36H36.8438V34.7944C36.8438 34.2433 36.4098 33.7956 35.8716 33.7956H35.8196Z" fill="white"/>
</svg>
