<svg width="257" height="88" viewBox="0 0 257 88" fill="none" xmlns="http://www.w3.org/2000/svg">
<path d="M9.68631 19H46.0886V70.7647H40.7451V47.0531H40.6927C40.1021 40.4998 34.5945 35.3643 27.8874 35.3643C21.1804 35.3643 15.6727 40.4998 15.0821 47.0531H15.0298V70.7647H9.68631V19Z" fill="white"/>
<path d="M0 26.3474L2.17079 33.6947H4.00757V63.4177C3.08534 63.4177 2.33775 64.1653 2.33775 65.0875V67.0913H2.00382C1.0816 67.0913 0.333932 67.8389 0.333932 68.7611V70.7649H19.036V68.7611C19.036 67.8389 18.2884 67.0913 17.3662 67.0913H17.0323V65.0875C17.0323 64.1653 16.2846 63.4177 15.3624 63.4177H13.3587V26.3474H0Z" fill="white"/>
<path d="M41.076 63.4177C40.1538 63.4177 39.4061 64.1653 39.4061 65.0875V67.0913H39.0722C38.15 67.0913 37.4024 67.8389 37.4024 68.7611V70.7649H56.1045V68.7611C56.1045 67.8389 55.3568 67.0913 54.4346 67.0913H54.1006V65.0875C54.1006 64.1653 53.3531 63.4177 52.4308 63.4177V33.6947H54.2676L56.4384 26.3474H43.0797V63.4177H41.076Z" fill="white"/>
<path d="M243.291 60.4733V37.1108H248.63V41.0046H248.873C249.298 39.656 250.029 38.6166 251.063 37.8865C252.107 37.1464 253.299 36.7762 254.637 36.7762C254.942 36.7762 255.281 36.7915 255.656 36.8218C256.042 36.8421 256.361 36.8777 256.615 36.9283V41.9932C256.381 41.9121 256.012 41.8411 255.504 41.7803C255.008 41.7093 254.526 41.6739 254.059 41.6739C253.056 41.6739 252.153 41.8919 251.352 42.3279C250.561 42.7537 249.938 43.3469 249.481 44.1074C249.025 44.8679 248.796 45.745 248.796 46.7388V60.4733H243.291Z" fill="white"/>
<path d="M228.245 60.9301C225.903 60.9301 223.88 60.4434 222.176 59.47C220.483 58.4864 219.18 57.0972 218.267 55.3024C217.354 53.4976 216.898 51.3732 216.898 48.9295C216.898 46.5263 217.354 44.4172 218.267 42.6022C219.19 40.7769 220.477 39.3574 222.13 38.3434C223.784 37.3193 225.725 36.8072 227.956 36.8072C229.396 36.8072 230.755 37.0404 232.032 37.5068C233.32 37.9632 234.455 38.673 235.439 39.6362C236.433 40.5995 237.214 41.8265 237.782 43.3171C238.349 44.7974 238.633 46.5618 238.633 48.6101V50.2984H219.484V46.5872H233.355C233.345 45.5326 233.117 44.5946 232.671 43.7733C232.225 42.9419 231.601 42.2878 230.8 41.8113C230.009 41.3347 229.086 41.0964 228.032 41.0964C226.906 41.0964 225.918 41.3701 225.066 41.9177C224.214 42.4551 223.55 43.1649 223.073 44.0471C222.607 44.9192 222.369 45.8774 222.359 46.9218V50.1615C222.359 51.5203 222.607 52.6863 223.104 53.6598C223.601 54.6231 224.295 55.3633 225.188 55.8804C226.08 56.3874 227.124 56.6409 228.321 56.6409C229.122 56.6409 229.847 56.5294 230.496 56.3063C231.144 56.0731 231.707 55.7334 232.184 55.2872C232.661 54.8411 233.021 54.2884 233.264 53.6294L238.405 54.2074C238.081 55.5661 237.462 56.7524 236.549 57.7665C235.647 58.7703 234.491 59.5511 233.082 60.1088C231.672 60.6563 230.06 60.9301 228.245 60.9301Z" fill="white"/>
<path d="M213.548 37.111V41.3698H200.118V37.111H213.548ZM203.433 31.5138H208.94V53.4465C208.94 54.1867 209.051 54.7546 209.274 55.15C209.507 55.5353 209.811 55.799 210.186 55.9409C210.562 56.0829 210.978 56.1539 211.434 56.1539C211.779 56.1539 212.093 56.1285 212.377 56.0778C212.671 56.0271 212.894 55.9815 213.046 55.9409L213.974 60.2453C213.68 60.3467 213.259 60.4582 212.711 60.5799C212.174 60.7016 211.515 60.7726 210.734 60.7929C209.355 60.8334 208.113 60.6256 207.008 60.1692C205.903 59.7028 205.026 58.9829 204.376 58.0094C203.738 57.036 203.424 55.8193 203.433 54.3591V31.5138Z" fill="white"/>
<path d="M196.839 43.2866L191.819 43.8342C191.677 43.3272 191.429 42.8506 191.074 42.4045C190.729 41.9583 190.262 41.5983 189.675 41.3245C189.086 41.0508 188.367 40.9139 187.514 40.9139C186.369 40.9139 185.406 41.1623 184.625 41.6591C183.854 42.156 183.474 42.7999 183.484 43.5908C183.474 44.2702 183.723 44.8228 184.229 45.2487C184.747 45.6746 185.598 46.0244 186.785 46.2982L190.77 47.1499C192.98 47.6265 194.623 48.382 195.697 49.4162C196.782 50.4505 197.33 51.8042 197.34 53.4773C197.33 54.9475 196.899 56.2455 196.048 57.371C195.206 58.4864 194.034 59.3585 192.534 59.9871C191.033 60.6158 189.31 60.9301 187.363 60.9301C184.503 60.9301 182.201 60.3318 180.457 59.1353C178.713 57.9287 177.674 56.2506 177.339 54.1009L182.708 53.5838C182.952 54.6383 183.469 55.4343 184.26 55.9717C185.05 56.5091 186.08 56.7778 187.348 56.7778C188.656 56.7778 189.705 56.5091 190.496 55.9717C191.297 55.4343 191.698 54.7701 191.698 53.9792C191.698 53.3099 191.439 52.7573 190.922 52.3213C190.415 51.8853 189.624 51.5506 188.549 51.3175L184.564 50.4809C182.323 50.0145 180.665 49.2286 179.591 48.1234C178.515 47.008 177.983 45.5985 177.993 43.895C177.983 42.4551 178.373 41.2079 179.165 40.1533C179.966 39.0886 181.076 38.2673 182.496 37.6893C183.925 37.1012 185.573 36.8072 187.439 36.8072C190.177 36.8072 192.331 37.3902 193.903 38.5563C195.485 39.7224 196.463 41.2992 196.839 43.2866Z" fill="white"/>
<path d="M160.503 60.9453C159.022 60.9453 157.689 60.6817 156.503 60.1544C155.327 59.617 154.394 58.8261 153.705 57.7817C153.025 56.7373 152.685 55.4495 152.685 53.9184C152.685 52.6001 152.928 51.5101 153.415 50.6482C153.902 49.7863 154.566 49.0968 155.408 48.5797C156.25 48.0625 157.197 47.6722 158.252 47.4085C159.317 47.1347 160.417 46.937 161.552 46.8153C162.922 46.6734 164.032 46.5466 164.883 46.4351C165.736 46.3134 166.354 46.1308 166.74 45.8875C167.135 45.634 167.332 45.2436 167.332 44.7164V44.6251C167.332 43.4793 166.993 42.592 166.313 41.9634C165.634 41.3347 164.656 41.0203 163.378 41.0203C162.03 41.0203 160.96 41.3144 160.168 41.9025C159.388 42.4906 158.861 43.1852 158.587 43.9863L153.446 43.2562C153.851 41.8366 154.521 40.6503 155.453 39.6971C156.386 38.7338 157.527 38.0138 158.876 37.5373C160.225 37.0506 161.715 36.8072 163.348 36.8072C164.473 36.8072 165.594 36.939 166.709 37.2026C167.825 37.4662 168.844 37.9023 169.766 38.5107C170.689 39.1089 171.429 39.9252 171.987 40.9595C172.555 41.9938 172.838 43.2866 172.838 44.838V60.4738H167.545V57.2645H167.363C167.028 57.9135 166.557 58.5219 165.948 59.0897C165.35 59.6474 164.595 60.0987 163.682 60.4434C162.78 60.778 161.72 60.9453 160.503 60.9453ZM161.933 56.8995C163.038 56.8995 163.996 56.6815 164.808 56.2455C165.619 55.7993 166.242 55.2112 166.679 54.4811C167.124 53.751 167.347 52.955 167.347 52.0932V49.3402C167.175 49.4821 166.882 49.6139 166.465 49.7356C166.059 49.8573 165.603 49.9638 165.097 50.055C164.59 50.1463 164.088 50.2274 163.591 50.2984C163.094 50.3694 162.663 50.4302 162.298 50.4809C161.477 50.5924 160.742 50.7749 160.092 51.0285C159.443 51.2819 158.931 51.6368 158.557 52.0932C158.181 52.5393 157.994 53.1173 157.994 53.8271C157.994 54.8411 158.363 55.6067 159.104 56.1238C159.844 56.6409 160.787 56.8995 161.933 56.8995Z" fill="white"/>
<path d="M139.25 60.9301C136.918 60.9301 134.915 60.418 133.242 59.3939C131.58 58.3698 130.297 56.9552 129.394 55.1503C128.502 53.3353 128.055 51.2465 128.055 48.8838C128.055 46.5111 128.512 44.4172 129.424 42.6022C130.337 40.7769 131.625 39.3574 133.288 38.3434C134.961 37.3193 136.939 36.8072 139.22 36.8072C141.116 36.8072 142.794 37.157 144.255 37.8567C145.724 38.5462 146.896 39.5247 147.767 40.7922C148.64 42.0496 149.137 43.5198 149.258 45.2031H143.996C143.783 44.0775 143.275 43.1396 142.474 42.3892C141.684 41.6288 140.624 41.2485 139.296 41.2485C138.17 41.2485 137.181 41.5526 136.33 42.1611C135.478 42.7594 134.814 43.6212 134.337 44.7468C133.871 45.8723 133.638 47.2209 133.638 48.7926C133.638 50.3846 133.871 51.7534 134.337 52.8993C134.804 54.035 135.458 54.9121 136.299 55.5306C137.151 56.139 138.15 56.4432 139.296 56.4432C140.107 56.4432 140.832 56.2911 141.471 55.9869C142.12 55.6726 142.662 55.2213 143.098 54.6332C143.535 54.0451 143.834 53.3302 143.996 52.4886H149.258C149.127 54.1414 148.64 55.6067 147.798 56.8843C146.957 58.1517 145.811 59.1455 144.361 59.8654C142.911 60.5752 141.208 60.9301 139.25 60.9301Z" fill="white"/>
<path d="M113.04 60.4733V37.1108H118.379V41.0046H118.622C119.048 39.656 119.778 38.6166 120.812 37.8865C121.857 37.1464 123.048 36.7762 124.387 36.7762C124.691 36.7762 125.031 36.7915 125.406 36.8218C125.791 36.8421 126.11 36.8777 126.364 36.9283V41.9932C126.131 41.9121 125.761 41.8411 125.254 41.7803C124.757 41.7093 124.275 41.6739 123.809 41.6739C122.805 41.6739 121.902 41.8919 121.101 42.3279C120.311 42.7537 119.687 43.3469 119.23 44.1074C118.774 44.8679 118.547 45.745 118.547 46.7388V60.4733H113.04Z" fill="white"/>
<path d="M95.1691 60.9453C93.6888 60.9453 92.3558 60.6817 91.1693 60.1544C89.9933 59.617 89.06 58.8261 88.3702 57.7817C87.6909 56.7373 87.3513 55.4495 87.3513 53.9184C87.3513 52.6001 87.5948 51.5101 88.0817 50.6482C88.5686 49.7863 89.2321 49.0968 90.0737 48.5797C90.9153 48.0625 91.8636 47.6722 92.9186 47.4085C93.9834 47.1347 95.0834 46.937 96.2188 46.8153C97.5879 46.6734 98.6978 46.5466 99.5499 46.4351C100.401 46.3134 101.02 46.1308 101.405 45.8875C101.801 45.634 101.999 45.2436 101.999 44.7164V44.6251C101.999 43.4793 101.659 42.592 100.98 41.9634C100.3 41.3347 99.3215 41.0203 98.0441 41.0203C96.6953 41.0203 95.626 41.3144 94.8347 41.9025C94.054 42.4906 93.5265 43.1852 93.253 43.9863L88.1117 43.2562C88.5175 41.8366 89.187 40.6503 90.1195 39.6971C91.0528 38.7338 92.1935 38.0138 93.5423 37.5373C94.8903 37.0506 96.3812 36.8072 98.014 36.8072C99.1389 36.8072 100.259 36.939 101.375 37.2026C102.49 37.4662 103.509 37.9023 104.432 38.5107C105.355 39.1089 106.095 39.9252 106.653 40.9595C107.22 41.9938 107.504 43.2866 107.504 44.838V60.4738H102.211V57.2645H102.029C101.694 57.9135 101.223 58.5219 100.615 59.0897C100.017 59.6474 99.2606 60.0987 98.3484 60.4434C97.4459 60.778 96.3864 60.9453 95.1691 60.9453ZM96.5991 56.8995C97.7044 56.8995 98.6625 56.6815 99.474 56.2455C100.285 55.7993 100.908 55.2112 101.344 54.4811C101.791 53.751 102.014 52.955 102.014 52.0932V49.3402C101.842 49.4821 101.547 49.6139 101.132 49.7356C100.726 49.8573 100.27 49.9638 99.7626 50.055C99.2561 50.1463 98.7541 50.2274 98.2567 50.2984C97.76 50.3694 97.3295 50.4302 96.9643 50.4809C96.143 50.5924 95.4073 50.7749 94.7588 51.0285C94.1096 51.2819 93.5979 51.6368 93.2222 52.0932C92.8472 52.5393 92.6601 53.1173 92.6601 53.8271C92.6601 54.8411 93.0298 55.6067 93.77 56.1238C94.5101 56.6409 95.4531 56.8995 96.5991 56.8995Z" fill="white"/>
<path d="M84.9292 37.1115V41.3703H71.1188V37.1115H84.9292ZM74.5708 60.4739V34.9061C74.5708 33.3344 74.8954 32.0263 75.5447 30.9819C76.2037 29.9375 77.0858 29.1567 78.1912 28.6396C79.2965 28.1224 80.5236 27.8639 81.8717 27.8639C82.8252 27.8639 83.6713 27.9399 84.4122 28.092C85.1524 28.2442 85.6994 28.381 86.0548 28.5027L84.9593 32.7615C84.7263 32.6905 84.4325 32.6196 84.0771 32.5485C83.7224 32.4674 83.3272 32.4269 82.8906 32.4269C81.8664 32.4269 81.142 32.6753 80.716 33.1722C80.3004 33.6589 80.0923 34.3585 80.0923 35.2711V60.4739H74.5708Z" fill="white"/>
</svg>
