<svg width="159" height="88" viewBox="0 0 159 88" fill="none" xmlns="http://www.w3.org/2000/svg">
<g clip-path="url(#clip0_6060_1587)">
<path d="M30.6231 41.4036H17.2605C16.9162 41.4036 16.6381 41.6817 16.6381 42.026V48.5592C16.6381 48.9035 16.9162 49.186 17.2605 49.186H22.474V57.304C22.474 57.304 21.3042 57.7013 18.0684 57.7013C14.2499 57.7013 8.91721 56.3064 8.91721 44.5819C8.91721 32.8574 14.4706 31.3124 19.6841 31.3124C24.1957 31.3124 26.1424 32.107 27.3785 32.491C27.767 32.6102 28.1245 32.2218 28.1245 31.8774L29.6166 25.565C29.6166 25.4016 29.5636 25.2074 29.3782 25.0794C28.875 24.7218 25.8113 23.0046 18.0684 23.0046C9.15118 23.0002 0 26.7966 0 45.0366C0 63.2766 10.4755 65.9958 19.3044 65.9958C26.6148 65.9958 31.0469 62.8705 31.0469 62.8705C31.2279 62.7689 31.25 62.5129 31.25 62.3981V42.0304C31.25 41.6861 30.9718 41.408 30.6275 41.408L30.6231 41.4036Z" fill="white"/>
<path d="M99.4843 25.1852C99.4843 24.8364 99.2106 24.5583 98.8662 24.5583H91.344C90.9997 24.5583 90.7216 24.8408 90.7216 25.1852V39.726H78.9968V25.1852C78.9968 24.8364 78.7186 24.5583 78.3743 24.5583H70.8521C70.5078 24.5583 70.2296 24.8408 70.2296 25.1852V64.5522C70.2296 64.9009 70.5078 65.1834 70.8521 65.1834H78.3743C78.7186 65.1834 78.9968 64.9009 78.9968 64.5522V47.7115H90.7216L90.6995 64.5477C90.6995 64.8965 90.9776 65.179 91.3219 65.179H98.8618C99.2062 65.179 99.4798 64.8965 99.4843 64.5477V25.1852Z" fill="white"/>
<path d="M44.82 30.3499C44.82 27.6395 42.6481 25.45 39.9685 25.45C37.2889 25.45 35.117 27.6395 35.117 30.3499C35.117 33.0603 37.2889 35.2498 39.9685 35.2498C42.6481 35.2498 44.82 33.0559 44.82 30.3499Z" fill="white"/>
<path d="M44.2814 38.075C44.2814 37.7307 44.0033 37.4482 43.659 37.4482H36.1588C35.8145 37.4482 35.5055 37.8013 35.5055 38.15V64.1858C35.5055 64.9494 35.9823 65.179 36.6003 65.179H43.3588C44.1005 65.179 44.2814 64.817 44.2814 64.1725V38.075Z" fill="white"/>
<path d="M128.072 37.51H120.607C120.263 37.51 119.985 37.7925 119.985 38.1412V57.4451C119.985 57.4451 118.087 58.8312 115.398 58.8312C112.71 58.8312 111.99 57.6084 111.99 54.9731V38.1368C111.99 37.7881 111.712 37.5056 111.368 37.5056H103.793C103.453 37.5056 103.17 37.7881 103.17 38.1368V56.2444C103.17 64.071 107.532 65.9868 113.535 65.9868C118.458 65.9868 122.431 63.2676 122.431 63.2676C122.431 63.2676 122.62 64.7022 122.704 64.87C122.788 65.0377 123.013 65.2099 123.252 65.2099L128.072 65.1878C128.412 65.1878 128.695 64.9053 128.695 64.561V38.1368C128.695 37.7881 128.412 37.5056 128.068 37.5056L128.072 37.51Z" fill="white"/>
<path d="M148.48 36.6227C144.238 36.6227 141.355 38.5164 141.355 38.5164V25.1852C141.355 24.8364 141.077 24.5583 140.733 24.5583H133.189C132.844 24.5583 132.566 24.8408 132.566 25.1852V64.5522C132.566 64.9009 132.844 65.1834 133.189 65.1834H138.424C138.658 65.1834 138.839 65.0598 138.972 64.8479C139.1 64.636 139.289 63.0336 139.289 63.0336C139.289 63.0336 142.375 65.9559 148.215 65.9559C155.071 65.9559 159.004 62.4774 159.004 50.3424C159.004 38.2074 152.723 36.6227 148.48 36.6227ZM145.536 58.8003C142.945 58.7208 141.192 57.5466 141.192 57.5466V45.0805C141.192 45.0805 142.923 44.0167 145.05 43.8269C147.739 43.5841 150.33 44.3963 150.33 50.8103C150.33 57.5731 149.16 58.9062 145.54 58.8003H145.536Z" fill="white"/>
<path d="M65.9035 37.4438H60.2618L60.253 29.9879C60.253 29.7054 60.1073 29.5642 59.7806 29.5642H52.0906C51.7904 29.5642 51.6315 29.6966 51.6315 29.9835V37.6865C51.6315 37.6865 47.7777 38.618 47.5172 38.693C47.2568 38.7681 47.067 39.0064 47.067 39.2934V44.1359C47.067 44.4846 47.3451 44.7627 47.6894 44.7627H51.6315V56.4077C51.6315 65.0598 57.7014 65.9074 61.7936 65.9074C63.6653 65.9074 65.9035 65.307 66.2743 65.1702C66.4994 65.0863 66.6274 64.8567 66.6274 64.6051V59.2814C66.6318 58.9327 66.3405 58.6546 66.0094 58.6546C65.6783 58.6546 64.8396 58.787 63.9743 58.787C61.2021 58.787 60.2618 57.4981 60.2618 55.8294C60.2618 54.1608 60.2618 44.7627 60.2618 44.7627H65.9035C66.2478 44.7627 66.5259 44.4802 66.5259 44.1359V38.0706C66.5259 37.7219 66.2478 37.4438 65.9035 37.4438Z" fill="white"/>
</g>
<defs>
<clipPath id="clip0_6060_1587">
<rect width="159" height="88" fill="white"/>
</clipPath>
</defs>
</svg>
