<svg width="344" height="88" viewBox="0 0 344 88" fill="none" xmlns="http://www.w3.org/2000/svg">
<g clip-path="url(#clip0_6060_1575)">
<path d="M140.459 32.7128V39.4017H119.496V16.4546H127.646V32.7128H140.459Z" fill="white"/>
<path d="M164.335 33.561V39.4017H143.086V16.4546H164.239V22.2953H151.235V25.1117H163.587V30.4886H151.235V33.561H164.335Z" fill="white"/>
<path d="M193.765 16.4546V39.4017H183.371L175.349 24.9197V39.4017H168.106V16.4546H178.835L186.554 30.6805V16.4546H193.765Z" fill="white"/>
<path d="M208.46 40.0908C206.304 40.0908 204.282 39.8347 202.394 39.3228C200.516 38.8001 198.876 38.1066 197.476 37.2425V31.3057C198.919 32.2125 200.51 32.9327 202.252 33.466C203.99 33.9887 205.758 34.2501 207.551 34.2501C208.846 34.2501 209.807 34.1329 210.432 33.8982C211.059 33.6635 211.372 33.2899 211.372 32.778C211.372 32.3297 211.154 31.9725 210.718 31.7056C210.285 31.439 209.51 31.2096 208.394 31.0176L205.148 30.4255C202.441 29.9347 200.457 29.0973 199.195 27.9133C197.942 26.729 197.316 25.1608 197.316 23.2085C197.316 21.7256 197.746 20.4297 198.606 19.3201C199.476 18.1999 200.781 17.3306 202.522 16.7117C204.271 16.0824 206.427 15.7677 208.985 15.7677C211.17 15.7677 213.052 15.9916 214.633 16.4396C216.225 16.8878 217.538 17.4319 218.567 18.0719V23.7687C217.601 23.2246 216.369 22.7552 214.872 22.3606C213.389 21.9659 211.774 21.7684 210.035 21.7684C207.233 21.7684 205.831 22.2272 205.831 23.1446C205.831 23.4007 205.907 23.614 206.054 23.7846C206.214 23.9448 206.485 24.0834 206.866 24.2006C207.249 24.3181 207.795 24.4248 208.507 24.5209L212.152 25.1127C213.945 25.4116 215.408 25.8543 216.545 26.4409C217.679 27.017 218.528 27.78 219.092 28.7293C219.654 29.6681 219.935 30.831 219.935 32.2178C219.935 33.7968 219.457 35.1836 218.501 36.3784C217.559 37.5625 216.214 38.4799 214.476 39.1306C212.745 39.7708 210.739 40.0908 208.46 40.0908Z" fill="white"/>
<path d="M135.27 47.0112C137.244 47.0112 138.904 47.3631 140.252 48.0672C141.611 48.7608 142.629 49.7423 143.308 51.0116C143.998 52.2812 144.343 53.7694 144.343 55.4764C144.343 57.162 143.95 58.6502 143.165 59.9409C142.39 61.221 141.228 62.224 139.679 62.9494C138.13 63.6641 136.241 64.0216 134.013 64.0216H127.646V69.9903H119.496V47.0112H135.27ZM131.88 58.8208C133.206 58.8208 134.219 58.5488 134.92 58.0047C135.631 57.4501 135.986 56.6818 135.986 55.7003C135.986 54.7509 135.668 54.0149 135.031 53.4922C134.405 52.9586 133.509 52.692 132.341 52.692H127.646V58.8208H131.88Z" fill="white"/>
<path d="M162.616 69.9893L155.246 60.5801V69.9893H147.097V47.0422H163.173C164.955 47.0422 166.51 47.3622 167.837 48.0024C169.163 48.6426 170.182 49.5491 170.893 50.7226C171.614 51.8855 171.975 53.2404 171.975 54.7872C171.975 56.1314 171.704 57.3369 171.163 58.4037C170.622 59.46 169.858 60.3079 168.871 60.9481C167.884 61.5775 166.738 61.9455 165.433 62.0522L172.198 69.9893H162.616ZM159.846 58.1637C161.045 58.1637 161.958 57.929 162.584 57.4596C163.21 56.9902 163.523 56.3075 163.523 55.4113C163.523 54.558 163.231 53.9125 162.647 53.4751C162.074 53.0376 161.215 52.819 160.069 52.819H155.246V58.1637H159.846Z" fill="white"/>
<path d="M189.023 70.7408C186.062 70.7408 183.457 70.1914 181.208 69.0926C178.958 67.9936 177.223 66.5054 176.003 64.6279C174.782 62.7503 174.172 60.67 174.172 58.3872C174.172 56.0613 174.777 53.9866 175.987 52.1623C177.207 50.3273 178.942 48.8924 181.191 47.8575C183.441 46.8121 186.062 46.2894 189.054 46.2894C192.026 46.2894 194.631 46.8121 196.87 47.8575C199.119 48.8924 200.849 50.3273 202.059 52.1623C203.28 53.9866 203.889 56.0613 203.889 58.3872C203.889 60.6808 203.275 62.7664 202.043 64.644C200.823 66.5215 199.088 68.0097 196.838 69.1085C194.588 70.1967 191.983 70.7408 189.023 70.7408ZM189.023 64.0838C190.243 64.0838 191.315 63.8491 192.238 63.3797C193.161 62.8997 193.872 62.2329 194.371 61.3794C194.87 60.5261 195.119 59.5498 195.119 58.451C195.119 57.3628 194.87 56.4027 194.371 55.5708C193.872 54.7387 193.161 54.0932 192.238 53.6344C191.315 53.1758 190.243 52.9464 189.023 52.9464C187.792 52.9464 186.715 53.1758 185.791 53.6344C184.868 54.0932 184.152 54.7387 183.643 55.5708C183.144 56.4027 182.895 57.3628 182.895 58.451C182.895 59.5498 183.144 60.5261 183.643 61.3794C184.152 62.2329 184.868 62.8997 185.791 63.3797C186.715 63.8491 187.792 64.0838 189.023 64.0838Z" fill="white"/>
<path d="M228.704 53.507H220.936V69.9893H212.785V53.507H204.876V47.0422H228.704V53.507Z" fill="white"/>
<path d="M244.511 70.7408C241.548 70.7408 238.944 70.1914 236.693 69.0926C234.445 67.9936 232.71 66.5054 231.488 64.6279C230.27 62.7503 229.658 60.67 229.658 58.3872C229.658 56.0613 230.265 53.9866 231.473 52.1623C232.694 50.3273 234.43 48.8924 236.677 47.8575C238.928 46.8121 241.548 46.2894 244.542 46.2894C247.512 46.2894 250.117 46.8121 252.357 47.8575C254.607 48.8924 256.335 50.3273 257.546 52.1623C258.767 53.9866 259.376 56.0613 259.376 58.3872C259.376 60.6808 258.762 62.7664 257.53 64.644C256.309 66.5215 254.573 68.0097 252.325 69.1085C250.075 70.1967 247.47 70.7408 244.511 70.7408ZM244.511 64.0838C245.729 64.0838 246.8 63.8491 247.725 63.3797C248.649 62.8997 249.358 62.2329 249.857 61.3794C250.356 60.5261 250.605 59.5498 250.605 58.451C250.605 57.3628 250.356 56.4027 249.857 55.5708C249.358 54.7387 248.649 54.0932 247.725 53.6344C246.8 53.1758 245.729 52.9464 244.511 52.9464C243.279 52.9464 242.202 53.1758 241.278 53.6344C240.356 54.0932 239.639 54.7387 239.13 55.5708C238.631 56.4027 238.382 57.3628 238.382 58.451C238.382 59.5498 238.631 60.5261 239.13 61.3794C239.639 62.2329 240.356 62.8997 241.278 63.3797C242.202 63.8491 243.279 64.0838 244.511 64.0838Z" fill="white"/>
<path d="M276.377 70.7404C273.279 70.7404 270.603 70.2177 268.355 69.1723C266.115 68.116 264.411 66.6759 263.245 64.8516C262.076 63.0166 261.493 60.9471 261.493 58.6426C261.493 56.3065 262.087 54.2048 263.276 52.3378C264.466 50.4602 266.199 48.9829 268.481 47.9052C270.763 46.8278 273.473 46.289 276.616 46.289C278.536 46.289 280.293 46.4812 281.884 46.8651C283.486 47.2492 285.009 47.8038 286.45 48.5293V55.2983C285.529 54.6475 284.371 54.1195 282.982 53.714C281.603 53.3088 280.132 53.106 278.573 53.106C276.863 53.106 275.395 53.3301 274.164 53.7782C272.932 54.2262 271.995 54.8555 271.346 55.6663C270.71 56.4665 270.393 57.3947 270.393 58.4507C270.393 59.5175 270.716 60.4616 271.362 61.2832C272.021 62.0939 272.963 62.7286 274.195 63.1874C275.427 63.6354 276.887 63.8595 278.573 63.8595C280.185 63.8595 281.687 63.646 283.076 63.2193C284.468 62.7819 285.613 62.2006 286.516 61.4751V68.084C284.956 69.0014 283.381 69.6736 281.787 70.1002C280.206 70.5271 278.402 70.7404 276.377 70.7404Z" fill="white"/>
<path d="M303.943 70.7408C300.984 70.7408 298.379 70.1914 296.128 69.0926C293.878 67.9936 292.142 66.5054 290.924 64.6279C289.703 62.7503 289.093 60.67 289.093 58.3872C289.093 56.0613 289.697 53.9866 290.908 52.1623C292.126 50.3273 293.862 48.8924 296.113 47.8575C298.36 46.8121 300.984 46.2894 303.975 46.2894C306.947 46.2894 309.552 46.8121 311.79 47.8575C314.04 48.8924 315.771 50.3273 316.978 52.1623C318.2 53.9866 318.809 56.0613 318.809 58.3872C318.809 60.6808 318.194 62.7664 316.963 64.644C315.744 66.5215 314.008 68.0097 311.758 69.1085C309.508 70.1967 306.903 70.7408 303.943 70.7408ZM303.943 64.0838C305.164 64.0838 306.236 63.8491 307.157 63.3797C308.082 62.8997 308.793 62.2329 309.292 61.3794C309.791 60.5261 310.041 59.5498 310.041 58.451C310.041 57.3628 309.791 56.4027 309.292 55.5708C308.793 54.7387 308.082 54.0932 307.157 53.6344C306.236 53.1758 305.164 52.9464 303.943 52.9464C302.712 52.9464 301.635 53.1758 300.713 53.6344C299.789 54.0932 299.072 54.7387 298.563 55.5708C298.064 56.4027 297.814 57.3628 297.814 58.451C297.814 59.5498 298.064 60.5261 298.563 61.3794C299.072 62.2329 299.789 62.8997 300.713 63.3797C301.635 63.8491 302.712 64.0838 303.943 64.0838Z" fill="white"/>
<path d="M342.989 63.3004V69.9893H322.026V47.0422H330.175V63.3004H342.989Z" fill="white"/>
<path fill-rule="evenodd" clip-rule="evenodd" d="M68.8195 27.6811C72.9165 24.2599 77.4883 22.9581 81.8726 23.2871C86.5494 23.6382 90.8772 25.8321 94.1092 29.0185C97.3415 32.2053 99.562 36.4678 99.9173 41.0677C100.276 45.7099 98.723 50.5717 94.6281 54.839C94.2537 55.2316 93.8708 55.6197 93.4801 56.0028C74.9075 74.3117 50.2364 74.36 49.984 74.36C49.858 74.36 25.1073 74.3589 6.48641 56.0001L6.4822 55.9962C6.09776 55.6147 5.71936 55.2311 5.34648 54.8449L5.34333 54.8417C1.24658 50.5783 -0.307988 45.7176 0.0496672 41.0754C0.403908 36.4763 2.62284 32.2132 5.85407 29.0254C9.08531 25.8376 13.4126 23.6422 18.0902 23.2897C22.4743 22.9592 27.0468 24.2594 31.1465 27.679C31.5871 22.4045 33.884 18.2996 37.2177 15.4777C40.7735 12.4678 45.4072 11 49.9827 11C54.5584 11 59.1922 12.4678 62.7477 15.4777C66.0822 18.3001 68.3791 22.4059 68.8195 27.6811ZM63.936 47.0801C63.4281 47.0801 63.2522 47.8037 63.5762 48.1868C64.1503 48.8658 64.4953 49.7391 64.4953 50.6919C64.4953 52.854 62.7178 54.6067 60.5249 54.6067C58.3319 54.6067 56.5541 52.854 56.5541 50.6919C56.5541 50.5762 56.4011 50.5187 56.332 50.6124C55.7057 51.4604 55.2829 52.4124 55.1091 53.4121C55.0114 53.975 54.5474 54.4412 53.9642 54.4412H53.6422C52.881 54.4412 52.2531 53.8329 52.3655 53.0958C53.1354 48.0447 58.1849 44.3815 63.936 44.3815C69.6873 44.3815 74.7365 48.0447 75.5067 53.0958C75.6188 53.8329 74.991 54.4412 74.23 54.4412C73.469 54.4412 72.8663 53.83 72.7009 53.1024C71.948 49.7916 68.4584 47.0801 63.936 47.0801ZM28.6768 50.6919C28.6768 50.5393 28.4761 50.4574 28.3819 50.5789C27.7123 51.44 27.2561 52.4155 27.0631 53.4435C26.9492 54.0507 26.4481 54.5552 25.8176 54.5552H25.5813C24.8203 54.5552 24.1924 53.947 24.3046 53.2099C25.0742 48.1562 30.1242 44.4953 35.8753 44.4953C41.6264 44.4953 46.6764 48.1562 47.4458 53.2099C47.5582 53.947 46.9303 54.5552 46.1693 54.5552C45.4083 54.5552 44.8056 53.9438 44.6402 53.2165C43.8879 49.9036 40.3982 47.1941 35.8753 47.1941C35.4641 47.1941 35.3136 47.7633 35.5888 48.0622C36.2285 48.7573 36.6179 49.6797 36.6179 50.6919C36.6179 52.854 34.8404 54.6067 32.6475 54.6067C30.4545 54.6067 28.6768 52.854 28.6768 50.6919ZM54.3998 60.1325C54.9379 59.6053 55.769 59.349 56.4368 59.7064C57.1048 60.0636 57.3582 60.8934 56.8769 61.4705C55.3092 63.3507 52.7712 64.5418 49.9722 64.5418C47.1745 64.5418 44.631 63.3631 43.0612 61.4689C42.5817 60.8902 42.8383 60.0612 43.5074 59.7064C44.1765 59.3513 45.0065 59.6108 45.5435 60.1388C46.5782 61.1558 48.1482 61.8432 49.9722 61.8432C51.7912 61.8432 53.3631 61.1489 54.3998 60.1325Z" fill="white"/>
</g>
<defs>
<clipPath id="clip0_6060_1575">
<rect width="344" height="88" fill="white"/>
</clipPath>
</defs>
</svg>
