<svg width="38" height="40" viewBox="0 0 38 40" fill="none" xmlns="http://www.w3.org/2000/svg">
<path d="M8.42119 4.2106C8.42119 6.53604 6.53604 8.42119 4.2106 8.42119C1.88515 8.42119 0 6.53604 0 4.2106C0 1.88515 1.88515 0 4.2106 0C6.53604 0 8.42119 1.88515 8.42119 4.2106Z" fill="white"/>
<path d="M8.42119 40V10.5259H0V40H8.42119Z" fill="white"/>
<path d="M28.4195 10.5259C22.5436 10.5259 21.533 12.6691 21.053 14.7365V10.5259H12.6318V40H21.053V23.1577C21.053 20.4271 22.5331 18.9471 25.2636 18.9471C27.9289 18.9471 29.4742 20.3955 29.4742 23.1577V40H37.8954V25.263C37.8954 16.8418 36.7985 10.5259 28.4195 10.5259Z" fill="white"/>
</svg>
