<svg width="228" height="88" viewBox="0 0 228 88" fill="none" xmlns="http://www.w3.org/2000/svg">
<g clip-path="url(#clip0_6060_1588)">
<path d="M25.4218 53.2101V61.4753H0V20.587H8.91598V53.2101H25.4218ZM29.3595 33.7455H37.9286V61.4734H29.3595V33.7455ZM33.645 19.9717C34.9629 19.972 36.2268 20.4979 37.1589 21.434C38.091 22.37 38.615 23.6396 38.6157 24.9637C38.6157 27.7232 36.3889 29.9538 33.644 29.9538C30.8992 29.9538 28.6761 27.7222 28.6761 24.9637C28.6769 23.6401 29.2005 22.371 30.132 21.435C31.0634 20.499 32.3276 19.9727 33.645 19.9717ZM92.019 33.7426H102.511L91.2628 46.562L102.276 61.4734H91.518L82.4253 47.7756H82.3147V61.4734H73.7485V20.5842H82.3147V45.0218L92.019 33.7426ZM42.6687 33.7587H50.8938V37.5571H51.0072C52.149 35.3759 54.9486 33.0817 59.1169 33.0817C67.8013 33.0817 69.4006 38.82 69.4006 46.279V61.4724H60.8324V47.9921C60.8324 44.7768 60.7738 40.647 56.3749 40.647C51.9202 40.647 51.2369 44.1482 51.2369 47.7623V61.4648H42.6678L42.6687 33.7587ZM120.559 44.3884C120.616 41.5188 118.387 39.1087 115.3 39.1087C111.531 39.1087 109.474 41.6916 109.248 44.3884H120.559ZM127.812 56.6666C125.071 60.1677 120.56 62.178 116.092 62.178C107.525 62.178 100.669 56.4358 100.669 47.541C100.669 38.6463 107.525 32.9174 116.092 32.9174C124.096 32.9174 129.117 38.6558 129.117 47.541V50.2379H109.238C109.918 53.5092 112.378 55.6315 115.693 55.6315C118.493 55.6315 120.377 54.2071 121.806 52.2444L127.812 56.6666ZM146.971 40.4552C142.69 40.4552 140.121 43.3268 140.121 47.5126C140.121 51.7059 142.692 54.5718 146.971 54.5718C151.259 54.5718 153.831 51.7059 153.831 47.5126C153.83 43.3268 151.26 40.4552 146.971 40.4552ZM161.716 61.4601H153.832V57.7852H153.72C152.402 59.7936 149.091 62.1476 145.206 62.1476C136.977 62.1476 131.552 56.1813 131.552 47.7424C131.552 39.9937 136.349 32.8775 144.232 32.8775C147.777 32.8775 151.09 33.8528 153.023 36.5496H153.134V20.5842H161.707L161.716 61.4601Z" fill="white"/>
<path fill-rule="evenodd" clip-rule="evenodd" d="M174.551 12H223.802C226.16 12 228.081 13.8745 228.08 16.1839V65.8729C228.08 68.1842 226.159 70.0606 223.802 70.0606H174.551C172.197 70.0606 170.285 68.1851 170.285 65.8729V16.1839C170.285 13.8745 172.188 12 174.551 12ZM187.428 33.7675H178.855V61.4764H187.428V33.7675ZM186.655 21.4574C185.723 20.5214 184.461 19.995 183.143 19.9937C181.825 19.9937 180.561 20.5196 179.629 21.4557C178.696 22.3918 178.172 23.6615 178.172 24.9857C178.172 26.3103 178.696 27.5805 179.628 28.517C180.56 29.4535 181.825 29.9796 183.143 29.9796C184.461 29.9783 185.724 29.4517 186.655 28.5153C187.587 27.5789 188.11 26.3094 188.11 24.9857C188.109 23.6623 187.586 22.3933 186.655 21.4574ZM192.803 33.7675L192.804 61.4565H201.367V47.7492C201.367 44.1351 202.051 40.6349 206.512 40.6349C210.908 40.6349 210.967 44.7684 210.967 47.9818V61.466H219.531V46.2678C219.531 38.8079 217.928 33.0686 209.248 33.0686C205.079 33.0686 202.272 35.3656 201.138 37.544H201.024V33.7675H192.803Z" fill="white"/>
</g>
<defs>
<clipPath id="clip0_6060_1588">
<rect width="228" height="88" fill="white"/>
</clipPath>
</defs>
</svg>
