<svg width="423" height="96" viewBox="0 0 423 96" fill="none" xmlns="http://www.w3.org/2000/svg">
<path d="M23.5966 9.8311L39.3078 0.699351C40.9123 -0.233117 42.889 -0.233117 44.4932 0.699351L59.7965 9.59366C60.1003 9.77047 60.3461 10.0221 60.5159 10.3179L43.4293 20.2489C42.7504 20.6434 42.2536 21.271 42.0149 21.9986C41.9083 21.9964 41.8013 21.9972 41.6947 22.0014C41.39 21.1984 40.8184 20.5091 40.0552 20.0656L23.1754 10.255C23.2747 10.0819 23.4186 9.93453 23.5966 9.8311Z" fill="white"/>
<path d="M37.503 23.7455C37.3385 23.4581 37.1001 23.2136 36.8045 23.0419L21.4716 14.1301C19.8674 13.1976 17.8904 13.1976 16.2862 14.1301L2.59282 22.089C0.988316 23.0215 0 24.7445 0 26.6098V42.5274C0 44.3921 0.988316 46.1155 2.59282 47.048L17.9821 55.9927C18.2468 56.1463 18.5408 56.2267 18.8359 56.2341V37.6091C18.8359 35.7444 19.8245 34.0211 21.4287 33.0883L22.3211 32.5695C22.4449 32.451 22.584 32.3468 22.7358 32.26L27.7866 29.3716C27.9045 29.3039 28.0247 29.2413 28.1463 29.184L37.503 23.7455Z" fill="white"/>
<path d="M28.7591 33.7255L23.5351 36.7616C23.2344 36.9364 23.049 37.2594 23.049 37.6091V44.0623C23.1875 45.2 23.8477 46.2183 24.8484 46.8L30.3645 50.0058V44.3139C30.3645 42.4492 31.3525 40.7259 32.957 39.7934L37.7129 37.0291L32.3817 33.9304C31.2676 33.2826 29.9223 33.2144 28.7591 33.7255Z" fill="white"/>
<path d="M23.049 50.6198V58.3921C23.049 58.742 23.2344 59.065 23.5351 59.2398L30.3645 63.209V54.8715L23.049 50.6198Z" fill="white"/>
<path d="M32.7843 69.5132C32.841 69.5492 32.8986 69.584 32.957 69.618L37.5343 72.2784C37.5713 72.2999 37.6088 72.3203 37.6472 72.3393L39.3078 73.3046C40.9123 74.2371 42.889 74.2371 44.4932 73.3046L46.1809 72.3237C46.2086 72.3092 46.2359 72.2942 46.263 72.2784L50.8404 69.618C50.883 69.5931 50.9253 69.5676 50.9671 69.5421L60.486 64.0094C60.6747 64.3222 60.7794 64.6861 60.7794 65.0646V82.8211C60.7794 84.6861 59.7908 86.4092 58.1866 87.3417L44.4932 95.3006C42.889 96.2331 40.9123 96.2331 39.3078 95.3006L25.6144 87.3417C24.0099 86.4092 23.0219 84.6861 23.0219 82.8211V65.0646C23.0219 64.6861 23.1263 64.3222 23.3148 64.0094L32.7843 69.5132Z" fill="white"/>
<path d="M19.6967 61.2726C19.5928 61.1142 19.4972 60.9496 19.4106 60.7807C18.6206 60.9 17.7999 60.7521 17.0855 60.337L0.316271 50.5904C0.112852 50.9287 0 51.322 0 51.7311V69.3902C0 71.2552 0.988316 72.9788 2.59282 73.911L18.0098 82.8716C18.266 83.0203 18.5503 83.0985 18.8359 83.1056V63.7473C18.8359 62.8335 19.1485 61.9648 19.6967 61.2726Z" fill="white"/>
<path d="M64.1041 61.2726C64.6528 61.9648 64.9649 62.8335 64.9649 63.7473V83.0827C65.2758 83.0753 65.585 82.9909 65.8632 82.8291L81.2068 73.911C82.8113 72.9788 83.7993 71.2552 83.7993 69.3902V51.7257C83.7993 51.3183 83.6873 50.9267 83.4848 50.5898L66.6882 60.352C65.9811 60.7628 65.1686 60.9082 64.3868 60.7878C64.3013 60.9547 64.2068 61.1162 64.1041 61.2726Z" fill="white"/>
<path d="M64.9649 56.2381C65.2552 56.2307 65.5444 56.1514 65.8045 56L81.2068 47.048C82.8113 46.1155 83.7993 44.3921 83.7993 42.5274V26.6098C83.7993 24.7445 82.8113 23.0215 81.2068 22.089L67.5134 14.1301C65.9089 13.1976 63.9323 13.1976 62.3281 14.1301L46.8295 23.1382C46.5855 23.2799 46.3883 23.4819 46.2526 23.7191L62.3723 33.0883C63.9768 34.0211 64.9649 35.7444 64.9649 37.6091V56.2381Z" fill="white"/>
<path d="M53.4329 63.211L60.2656 59.2398C60.5664 59.065 60.7518 58.742 60.7518 58.3921V50.6201L53.4329 54.8743V63.211Z" fill="white"/>
<path d="M60.7518 43.5753V37.6091C60.7518 37.2594 60.5664 36.9364 60.2656 36.7616L55.1782 33.8043C53.9289 33.2441 52.4779 33.313 51.2782 34.0103L46.0844 37.0291L50.8404 39.7934C52.4449 40.7259 53.4329 42.4492 53.4329 44.3139V50.0084L58.4809 47.0743C59.7561 46.3334 60.5924 45.0288 60.7518 43.5753Z" fill="white"/>
<path d="M49.2195 30.3412L41.899 34.5963L34.5798 30.3421L41.4143 26.3701C41.715 26.195 42.0857 26.195 42.3865 26.3701L49.2195 30.3412Z" fill="white"/>
<path d="M47.808 66.4805L42.3865 69.6316C42.0857 69.8061 41.715 69.8061 41.4143 69.6316L35.9781 66.472C35.0848 65.7818 34.5499 64.7067 34.5499 63.5552V57.304L39.3081 60.0698C40.9126 61.0023 42.8893 61.0023 44.4935 60.0698L49.2474 57.3068V63.5552C49.2474 64.7118 48.7077 65.7905 47.808 66.4805Z" fill="white"/>
<path d="M41.899 39.4616L37.1425 42.2259C35.5382 43.1584 34.5499 44.8818 34.5499 46.7468V52.4387L39.3081 55.2044C40.9126 56.1369 42.8893 56.1369 44.4935 55.2044L49.2474 52.4412V46.7468C49.2474 44.8818 48.2591 43.1584 46.6549 42.2259L41.899 39.4616Z" fill="white"/>
<path d="M137.741 66.2507C143.056 66.2507 148.076 64.0754 151.472 60.3672L148.371 57.2028C145.812 60.1694 141.973 61.8505 137.889 61.8505C130.31 61.8505 124.601 56.0161 124.601 48.402C124.601 40.7879 130.26 34.9045 137.741 34.9045C141.826 34.9045 145.812 36.6349 148.42 39.7004L151.57 36.4371C148.273 32.7289 143.204 30.5534 137.741 30.5534C127.652 30.5534 119.778 38.4149 119.778 48.402C119.778 58.3895 127.652 66.2507 137.741 66.2507Z" fill="white"/>
<path d="M107.415 65.7077H112.14V31.0982H107.415V65.7077Z" fill="white"/>
<path d="M184.086 65.7077H158.74V31.0982H183.889V35.2513H163.465V46.178H176.851V50.2817H163.465V61.5547H184.086V65.7077Z" fill="white"/>
<path fill-rule="evenodd" clip-rule="evenodd" d="M191.421 65.7077H206.677C213.813 65.7077 218.489 61.8514 218.489 55.8688C218.489 52.0617 216.028 49.095 212.14 47.7106C215.24 46.2769 217.111 43.6069 217.111 40.1461C217.111 34.6579 212.73 31.0982 206.037 31.0982H191.421V65.7077ZM196.145 45.9309V35.1524H205.742C209.827 35.1524 212.435 37.229 212.435 40.5416C212.435 43.8542 209.827 45.9309 205.742 45.9309H196.145ZM196.145 61.6536V49.738H206.283C210.811 49.738 213.715 52.111 213.715 55.7203C213.715 59.3296 210.811 61.6536 206.283 61.6536H196.145Z" fill="white"/>
<path fill-rule="evenodd" clip-rule="evenodd" d="M230.939 65.7077H226.215V31.0982H241.57C248.361 31.0982 252.988 35.202 252.988 41.2339C252.988 45.7824 250.182 49.2435 245.802 50.628L253.479 65.7077H248.263L241.077 51.2706H230.939V65.7077ZM230.939 35.3008V47.3151H241.225C245.408 47.3151 248.213 44.942 248.213 41.2832C248.213 37.6739 245.408 35.3008 241.225 35.3008H230.939Z" fill="white"/>
<path d="M260.431 65.7077H285.778V61.5547H265.157V50.2817H278.544V46.178H265.157V35.2513H285.581V31.0982H260.431V65.7077Z" fill="white"/>
<path fill-rule="evenodd" clip-rule="evenodd" d="M295.212 65.7077H290.289L304.514 31.0982H310.123L324.25 65.7077H319.129L314.996 55.3247H299.346L295.212 65.7077ZM307.169 35.5975L300.92 51.3695H313.469L307.169 35.5975Z" fill="white"/>
<path d="M329.923 65.7077H334.649V49.2435L351.726 65.7077H358.221L339.569 47.9084L357.73 31.0982H351.675L334.649 47.2658V31.0982H329.923V65.7077Z" fill="white"/>
<path d="M387.998 65.7077H362.651V31.0982H387.801V35.2513H367.377V46.178H380.764V50.2817H367.377V61.5547H387.998V65.7077Z" fill="white"/>
<path fill-rule="evenodd" clip-rule="evenodd" d="M395.331 65.7077H400.057V51.2706H410.197L417.38 65.7077H422.597L414.92 50.628C419.301 49.2435 422.106 45.7824 422.106 41.2339C422.106 35.202 417.479 31.0982 410.688 31.0982H395.331V65.7077ZM400.057 47.3151V35.3008H410.341C414.525 35.3008 417.332 37.6739 417.332 41.2832C417.332 44.942 414.525 47.3151 410.341 47.3151H400.057Z" fill="white"/>
</svg>
