<svg xmlns="http://www.w3.org/2000/svg" width="100%" height="100%" viewbox="0 0 24 25" fill="none" preserveaspectratio="xMidYMid meet" aria-hidden="true" role="img">
  <path
    d="M4.125 7.25C4.42337 7.25 4.70952 7.36853 4.9205 7.5795C5.13147 7.79048 5.25 8.07663 5.25 8.375C5.25 8.67337 5.13147 8.95952 4.9205 9.1705C4.70952 9.38147 4.42337 9.5 4.125 9.5C3.82663 9.5 3.54048 9.38147 3.3295 9.1705C3.11853 8.95952 3 8.67337 3 8.375C3 8.07663 3.11853 7.79048 3.3295 7.5795C3.54048 7.36853 3.82663 7.25 4.125 7.25Z"
    fill="#fff"
  ></path>
  <path
    d="M16.875 12.5C17.1734 12.5 17.4595 12.6185 17.6705 12.8295C17.8815 13.0405 18 13.3266 18 13.625C18 13.9234 17.8815 14.2095 17.6705 14.4205C17.4595 14.6315 17.1734 14.75 16.875 14.75C16.5766 14.75 16.2905 14.6315 16.0795 14.4205C15.8685 14.2095 15.75 13.9234 15.75 13.625C15.75 13.3266 15.8685 13.0405 16.0795 12.8295C16.2905 12.6185 16.5766 12.5 16.875 12.5Z"
    fill="#fff"
  ></path>
  <path
    fill-rule="evenodd"
    clip-rule="evenodd"
    d="M7.84835 8.34835C8.55161 7.64509 9.50544 7.25 10.5 7.25C11.4946 7.25 12.4484 7.64509 13.1517 8.34835C13.8549 9.05161 14.25 10.0054 14.25 11C14.25 11.9946 13.8549 12.9484 13.1517 13.6517C12.4484 14.3549 11.4946 14.75 10.5 14.75C9.50544 14.75 8.55161 14.3549 7.84835 13.6517C7.14509 12.9484 6.75 11.9946 6.75 11C6.75 10.0054 7.14509 9.05161 7.84835 8.34835ZM10.5 8.75C9.90326 8.75 9.33097 8.98705 8.90901 9.40901C8.48705 9.83097 8.25 10.4033 8.25 11C8.25 11.5967 8.48705 12.169 8.90901 12.591C9.33097 13.0129 9.90326 13.25 10.5 13.25C11.0967 13.25 11.669 13.0129 12.091 12.591C12.5129 12.169 12.75 11.5967 12.75 11C12.75 10.4033 12.5129 9.83097 12.091 9.40901C11.669 8.98705 11.0967 8.75 10.5 8.75Z"
    fill="#fff"
  ></path>
  <path
    fill-rule="evenodd"
    clip-rule="evenodd"
    d="M0.65901 4.90901C1.08097 4.48705 1.65326 4.25 2.25 4.25H18.75C19.3467 4.25 19.919 4.48705 20.341 4.90901C20.7629 5.33097 21 5.90326 21 6.5V15.5C21 16.0967 20.7629 16.669 20.341 17.091C19.919 17.5129 19.3467 17.75 18.75 17.75H2.25C1.65326 17.75 1.08097 17.5129 0.65901 17.091C0.237053 16.669 0 16.0967 0 15.5V6.5C0 5.90326 0.237053 5.33097 0.65901 4.90901ZM2.25 5.75C2.05109 5.75 1.86032 5.82902 1.71967 5.96967C1.57902 6.11032 1.5 6.30109 1.5 6.5V15.5C1.5 15.6989 1.57902 15.8897 1.71967 16.0303C1.86032 16.171 2.05109 16.25 2.25 16.25H18.75C18.9489 16.25 19.1397 16.171 19.2803 16.0303C19.421 15.8897 19.5 15.6989 19.5 15.5V6.5C19.5 6.30109 19.421 6.11032 19.2803 5.96967C19.1397 5.82902 18.9489 5.75 18.75 5.75H2.25Z"
    fill="#fff"
  ></path>
  <path
    d="M24 9.5C24 9.08579 23.6642 8.75 23.25 8.75C22.8358 8.75 22.5 9.08579 22.5 9.5V18.5C22.5 18.6989 22.421 18.8897 22.2803 19.0303C22.1397 19.171 21.9489 19.25 21.75 19.25H5.25C4.83579 19.25 4.5 19.5858 4.5 20C4.5 20.4142 4.83579 20.75 5.25 20.75H21.75C22.3467 20.75 22.919 20.5129 23.341 20.091C23.7629 19.669 24 19.0967 24 18.5V9.5Z"
    fill="#fff"
  ></path>
</svg>