<svg xmlns="http://www.w3.org/2000/svg" width="100%" height="100%" viewbox="0 0 24 25" fill="none" preserveaspectratio="xMidYMid meet" aria-hidden="true" role="img">
  <g clip-path="url(#clip0_4127_1114)">
    <path
      d="M22.5519 8.07014L13.0889 5.05414C12.9637 5.01419 12.8319 4.99932 12.7009 5.01038C12.5699 5.02144 12.4424 5.0582 12.3257 5.11857C12.2089 5.17894 12.1052 5.26173 12.0205 5.3622C11.9358 5.46268 11.8717 5.57887 11.8319 5.70414L7.45692 19.4301C7.41713 19.5553 7.40238 19.687 7.41351 19.8179C7.42464 19.9487 7.46144 20.0761 7.52179 20.1928C7.58215 20.3094 7.66489 20.413 7.76529 20.4976C7.86569 20.5823 7.98177 20.6463 8.10692 20.6861L17.5689 23.7031C17.6941 23.7431 17.826 23.7579 17.957 23.7469C18.0879 23.7358 18.2154 23.6991 18.3322 23.6387C18.4489 23.5783 18.5526 23.4955 18.6373 23.3951C18.7221 23.2946 18.7861 23.1784 18.8259 23.0531L23.1999 9.32814C23.2397 9.20299 23.2545 9.07123 23.2433 8.94037C23.2322 8.80952 23.1954 8.68215 23.1351 8.56552C23.0747 8.44888 22.992 8.34528 22.8916 8.26063C22.7912 8.17598 22.6751 8.11193 22.5499 8.07214L22.5519 8.07014Z"
      stroke="#fff"
      stroke-width="1.5"
      stroke-linecap="round"
      stroke-linejoin="round"
    ></path>
    <path
      d="M6.87013 7.25625C7.27504 7.16895 7.5325 6.76992 7.44519 6.36502C7.35788 5.96011 6.95886 5.70265 6.55396 5.78996L1.76796 6.82195L1.76662 6.82225C1.18592 6.94857 0.679082 7.30019 0.357406 7.79988C0.0357303 8.29958 -0.0743863 8.907 0.0510463 9.4879L2.89318 22.6075C3.01951 23.1882 3.37113 23.6951 3.87082 24.0167C4.37052 24.3384 4.97799 24.4485 5.55889 24.3231L12.5359 22.8111C12.9407 22.7234 13.1978 22.3241 13.11 21.9193C13.0223 21.5144 12.623 21.2574 12.2182 21.3451L5.24174 22.857C5.04933 22.8986 4.84828 22.862 4.68275 22.7555C4.51729 22.649 4.40079 22.4809 4.3589 22.2887L1.51709 9.17056C1.47563 8.97821 1.51216 8.77727 1.61867 8.61181C1.72512 8.44644 1.89334 8.32991 2.08547 8.28796L6.87013 7.25625Z"
      fill="#fff"
    ></path>
    <path
      d="M3.56299 8.75C3.26462 8.75 2.97847 8.86853 2.76749 9.0795C2.55651 9.29048 2.43799 9.57663 2.43799 9.875C2.43799 10.1734 2.55651 10.4595 2.76749 10.6705C2.97847 10.8815 3.26462 11 3.56299 11C3.86136 11 4.1475 10.8815 4.35848 10.6705C4.56946 10.4595 4.68799 10.1734 4.68799 9.875C4.68799 9.57663 4.56946 9.29048 4.35848 9.0795C4.1475 8.86853 3.86136 8.75 3.56299 8.75Z"
      fill="#fff"
    ></path>
    <path
      d="M17.1479 0.501123H8.30456C7.70833 0.494429 7.13234 0.717666 6.69631 1.12459C6.25892 1.53279 5.99621 2.09424 5.96309 2.69161C5.96232 2.70543 5.96194 2.71928 5.96194 2.73312V16.1551V16.1571H6.71194L5.96195 16.1527L5.96194 16.1551C5.9593 16.7046 6.15853 17.2359 6.52182 17.6482C6.88566 18.061 7.38863 18.3257 7.93497 18.3917C8.3462 18.4414 8.71984 18.1483 8.76952 17.7371C8.81921 17.3259 8.52613 16.9522 8.11491 16.9025C7.93409 16.8807 7.76763 16.7931 7.64722 16.6565C7.52681 16.5198 7.46087 16.3437 7.46194 16.1615V2.75725C7.47764 2.55279 7.56952 2.36141 7.71974 2.22122C7.87422 2.07705 8.07843 1.99824 8.28971 2.00112H17.1336C17.3326 2.0102 17.5213 2.09303 17.6626 2.23368C17.8037 2.37392 17.8874 2.56145 17.8979 2.75976V6.82612C17.8979 7.24034 18.2337 7.57612 18.6479 7.57612C19.0622 7.57612 19.3979 7.24034 19.3979 6.82612V2.74312C19.3979 2.73359 19.3978 2.72406 19.3974 2.71453C19.3752 2.13266 19.1333 1.58082 18.7205 1.17018C18.3076 0.759542 17.7545 0.520612 17.1725 0.501526C17.1643 0.501257 17.1561 0.501123 17.1479 0.501123Z"
      fill="#fff"
    ></path>
    <path
      d="M9.39697 2.74121C9.0986 2.74121 8.81246 2.85974 8.60148 3.07072C8.3905 3.2817 8.27197 3.56784 8.27197 3.86621C8.27197 4.16458 8.3905 4.45073 8.60148 4.66171C8.81246 4.87269 9.0986 4.99121 9.39697 4.99121C9.69534 4.99121 9.98149 4.87268 10.1925 4.66171C10.4034 4.45073 10.522 4.16458 10.522 3.86621C10.522 3.56784 10.4034 3.28169 10.1925 3.07072C9.98149 2.85974 9.69534 2.74121 9.39697 2.74121Z"
      fill="#fff"
    ></path>
    <path
      d="M13.0346 7.23429C13.2456 7.02331 13.5318 6.90479 13.8301 6.90479C14.1285 6.90479 14.4147 7.02331 14.6256 7.23429C14.8366 7.44527 14.9551 7.73142 14.9551 8.02979C14.9551 8.32815 14.8366 8.6143 14.6256 8.82528C14.4147 9.03626 14.1285 9.15479 13.8301 9.15479C13.5318 9.15479 13.2456 9.03626 13.0346 8.82528C12.8237 8.6143 12.7051 8.32815 12.7051 8.02979C12.7051 7.73142 12.8237 7.44527 13.0346 7.23429Z"
      fill="#fff"
    ></path>
    <path
      fill-rule="evenodd"
      clip-rule="evenodd"
      d="M16.4628 10.8215C16.6877 10.8932 16.8658 11.0666 16.9434 11.2896L18.1694 14.8116C18.279 15.1264 18.1676 15.4758 17.8961 15.6691L14.8581 17.8321C14.6657 17.969 14.4201 18.0074 14.1952 17.9357C13.9703 17.864 13.7922 17.6905 13.7147 17.4675L12.4897 13.9455C12.3802 13.6308 12.4915 13.2816 12.763 13.0882L15.8 10.9252C15.9923 10.7883 16.2378 10.7499 16.4628 10.8215ZM14.0911 13.9838L14.8029 16.0301L16.5678 14.7734L15.8555 12.7272L14.0911 13.9838Z"
      fill="#fff"
    ></path>
    <path
      d="M16.8279 19.6021C16.5296 19.6021 16.2434 19.7206 16.0324 19.9316C15.8215 20.1425 15.7029 20.4287 15.7029 20.7271C15.7029 21.0254 15.8215 21.3116 16.0324 21.5225C16.2434 21.7335 16.5296 21.8521 16.8279 21.8521C17.1263 21.8521 17.4125 21.7335 17.6234 21.5225C17.8344 21.3116 17.9529 21.0254 17.9529 20.7271C17.9529 20.4287 17.8344 20.1425 17.6234 19.9316C17.4125 19.7206 17.1263 19.6021 16.8279 19.6021Z"
      fill="#fff"
    ></path>
  </g>
  <defs>
    <clippath id="clip0_4127_1114">
      <rect width="24" height="24" fill="#fff" transform="translate(0 0.5)"></rect>
    </clippath>
  </defs>
</svg>