<svg xmlns="http://www.w3.org/2000/svg" width="100%" height="100%" viewbox="0 0 24 25" fill="none" preserveaspectratio="xMidYMid meet" aria-hidden="true" role="img">
  <g clip-path="url(#clip0_4127_1101)">
    <path
      d="M0.65901 1.15901C1.08097 0.737053 1.65326 0.5 2.25 0.5H21.75C22.3467 0.5 22.919 0.737053 23.341 1.15901C23.7629 1.58097 24 2.15326 24 2.75V14.75C24 15.3467 23.7629 15.919 23.341 16.341C22.919 16.7629 22.3467 17 21.75 17H15.75C15.3358 17 15 16.6642 15 16.25C15 15.8358 15.3358 15.5 15.75 15.5H21.75C21.9489 15.5 22.1397 15.421 22.2803 15.2803C22.421 15.1397 22.5 14.9489 22.5 14.75V2.75C22.5 2.55109 22.421 2.36032 22.2803 2.21967C22.1397 2.07902 21.9489 2 21.75 2H2.25C2.05109 2 1.86032 2.07902 1.71967 2.21967C1.57902 2.36032 1.5 2.55109 1.5 2.75V9.26C1.5 9.67421 1.16421 10.01 0.75 10.01C0.335786 10.01 0 9.67421 0 9.26V2.75C0 2.15326 0.237053 1.58097 0.65901 1.15901Z"
      fill="#fff"
    ></path>
    <path
      fill-rule="evenodd"
      clip-rule="evenodd"
      d="M2.17184 10.9578C3.38219 10.3526 5.00183 10 6.75 10C8.49817 10 10.1178 10.3526 11.3282 10.9578C12.4937 11.5406 13.5 12.4844 13.5 13.75V20.75C13.5 22.0173 12.4924 22.9611 11.3264 23.5435C10.1156 24.1482 8.49602 24.5 6.75 24.5C5.00398 24.5 3.38445 24.1482 2.17365 23.5435C1.0076 22.9611 0 22.0173 0 20.75V13.75C0 12.4844 1.0063 11.5406 2.17184 10.9578ZM1.5 19.6511V20.75C1.5 21.1427 1.8374 21.6989 2.84385 22.2015C3.80555 22.6818 5.18602 23 6.75 23C8.31398 23 9.69445 22.6818 10.6561 22.2015C11.6626 21.6989 12 21.1427 12 20.75V19.6511C11.7863 19.7961 11.5595 19.927 11.3264 20.0435C10.1156 20.6482 8.49602 21 6.75 21C5.00398 21 3.38445 20.6482 2.17365 20.0435C1.9405 19.927 1.71369 19.7961 1.5 19.6511ZM12 17.25C12 17.6427 11.6626 18.1989 10.6561 18.7015C9.69445 19.1818 8.31398 19.5 6.75 19.5C5.18602 19.5 3.80555 19.1818 2.84385 18.7015C1.8374 18.1989 1.5 17.6427 1.5 17.25V16.1506C1.71312 16.2953 1.93931 16.4259 2.17184 16.5422C3.38219 17.1474 5.00183 17.5 6.75 17.5C8.49817 17.5 10.1178 17.1474 11.3282 16.5422C11.5607 16.4259 11.7869 16.2953 12 16.1506V17.25ZM2.84266 15.2006C1.8367 14.6976 1.5 14.1414 1.5 13.75C1.5 13.3586 1.8367 12.8024 2.84266 12.2994C3.80381 11.8189 5.18417 11.5 6.75 11.5C8.31583 11.5 9.69619 11.8189 10.6573 12.2994C11.6633 12.8024 12 13.3586 12 13.75C12 14.1414 11.6633 14.6976 10.6573 15.2006C9.69619 15.6811 8.31583 16 6.75 16C5.18417 16 3.80381 15.6811 2.84266 15.2006Z"
      fill="#fff"
    ></path>
    <path
      d="M11.3314 6.55459C11.6219 6.45942 11.9287 6.42443 12.2332 6.45178C12.5376 6.47912 12.8333 6.56822 13.1022 6.71363C13.3711 6.85904 13.6076 7.05772 13.7971 7.29754C13.9867 7.53736 14.1254 7.81329 14.2047 8.10849C14.2841 8.4037 14.3025 8.71198 14.2588 9.01452C14.2151 9.31707 14.1102 9.60753 13.9505 9.86819C13.7341 10.2214 13.845 10.6831 14.1982 10.8995C14.5514 11.1159 15.0131 11.005 15.2295 10.6518C15.4957 10.2174 15.6705 9.73327 15.7434 9.22903C15.8162 8.72479 15.7856 8.21099 15.6533 7.71899C15.521 7.22698 15.2898 6.7671 14.9739 6.3674C14.658 5.9677 14.2639 5.63657 13.8158 5.39421C13.3676 5.15186 12.8748 5.00336 12.3674 4.95779C11.8599 4.91222 11.3485 4.97052 10.8644 5.12915C10.3802 5.28778 9.93345 5.5434 9.55136 5.88041C9.16928 6.21742 8.85987 6.62875 8.64202 7.08931C8.46491 7.46375 8.62487 7.91087 8.99931 8.08798C9.37375 8.26509 9.82087 8.10513 9.99798 7.73069C10.1287 7.45436 10.3143 7.20756 10.5436 7.00535C10.7728 6.80314 11.0409 6.64977 11.3314 6.55459Z"
      fill="#fff"
    ></path>
    <path
      d="M3.7095 5.8005C3.92048 6.01147 4.20663 6.13 4.505 6.13C4.80337 6.13 5.08952 6.01147 5.3005 5.8005C5.51147 5.58952 5.63 5.30337 5.63 5.005C5.63 4.70663 5.51147 4.42048 5.3005 4.2095C5.08952 3.99853 4.80337 3.88 4.505 3.88C4.20663 3.88 3.92048 3.99852 3.7095 4.2095C3.49852 4.42048 3.38 4.70663 3.38 5.005C3.38 5.30337 3.49853 5.58952 3.7095 5.8005Z"
      fill="#fff"
    ></path>
    <path
      d="M19.495 11.37C19.7934 11.37 20.0795 11.4885 20.2905 11.6995C20.5015 11.9105 20.62 12.1966 20.62 12.495C20.62 12.7934 20.5015 13.0795 20.2905 13.2905C20.0795 13.5015 19.7934 13.62 19.495 13.62C19.1966 13.62 18.9105 13.5015 18.6995 13.2905C18.4885 13.0795 18.37 12.7934 18.37 12.495C18.37 12.1966 18.4885 11.9105 18.6995 11.6995C18.9105 11.4885 19.1966 11.37 19.495 11.37Z"
      fill="#fff"
    ></path>
  </g>
  <defs>
    <clippath id="clip0_4127_1101">
      <rect width="24" height="24" fill="#fff" transform="translate(0 0.5)"></rect>
    </clippath>
  </defs>
</svg>