<svg width="389" height="96" viewBox="0 0 389 96" fill="none" xmlns="http://www.w3.org/2000/svg">
<path d="M39.106 48.5328C39.106 53.2048 38.2625 57.2423 36.5754 60.6453C34.8883 64.0483 32.5739 66.6727 29.6323 68.5184C26.6907 70.3641 23.331 71.287 19.553 71.287C15.7751 71.287 12.4153 70.3641 9.47369 68.5184C6.53209 66.6727 4.21774 64.0483 2.53064 60.6453C0.843548 57.2423 0 53.2048 0 48.5328C0 43.8609 0.843548 39.8234 2.53064 36.4203C4.21774 33.0173 6.53209 30.3929 9.47369 28.5472C12.4153 26.7015 15.7751 25.7787 19.553 25.7787C23.331 25.7787 26.6907 26.7015 29.6323 28.5472C32.5739 30.3929 34.8883 33.0173 36.5754 36.4203C38.2625 39.8234 39.106 43.8609 39.106 48.5328ZM33.915 48.5328C33.915 44.6972 33.2733 41.46 31.9899 38.8212C30.721 36.1824 28.9979 34.1853 26.8205 32.8299C24.6576 31.4744 22.2351 30.7967 19.553 30.7967C16.871 30.7967 14.4413 31.4744 12.2639 32.8299C10.1009 34.1853 8.3778 36.1824 7.09446 38.8212C5.82553 41.46 5.19107 44.6972 5.19107 48.5328C5.19107 52.3684 5.82553 55.6057 7.09446 58.2444C8.3778 60.8832 10.1009 62.8804 12.2639 64.2358C14.4413 65.5912 16.871 66.269 19.553 66.269C22.2351 66.269 24.6576 65.5912 26.8205 64.2358C28.9979 62.8804 30.721 60.8832 31.9899 58.2444C33.2733 55.6057 33.915 52.3684 33.915 48.5328Z" fill="#F6F6FD"/>
<path d="M52.5379 50.6958V70.6814H47.4334V37.4586H52.3649V42.6496H52.7975C53.5761 40.9625 54.7585 39.6071 56.3447 38.5833C57.9308 37.5451 59.9784 37.026 62.4874 37.026C64.7369 37.026 66.7052 37.4874 68.3923 38.4103C70.0794 39.3187 71.3916 40.703 72.3288 42.5631C73.2661 44.4088 73.7348 46.7448 73.7348 49.571V70.6814H68.6302V49.9171C68.6302 47.3072 67.9525 45.274 66.597 43.8176C65.2416 42.3468 63.3815 41.6114 61.0166 41.6114C59.3872 41.6114 57.9308 41.9647 56.6475 42.6712C55.3786 43.3778 54.3764 44.4088 53.641 45.7643C52.9056 47.1197 52.5379 48.7635 52.5379 50.6958Z" fill="#F6F6FD"/>
<path d="M96.5592 71.3735C93.4446 71.3735 90.7625 70.6381 88.5131 69.1673C86.2636 67.6965 84.5332 65.6706 83.322 63.0894C82.1107 60.5083 81.5051 57.5595 81.5051 54.243C81.5051 50.8688 82.1252 47.8912 83.3653 45.31C84.6198 42.7145 86.3645 40.6886 88.5996 39.2322C90.849 37.7614 93.4734 37.026 96.4727 37.026C98.8087 37.026 100.914 37.4586 102.788 38.3237C104.663 39.1889 106.199 40.4002 107.396 41.9575C108.592 43.5148 109.335 45.3317 109.623 47.4081H104.519C104.13 45.894 103.264 44.553 101.923 43.385C100.597 42.2026 98.8087 41.6114 96.5592 41.6114C94.5693 41.6114 92.8245 42.1305 91.3249 43.1687C89.8397 44.1925 88.6789 45.6417 87.8425 47.5162C87.0206 49.3764 86.6097 51.5609 86.6097 54.07C86.6097 56.6367 87.0134 58.8717 87.8209 60.7751C88.6428 62.6785 89.7964 64.1565 91.2816 65.2091C92.7813 66.2618 94.5405 66.7881 96.5592 66.7881C97.8858 66.7881 99.0899 66.5574 100.171 66.0959C101.253 65.6345 102.168 64.9712 102.918 64.106C103.668 63.2408 104.202 62.2026 104.519 60.9914H109.623C109.335 62.9525 108.621 64.7189 107.482 66.2906C106.357 67.8479 104.865 69.088 103.005 70.0109C101.159 70.9193 99.0106 71.3735 96.5592 71.3735Z" fill="#F6F6FD"/>
<path d="M122.19 50.6958V70.6814H117.086V26.3843H122.19V42.6496H122.623C123.401 40.9337 124.569 39.571 126.127 38.5617C127.698 37.5379 129.789 37.026 132.399 37.026C134.663 37.026 136.646 37.4802 138.347 38.3886C140.049 39.2826 141.368 40.6597 142.305 42.5198C143.257 44.3656 143.733 46.716 143.733 49.571V70.6814H138.628V49.9171C138.628 47.2783 137.944 45.2379 136.574 43.796C135.218 42.3396 133.336 41.6114 130.928 41.6114C129.256 41.6114 127.756 41.9647 126.429 42.6712C125.117 43.3778 124.079 44.4088 123.315 45.7643C122.565 47.1197 122.19 48.7635 122.19 50.6958Z" fill="#F6F6FD"/>
<path d="M162.848 71.46C160.743 71.46 158.832 71.0635 157.116 70.2704C155.4 69.4629 154.038 68.3021 153.028 66.7881C152.019 65.2596 151.514 63.4139 151.514 61.2509C151.514 59.3475 151.889 57.8046 152.639 56.6222C153.389 55.4254 154.391 54.4881 155.645 53.8104C156.9 53.1327 158.284 52.628 159.798 52.2963C161.327 51.9503 162.862 51.6763 164.405 51.4744C166.424 51.2149 168.061 51.0202 169.315 50.8904C170.584 50.7462 171.507 50.5083 172.084 50.1767C172.675 49.845 172.971 49.2682 172.971 48.4463V48.2733C172.971 46.1392 172.387 44.4809 171.219 43.2985C170.065 42.1161 168.313 41.5249 165.963 41.5249C163.526 41.5249 161.615 42.0584 160.231 43.1255C158.847 44.1925 157.873 45.3317 157.311 46.5429L152.466 44.8126C153.331 42.7938 154.485 41.2221 155.927 40.0973C157.383 38.9582 158.969 38.1651 160.685 37.7181C162.415 37.2567 164.117 37.026 165.79 37.026C166.857 37.026 168.082 37.1557 169.467 37.4153C170.865 37.6604 172.214 38.1723 173.511 38.951C174.824 39.7296 175.912 40.9048 176.777 42.4766C177.643 44.0483 178.075 46.1536 178.075 48.7924V70.6814H172.971V66.1824H172.711C172.365 66.9034 171.788 67.6749 170.981 68.4968C170.173 69.3187 169.099 70.0181 167.758 70.5949C166.417 71.1716 164.78 71.46 162.848 71.46ZM163.627 66.8746C165.645 66.8746 167.347 66.478 168.731 65.685C170.13 64.8919 171.183 63.8681 171.889 62.6136C172.61 61.3591 172.971 60.0397 172.971 58.6554V53.9834C172.754 54.243 172.278 54.4809 171.543 54.6972C170.822 54.8991 169.986 55.0793 169.034 55.238C168.097 55.3821 167.181 55.5119 166.287 55.6273C165.408 55.7282 164.694 55.8147 164.146 55.8868C162.819 56.0599 161.579 56.3411 160.426 56.7304C159.286 57.1053 158.364 57.6749 157.657 58.4391C156.965 59.1889 156.619 60.2127 156.619 61.5105C156.619 63.2841 157.275 64.6251 158.587 65.5336C159.914 66.4276 161.594 66.8746 163.627 66.8746Z" fill="#F6F6FD"/>
<path d="M187.392 70.6814V37.4586H192.497V70.6814H187.392ZM189.988 31.9214C188.993 31.9214 188.135 31.5826 187.414 30.9048C186.707 30.2271 186.354 29.4124 186.354 28.4607C186.354 27.509 186.707 26.6943 187.414 26.0166C188.135 25.3389 188.993 25 189.988 25C190.983 25 191.833 25.3389 192.54 26.0166C193.261 26.6943 193.621 27.509 193.621 28.4607C193.621 29.4124 193.261 30.2271 192.54 30.9048C191.833 31.5826 190.983 31.9214 189.988 31.9214Z" fill="#F6F6FD"/>
<path d="M206.95 50.6958V70.6814H201.846V37.4586H206.777V42.6496H207.21C207.989 40.9625 209.171 39.6071 210.757 38.5833C212.343 37.5451 214.391 37.026 216.9 37.026C219.149 37.026 221.118 37.4874 222.805 38.4103C224.492 39.3187 225.804 40.703 226.741 42.5631C227.679 44.4088 228.147 46.7448 228.147 49.571V70.6814H223.043V49.9171C223.043 47.3072 222.365 45.274 221.01 43.8176C219.654 42.3468 217.794 41.6114 215.429 41.6114C213.8 41.6114 212.343 41.9647 211.06 42.6712C209.791 43.3778 208.789 44.4088 208.054 45.7643C207.318 47.1197 206.95 48.7635 206.95 50.6958Z" fill="#F6F6FD"/>
<path d="M261.008 44.8991L256.422 46.1968C256.134 45.4326 255.709 44.69 255.146 43.969C254.598 43.2336 253.848 42.628 252.897 42.1521C251.945 41.6763 250.727 41.4384 249.241 41.4384C247.208 41.4384 245.514 41.907 244.159 42.8443C242.817 43.7671 242.147 44.9423 242.147 46.3699C242.147 47.6388 242.608 48.641 243.531 49.3764C244.454 50.1118 245.896 50.7246 247.857 51.2149L252.789 52.4261C255.759 53.1471 257.972 54.2502 259.429 55.7354C260.885 57.2062 261.613 59.1024 261.613 61.424C261.613 63.3274 261.065 65.0289 259.97 66.5285C258.888 68.0282 257.374 69.2106 255.427 70.0757C253.481 70.9409 251.217 71.3735 248.636 71.3735C245.247 71.3735 242.443 70.6381 240.222 69.1673C238.001 67.6965 236.595 65.548 236.004 62.7217L240.849 61.5105C241.311 63.2985 242.183 64.6395 243.466 65.5336C244.764 66.4276 246.458 66.8746 248.549 66.8746C250.929 66.8746 252.817 66.3699 254.216 65.3605C255.629 64.3367 256.336 63.1111 256.336 61.6835C256.336 60.53 255.932 59.5638 255.125 58.7852C254.317 57.9921 253.077 57.4009 251.404 57.0116L245.867 55.7138C242.825 54.9928 240.59 53.8753 239.162 52.3612C237.749 50.8328 237.042 48.9222 237.042 46.6294C237.042 44.7549 237.569 43.0966 238.621 41.6547C239.688 40.2127 241.138 39.0808 242.969 38.2588C244.815 37.4369 246.905 37.026 249.241 37.026C252.529 37.026 255.11 37.7469 256.985 39.1889C258.874 40.6309 260.215 42.5343 261.008 44.8991Z" fill="#F6F6FD"/>
<path d="M282.794 71.3735C279.679 71.3735 276.997 70.6381 274.748 69.1673C272.498 67.6965 270.768 65.6706 269.557 63.0894C268.346 60.5083 267.74 57.5595 267.74 54.243C267.74 50.8688 268.36 47.8912 269.6 45.31C270.855 42.7145 272.599 40.6886 274.834 39.2322C277.084 37.7614 279.708 37.026 282.708 37.026C285.044 37.026 287.149 37.4586 289.023 38.3237C290.898 39.1889 292.434 40.4002 293.63 41.9575C294.827 43.5148 295.57 45.3317 295.858 47.4081H290.754C290.364 45.894 289.499 44.553 288.158 43.385C286.832 42.2026 285.044 41.6114 282.794 41.6114C280.804 41.6114 279.059 42.1305 277.56 43.1687C276.075 44.1925 274.914 45.6417 274.077 47.5162C273.256 49.3764 272.845 51.5609 272.845 54.07C272.845 56.6367 273.248 58.8717 274.056 60.7751C274.878 62.6785 276.031 64.1565 277.516 65.2091C279.016 66.2618 280.775 66.7881 282.794 66.7881C284.121 66.7881 285.325 66.5574 286.406 66.0959C287.488 65.6345 288.403 64.9712 289.153 64.106C289.903 63.2408 290.436 62.2026 290.754 60.9914H295.858C295.57 62.9525 294.856 64.7189 293.717 66.2906C292.592 67.8479 291.1 69.088 289.24 70.0109C287.394 70.9193 285.245 71.3735 282.794 71.3735Z" fill="#F6F6FD"/>
<path d="M316.817 71.3735C313.818 71.3735 311.186 70.6597 308.922 69.2322C306.673 67.8047 304.914 65.8075 303.645 63.2408C302.39 60.6742 301.763 57.6749 301.763 54.243C301.763 50.7823 302.39 47.7614 303.645 45.1803C304.914 42.5992 306.673 40.5948 308.922 39.1673C311.186 37.7397 313.818 37.026 316.817 37.026C319.816 37.026 322.441 37.7397 324.69 39.1673C326.954 40.5948 328.713 42.5992 329.968 45.1803C331.237 47.7614 331.871 50.7823 331.871 54.243C331.871 57.6749 331.237 60.6742 329.968 63.2408C328.713 65.8075 326.954 67.8047 324.69 69.2322C322.441 70.6597 319.816 71.3735 316.817 71.3735ZM316.817 66.7881C319.095 66.7881 320.97 66.2041 322.441 65.0361C323.912 63.8681 325 62.3324 325.707 60.429C326.413 58.5256 326.767 56.4636 326.767 54.243C326.767 52.0224 326.413 49.9532 325.707 48.0353C325 46.1175 323.912 44.5674 322.441 43.385C320.97 42.2026 319.095 41.6114 316.817 41.6114C314.539 41.6114 312.664 42.2026 311.194 43.385C309.723 44.5674 308.634 46.1175 307.927 48.0353C307.221 49.9532 306.868 52.0224 306.868 54.243C306.868 56.4636 307.221 58.5256 307.927 60.429C308.634 62.3324 309.723 63.8681 311.194 65.0361C312.664 66.2041 314.539 66.7881 316.817 66.7881Z" fill="#F6F6FD"/>
<path d="M339.663 70.6814V37.4586H344.595V42.4766H344.941C345.546 40.8327 346.642 39.4989 348.229 38.4751C349.815 37.4513 351.603 36.9394 353.593 36.9394C353.968 36.9394 354.436 36.9467 354.999 36.9611C355.561 36.9755 355.986 36.9971 356.275 37.026V42.217C356.102 42.1738 355.705 42.1089 355.085 42.0224C354.479 41.9214 353.838 41.871 353.16 41.871C351.545 41.871 350.103 42.2098 348.834 42.8875C347.58 43.5508 346.585 44.4737 345.849 45.6561C345.128 46.8241 344.768 48.1579 344.768 49.6576V70.6814H339.663Z" fill="#F6F6FD"/>
<path d="M375.244 71.3735C372.043 71.3735 369.281 70.667 366.96 69.2538C364.652 67.8263 362.872 65.8364 361.617 63.2841C360.377 60.7174 359.757 57.7325 359.757 54.3295C359.757 50.9265 360.377 47.9272 361.617 45.3317C362.872 42.7217 364.616 40.6886 366.851 39.2322C369.101 37.7614 371.725 37.026 374.725 37.026C376.455 37.026 378.164 37.3144 379.851 37.8911C381.538 38.4679 383.074 39.4052 384.458 40.703C385.842 41.9863 386.945 43.6878 387.767 45.8075C388.589 47.9272 389 50.5372 389 53.6374V55.8003H363.391V51.3879H383.809C383.809 49.5134 383.434 47.8407 382.684 46.3699C381.949 44.8991 380.896 43.7383 379.526 42.8875C378.171 42.0368 376.57 41.6114 374.725 41.6114C372.691 41.6114 370.932 42.1161 369.447 43.1255C367.976 44.1204 366.844 45.4182 366.051 47.0188C365.258 48.6193 364.862 50.3353 364.862 52.1666V55.1082C364.862 57.6172 365.294 59.7441 366.159 61.4889C367.039 63.2192 368.257 64.5386 369.815 65.447C371.372 66.3411 373.182 66.7881 375.244 66.7881C376.585 66.7881 377.796 66.6006 378.877 66.2257C379.973 65.8364 380.918 65.2596 381.711 64.4954C382.504 63.7167 383.117 62.7506 383.549 61.597L388.481 62.9813C387.962 64.654 387.089 66.1248 385.864 67.3937C384.638 68.6482 383.124 69.6287 381.322 70.3353C379.519 71.0274 377.493 71.3735 375.244 71.3735Z" fill="#F6F6FD"/>
</svg>
