<svg width="302" height="88" viewBox="0 0 302 88" fill="none" xmlns="http://www.w3.org/2000/svg">
<path d="M15.2491 63.395C10.7685 63.395 7.09744 62.3478 4.23587 60.2532C1.41196 58.1212 0 55.0916 0 51.1644C0 50.3414 0.0941304 49.3316 0.282392 48.1348C0.77187 45.4418 1.46843 42.2064 2.37209 38.4287C4.93245 28.1429 11.5404 23 22.196 23C25.0952 23 27.6932 23.4862 29.99 24.4587C32.2868 25.3938 34.094 26.8151 35.4119 28.7226C36.7296 30.5928 37.3886 32.837 37.3886 35.4552C37.3886 36.2406 37.2946 37.2318 37.1063 38.4287C36.5414 41.7575 35.8637 44.9928 35.0731 48.1348C33.7551 53.259 31.4773 57.0928 28.2392 59.636C25.001 62.142 20.6711 63.395 15.2491 63.395ZM16.0398 55.316C18.1484 55.316 19.9368 54.699 21.4054 53.4646C22.9113 52.2304 23.9844 50.3414 24.6245 47.798C25.4906 44.2822 26.1494 41.2152 26.6014 38.597C26.752 37.8115 26.8273 37.0074 26.8273 36.1845C26.8273 32.7808 25.0386 31.079 21.4617 31.079C19.3532 31.079 17.5459 31.6962 16.0398 32.9305C14.5714 34.1648 13.5171 36.0536 12.8771 38.597C12.1993 41.103 11.5216 44.17 10.8438 47.798C10.6932 48.5462 10.6179 49.3316 10.6179 50.1544C10.6179 53.5956 12.4252 55.316 16.0398 55.316Z" fill="#F8F8F8"/>
<path d="M43.1196 62.834C42.7052 62.834 42.3853 62.7032 42.1594 62.4414C41.9712 62.142 41.9146 61.8054 41.9899 61.4314L49.7839 24.9636C49.8592 24.5522 50.0664 24.2156 50.4052 23.9538C50.7441 23.692 51.1018 23.561 51.4783 23.561H66.5014C70.6809 23.561 74.0319 24.4213 76.5546 26.1418C79.1149 27.8624 80.3952 30.3497 80.3952 33.6037C80.3952 34.5388 80.2823 35.5113 80.0564 36.5211C79.1149 40.8225 77.2135 44.0018 74.352 46.0588C71.5281 48.116 67.6498 49.1446 62.7173 49.1446H55.0929L52.4949 61.4314C52.4196 61.8428 52.2126 62.1794 51.8735 62.4414C51.5347 62.7032 51.1771 62.834 50.8004 62.834H43.1196ZM63.1128 41.4022C64.6942 41.4022 66.0685 40.9721 67.2357 40.1118C68.4406 39.2515 69.2313 38.0172 69.6078 36.4089C69.7207 35.7731 69.7773 35.212 69.7773 34.7258C69.7773 33.6411 69.4572 32.8182 68.8171 32.2572C68.1771 31.6588 67.0851 31.3595 65.5415 31.3595H58.764L56.6178 41.4022H63.1128Z" fill="#F8F8F8"/>
<path d="M93.1205 62.834C92.7063 62.834 92.3862 62.7032 92.1603 62.4414C91.9344 62.142 91.8591 61.8054 91.9344 61.4314L98.2036 32.3694H88.1504C87.7362 32.3694 87.4161 32.2385 87.1902 31.9767C87.002 31.6775 86.9456 31.3408 87.0209 30.9668L88.3199 24.9636C88.3952 24.5522 88.6022 24.2156 88.941 23.9538C89.2799 23.692 89.6376 23.561 90.0141 23.561H120.4C120.814 23.561 121.134 23.692 121.36 23.9538C121.51 24.1782 121.586 24.4026 121.586 24.627C121.586 24.7392 121.567 24.8514 121.529 24.9636L120.23 30.9668C120.155 31.3782 119.948 31.7149 119.609 31.9767C119.308 32.2385 118.95 32.3694 118.536 32.3694H108.539L102.27 61.4314C102.195 61.8428 101.988 62.1794 101.649 62.4414C101.31 62.7032 100.952 62.834 100.576 62.834H93.1205Z" fill="#F8F8F8"/>
<path d="M123.026 62.834C122.612 62.834 122.292 62.7032 122.066 62.4414C121.84 62.142 121.765 61.8054 121.84 61.4314L129.691 24.9636C129.766 24.5522 129.973 24.2156 130.312 23.9538C130.651 23.692 131.008 23.561 131.385 23.561H139.01C139.424 23.561 139.744 23.692 139.97 23.9538C140.12 24.1782 140.196 24.4026 140.196 24.627C140.196 24.7392 140.177 24.8514 140.139 24.9636L132.345 61.4314C132.27 61.8428 132.063 62.1794 131.724 62.4414C131.385 62.7032 131.027 62.834 130.651 62.834H123.026Z" fill="#F8F8F8"/>
<path d="M144.532 62.834C144.118 62.834 143.798 62.7032 143.572 62.4414C143.346 62.1794 143.27 61.8428 143.346 61.4314L151.14 24.9636C151.215 24.5522 151.422 24.2156 151.761 23.9538C152.1 23.692 152.476 23.561 152.891 23.561H158.99C159.894 23.561 160.477 23.9725 160.741 24.7953L166.897 42.4682L180.621 24.7953C180.81 24.4961 181.073 24.2156 181.412 23.9538C181.789 23.692 182.24 23.561 182.768 23.561H188.924C189.338 23.561 189.658 23.692 189.884 23.9538C190.034 24.1782 190.11 24.4026 190.11 24.627C190.11 24.7392 190.091 24.8514 190.053 24.9636L182.259 61.4314C182.184 61.8428 181.977 62.1794 181.638 62.4414C181.299 62.7032 180.941 62.834 180.565 62.834H173.731C173.317 62.834 172.997 62.7032 172.771 62.4414C172.583 62.142 172.526 61.8054 172.601 61.4314L177.007 40.729L168.366 52.1182C167.989 52.5296 167.631 52.8474 167.293 53.0718C166.954 53.2964 166.558 53.4086 166.106 53.4086H163.17C162.379 53.4086 161.833 52.9784 161.532 52.1182L157.522 40.224L153.003 61.4314C152.928 61.8428 152.721 62.1794 152.382 62.4414C152.043 62.7032 151.686 62.834 151.309 62.834H144.532Z" fill="#F8F8F8"/>
<path d="M194.384 62.834C193.97 62.834 193.65 62.7032 193.424 62.4414C193.198 62.142 193.123 61.8054 193.198 61.4314L201.048 24.9636C201.124 24.5522 201.331 24.2156 201.67 23.9538C202.008 23.692 202.366 23.561 202.743 23.561H210.367C210.782 23.561 211.102 23.692 211.328 23.9538C211.479 24.1782 211.553 24.4026 211.553 24.627C211.553 24.7392 211.535 24.8514 211.497 24.9636L203.703 61.4314C203.629 61.8428 203.421 62.1794 203.081 62.4414C202.743 62.7032 202.384 62.834 202.008 62.834H194.384Z" fill="#F8F8F8"/>
<path d="M229.84 63.395C226.526 63.395 223.683 62.9462 221.312 62.0486C218.976 61.151 217.206 59.954 216.002 58.458C214.835 56.9618 214.251 55.2974 214.251 53.4646C214.251 53.1654 214.289 52.7166 214.364 52.1182C214.44 51.7814 214.591 51.501 214.817 51.2766C215.08 51.0522 215.38 50.94 215.721 50.94H222.948C223.401 50.94 223.74 51.0148 223.965 51.1644C224.229 51.314 224.493 51.5758 224.756 51.9498C225.02 52.9222 225.622 53.7264 226.564 54.3622C227.543 54.9982 228.88 55.316 230.573 55.316C232.719 55.316 234.453 54.9794 235.769 54.3062C237.088 53.633 237.879 52.7166 238.141 51.557C238.179 51.4074 238.197 51.183 238.197 50.8838C238.197 49.9488 237.616 49.2194 236.448 48.6958C235.28 48.1348 233.134 47.4802 230.009 46.7322C226.357 45.9466 223.589 44.7684 221.706 43.1976C219.824 41.5892 218.884 39.4947 218.884 36.9139C218.884 36.0162 218.996 35.0998 219.222 34.1648C219.975 30.6863 221.839 27.9559 224.813 25.9735C227.825 23.9912 231.702 23 236.448 23C239.309 23 241.852 23.5049 244.072 24.5148C246.293 25.5247 248.006 26.8151 249.212 28.386C250.455 29.9195 251.075 31.453 251.075 32.9866C251.075 33.4354 251.057 33.7533 251.018 33.9403C250.944 34.277 250.775 34.5575 250.511 34.7819C250.286 35.0063 250.002 35.1185 249.663 35.1185H242.095C241.268 35.1185 240.702 34.8006 240.402 34.1648C240.364 33.3045 239.911 32.5751 239.045 31.9767C238.179 31.3782 237.05 31.079 235.657 31.079C234 31.079 232.627 31.3782 231.533 31.9767C230.48 32.5751 229.82 33.4541 229.558 34.6136C229.52 34.8006 229.5 35.0437 229.5 35.3429C229.5 36.2406 230.027 36.9887 231.082 37.5871C232.174 38.1482 234.076 38.7279 236.786 39.3263C241.004 40.1492 244.072 41.3274 245.993 42.8609C247.95 44.3944 248.929 46.4328 248.929 48.9762C248.929 49.8366 248.816 50.7716 248.59 51.7814C247.763 55.5966 245.747 58.4954 242.546 60.4776C239.385 62.4226 235.149 63.395 229.84 63.395Z" fill="#F8F8F8"/>
<path d="M256.422 62.834C256.007 62.834 255.687 62.7032 255.462 62.4414C255.236 62.1794 255.16 61.8428 255.236 61.4314L263.03 24.9636C263.104 24.5522 263.312 24.2156 263.652 23.9538C263.99 23.692 264.367 23.561 264.782 23.561H270.88C271.784 23.561 272.368 23.9725 272.632 24.7953L278.788 42.4682L292.511 24.7953C292.7 24.4961 292.964 24.2156 293.302 23.9538C293.679 23.692 294.13 23.561 294.657 23.561H300.814C301.229 23.561 301.549 23.692 301.775 23.9538C301.926 24.1782 302 24.4026 302 24.627C302 24.7392 301.982 24.8514 301.944 24.9636L294.15 61.4314C294.074 61.8428 293.866 62.1794 293.528 62.4414C293.19 62.7032 292.831 62.834 292.455 62.834H285.622C285.207 62.834 284.887 62.7032 284.661 62.4414C284.472 62.142 284.416 61.8054 284.492 61.4314L288.897 40.729L280.256 52.1182C279.88 52.5296 279.521 52.8474 279.183 53.0718C278.845 53.2964 278.448 53.4086 277.997 53.4086H275.06C274.268 53.4086 273.723 52.9784 273.423 52.1182L269.412 40.224L264.894 61.4314C264.818 61.8428 264.61 62.1794 264.272 62.4414C263.934 62.7032 263.576 62.834 263.199 62.834H256.422Z" fill="#F8F8F8"/>
</svg>
