<svg width="185" height="88" viewBox="0 0 185 88" fill="none" xmlns="http://www.w3.org/2000/svg">
<path d="M163.323 73.0001C162.467 72.3469 162.387 72.072 162.75 71.0325C163.905 67.7226 165.036 64.4087 166.227 61.1147C166.51 60.33 166.482 59.6609 166.179 58.8962C162.546 49.6715 158.938 40.4348 155.325 31.2021C155.226 30.9472 155.126 30.6883 155.082 30.4215C154.959 29.6527 155.329 29.115 156.102 29.0871C157.596 29.0393 159.093 29.0473 160.591 29.0792C161.244 29.0951 161.483 29.6288 161.678 30.1626C162.77 33.0981 163.873 36.0256 164.96 38.9611C166.549 43.2468 168.131 47.5405 169.716 51.8263C169.8 52.0493 169.895 52.2684 170.062 52.6747C170.596 51.1332 171.078 49.767 171.548 48.3929C173.583 42.4741 175.619 36.5513 177.654 30.6286C178.172 29.127 178.271 29.0553 179.829 29.0553C180.852 29.0553 181.88 28.9916 182.892 29.0832C183.418 29.131 183.915 29.4536 184.425 29.6527V30.7003C184.346 30.8516 184.25 30.995 184.19 31.1543C179.076 44.6289 173.966 58.1035 168.836 71.5741C168.641 72.084 168.254 72.5221 167.955 72.9961H163.315L163.323 73.0001Z" fill="white"/>
<path d="M17.9424 72.9908C17.0662 72.8912 16.1899 72.7757 15.3136 72.6961C11.8882 72.3854 8.47875 71.9951 5.2047 70.8718C4.47979 70.6249 3.76284 70.3023 3.12556 69.8801C1.88285 69.0596 1.85895 68.0518 3.15742 67.3429C4.32047 66.7056 5.58707 66.1161 6.87757 65.8771C10.0282 65.2916 13.2026 64.742 16.393 64.5109C19.8862 64.256 23.4111 64.252 26.9162 64.3556C31.4967 64.495 36.0652 64.9053 40.4466 66.4148C41.2312 66.6857 42.0079 67.0919 42.6731 67.5858C43.5454 68.2311 43.5334 69.0596 42.6452 69.6729C41.9203 70.1748 41.1038 70.593 40.2673 70.8878C37.5748 71.8318 34.7588 72.2221 31.9388 72.5248C30.5288 72.6762 29.1109 72.7439 27.6929 72.8554C27.5854 72.8634 27.4818 72.943 27.3743 72.9908H17.9424Z" fill="white"/>
<path d="M5.57632 38.4106C4.77573 38.1915 3.98311 38.0601 3.26218 37.7614C0.92414 36.7975 -0.222973 34.5032 0.0359239 31.7868C0.593548 25.9158 3.89947 21.897 8.69504 18.9176C13.403 15.9941 18.5929 14.7474 24.1094 15.0422C33.2624 15.5321 41.4595 21.5186 44.0444 29.9347C46.1156 36.67 44.6857 42.8397 40.3283 48.3045C36.4249 53.1996 31.1952 56.147 25.3083 58.031C21.146 59.3653 16.8722 60.0146 12.4948 59.8274C10.0254 59.7198 7.66343 59.1303 5.51259 57.8757C1.57736 55.5775 0.223126 52.0883 0.800666 47.7428C1.25473 44.3254 2.7882 41.4178 5.13022 38.9125C5.28158 38.7531 5.42098 38.5859 5.57632 38.4106ZM30.8009 34.3718C30.7929 35.8495 31.2191 37.1719 32.2148 38.2792C33.6726 39.9042 35.8753 40.0755 37.58 38.7133C39.9021 36.8572 40.1052 32.7826 37.9942 30.5282C36.405 28.8354 33.9833 28.7916 32.3503 30.4525C31.2828 31.5359 30.8168 32.8702 30.8048 34.3758L30.8009 34.3718ZM18.3818 33.858C18.3698 35.8455 18.7761 37.0325 19.6484 38.1119C21.0703 39.8684 23.3924 40.1193 25.1569 38.7053C27.6622 36.6979 27.6463 32.1094 25.125 30.1139C23.5478 28.8673 21.5602 28.923 20.0785 30.2932C18.8956 31.3885 18.4057 32.7905 18.3818 33.858Z" fill="white"/>
<path d="M59.8956 41.8695C59.8956 35.668 59.8956 29.4664 59.8956 23.2688C59.8956 21.8906 60.3457 21.4445 61.7358 21.4445C65.6033 21.4445 69.4708 21.3609 73.3344 21.4645C78.8947 21.6118 83.1924 24.0016 85.6499 29.0999C88.6372 35.3015 86.9364 43.5822 80.6353 47.394C78.5681 48.6447 76.3217 49.3377 73.9079 49.3855C71.6376 49.4293 69.3673 49.4293 67.097 49.3935C66.3959 49.3815 66.1609 49.5528 66.1689 50.2897C66.2087 53.727 66.1888 57.1644 66.1848 60.5978C66.1848 61.9281 65.7587 62.3543 64.4482 62.3543C63.4764 62.3543 62.5005 62.3622 61.5287 62.3543C60.4015 62.3463 59.8956 61.8365 59.8956 60.6973C59.8956 54.4201 59.8956 48.1468 59.8956 41.8695ZM66.2287 43.0206C66.3442 43.0525 66.4119 43.0883 66.4796 43.0883C68.8734 43.0883 71.2672 43.1521 73.657 43.0724C75.4733 43.0087 77.0984 42.3555 78.4088 41.0211C80.0577 39.3483 80.6034 37.301 80.5397 35.0187C80.4202 30.7808 77.4289 27.8333 73.195 27.8094C71.1517 27.7975 69.1084 27.8094 67.0611 27.8094C66.7942 27.8094 66.5314 27.8094 66.2247 27.8094V43.0206H66.2287Z" fill="white"/>
<path d="M138.107 52.7647C139.031 50.2196 139.892 47.8656 140.736 45.5036C142.572 40.3775 144.408 35.2513 146.229 30.1212C146.487 29.3923 146.918 29.0258 147.722 29.0497C148.869 29.0816 150.016 29.0577 151.164 29.0577C152.896 29.0577 153.259 29.5795 152.641 31.2165C150.96 35.6576 149.272 40.0987 147.591 44.5358C145.504 50.0443 143.417 55.5568 141.325 61.0654C140.899 62.1846 140.652 62.3519 139.438 62.3519C138.537 62.3519 137.641 62.3519 136.741 62.3519C135.682 62.3519 135.375 62.1408 135.004 61.1729C133.264 56.6203 131.527 52.0677 129.791 47.5151C127.711 42.0543 125.632 36.5936 123.557 31.1329C122.996 29.6512 123.39 29.0577 124.951 29.0577C126.098 29.0577 127.245 29.0577 128.393 29.0577C129.4 29.0577 129.695 29.2608 130.042 30.2247C131.205 33.5028 132.356 36.7888 133.527 40.0668C135.016 44.2331 136.526 48.3913 138.103 52.7607L138.107 52.7647Z" fill="white"/>
<path d="M96.2118 34.1785C98.2591 31.474 100.884 29.837 104.154 29.3072C105.496 29.0882 106.882 29.1001 108.249 29.0722C109.001 29.0563 109.515 29.6219 109.539 30.4384C109.575 31.5815 109.571 32.7287 109.539 33.8758C109.515 34.8118 108.962 35.2698 107.998 35.3336C106.512 35.4331 104.982 35.3973 103.553 35.7518C99.4859 36.7595 97.0642 39.8543 97.0005 44.1161C96.9208 49.5171 96.9726 54.9221 96.9686 60.3231C96.9686 60.5462 96.9806 60.7732 96.9606 60.9962C96.889 61.8088 96.3672 62.3266 95.5467 62.3465C94.4991 62.3704 93.4516 62.3744 92.4041 62.3465C91.484 62.3226 90.9941 61.8048 90.9941 60.8688C90.9901 50.7598 90.9901 40.6509 90.9941 30.542C90.9941 29.5661 91.4999 29.0722 92.4678 29.0603C93.2166 29.0483 93.9654 29.0563 94.7142 29.0603C95.8135 29.0683 96.184 29.4227 96.2039 30.542C96.2198 31.5138 96.2039 32.4857 96.2039 33.4536C96.2039 33.6965 96.2039 33.9395 96.2039 34.1825L96.2118 34.1785Z" fill="white"/>
<path d="M113.303 45.7291C113.303 40.7503 113.303 35.7755 113.303 30.7968C113.303 29.4545 113.701 29.0562 115.028 29.0522C116 29.0522 116.971 29.0442 117.943 29.0522C118.828 29.0641 119.329 29.5461 119.397 30.4144C119.409 30.5857 119.397 30.7609 119.397 30.9362C119.397 40.7424 119.397 50.5486 119.397 60.3548C119.397 61.9401 118.991 62.3464 117.418 62.3464C116.669 62.3464 115.92 62.3464 115.175 62.3464C113.693 62.3464 113.299 61.96 113.299 60.5102C113.299 55.5832 113.299 50.6562 113.299 45.7252L113.303 45.7291Z" fill="white"/>
</svg>
