<svg width="187" height="88" viewBox="0 0 187 88" fill="none" xmlns="http://www.w3.org/2000/svg">
<path d="M92.4441 42.3616C90.5213 41.5892 88.173 40.9454 85.3991 40.4289H85.3401C82.6452 39.9537 80.6234 39.5174 79.2759 39.12C77.9285 38.725 76.8687 38.1896 76.0953 37.5151C75.322 36.8418 74.9365 35.9102 74.9365 34.7204C74.9365 32.9764 75.5908 31.6486 76.8981 30.7371C78.2067 29.8256 79.9302 29.3692 82.0699 29.3692C84.4088 29.3692 86.2997 29.9636 87.7474 31.1534C89.0465 32.2217 89.8423 33.579 90.1346 35.2228C90.1924 35.5506 90.4694 35.7923 90.8019 35.7958L97.38 35.8454C97.7832 35.8489 98.1062 35.5022 98.0662 35.1001C97.8457 32.9009 97.1207 30.901 95.8923 29.1016C94.5248 27.1005 92.6421 25.544 90.2443 24.4332C87.8464 23.3235 85.122 22.7681 82.0699 22.7681C79.1769 22.7681 76.5716 23.3035 74.2527 24.3742C71.935 25.4449 70.1313 26.9307 68.8428 28.8339C67.5543 30.7371 66.9106 32.8773 66.9106 35.2558C66.9106 37.8724 67.4847 39.9737 68.6342 41.5586C69.7836 43.1446 71.289 44.3438 73.1516 45.1563C75.0143 45.9687 77.253 46.6126 79.8689 47.089L80.166 47.1479C82.9387 47.6632 85.0112 48.1196 86.3787 48.5158C87.7462 48.9132 88.8249 49.4674 89.6183 50.1808C90.4105 50.8942 90.8066 51.8659 90.8066 53.0946C90.8066 54.8398 90.0934 56.2065 88.6669 57.197C87.2405 58.1887 85.3967 58.684 83.138 58.684C80.4418 58.684 78.2633 58 76.5987 56.6322C75.0838 55.3881 74.1926 53.7903 73.925 51.8399C73.879 51.5027 73.5984 51.2468 73.2589 51.2421L66.689 51.143C66.2894 51.1371 65.9663 51.4744 65.997 51.8729C66.1833 54.2714 66.933 56.4329 68.2463 58.3573C69.6928 60.4787 71.6839 62.1437 74.2209 63.3524C76.7567 64.5622 79.6697 65.166 82.9599 65.166C86.0109 65.166 88.7459 64.6118 91.1638 63.501C93.5805 62.3913 95.4738 60.8549 96.8413 58.8927C98.2088 56.9305 98.8925 54.7207 98.8925 52.2621C98.8925 49.6455 98.2972 47.5347 97.1089 45.9286C95.9206 44.3226 94.3645 43.134 92.4429 42.3604L92.4441 42.3616Z" fill="white"/>
<path d="M132.841 58.388H131.814C131.22 58.388 130.753 58.23 130.417 57.9116C130.08 57.5956 129.911 57.0791 129.911 56.3657V45.0077C129.911 41.4005 128.762 38.6554 126.464 36.7722C124.165 34.8902 121.459 33.9304 117.218 33.9304C113.215 33.9304 110.087 34.8006 107.63 36.5045C105.391 38.0587 104.041 40.1872 103.579 42.8934C103.507 43.3144 103.825 43.7 104.251 43.7H110.292C110.595 43.7 110.866 43.5007 110.947 43.2082C111.222 42.2071 111.831 41.3899 112.772 40.7567C113.861 40.0232 115.155 39.6565 116.86 39.6565C120.075 39.6565 122.361 41.6387 122.361 44.5914V45.5147C122.361 45.8921 122.055 46.1975 121.678 46.1975H116.206C111.767 46.1975 108.398 47.0701 106.1 48.8141C103.801 50.5593 102.652 53.0368 102.652 56.2466C102.652 59.0224 103.702 61.2027 105.803 62.7875C107.379 63.9762 109.263 64.6625 111.202 64.9632C112.684 65.1931 114.206 65.2768 115.692 65.0386C117.248 64.7898 118.512 64.1483 119.776 63.2333C120.913 62.4126 121.861 61.3607 122.726 60.0778C123.148 59.3526 124.255 59.6438 124.255 60.4822V61.4904C124.254 63.3229 125.738 64.8087 127.57 64.8087H132.841C133.218 64.8087 133.523 64.5033 133.523 64.1259V59.0696C133.523 58.6922 133.218 58.3868 132.841 58.3868V58.388ZM122.362 52.2633C122.362 53.7302 122.054 55.0084 121.44 56.098C120.153 58.3833 117.849 59.5766 115.257 59.5766C113.75 59.5766 112.542 59.2205 111.63 58.5071C110.718 57.7937 110.263 56.8421 110.263 55.6523C110.263 54.3056 110.769 53.2644 111.779 52.5309C112.789 51.7987 114.225 51.4308 116.089 51.4308H121.679C122.056 51.4308 122.362 51.7362 122.362 52.1135V52.2633Z" fill="white"/>
<path d="M154.866 23.2033H147.004C142.857 23.2033 139.494 26.5663 139.494 30.7147V34.0153C139.494 34.3926 139.189 34.698 138.812 34.698H134.323C133.945 34.698 133.64 35.0034 133.64 35.3808V40.4961C133.64 40.8734 133.945 41.1789 134.323 41.1789H138.812C139.189 41.1789 139.494 41.4843 139.494 41.8616V64.1271C139.494 64.5045 139.8 64.8099 140.177 64.8099H146.303C146.68 64.8099 146.985 64.5045 146.985 64.1271V41.8616C146.985 41.4843 147.29 41.1789 147.668 41.1789H154.806C155.183 41.1789 155.488 40.8734 155.488 40.4961V35.3808C155.488 35.0034 155.183 34.698 154.806 34.698H147.668C147.29 34.698 146.985 34.3926 146.985 34.0153V31.0496C146.985 30.2949 147.597 29.6841 148.35 29.6841H154.865C155.242 29.6841 155.547 29.3787 155.547 29.0013V23.886C155.547 23.5087 155.242 23.2033 154.865 23.2033H154.866Z" fill="white"/>
<path d="M184.876 40.8463C183.548 38.6271 181.734 36.922 179.436 35.7322C177.137 34.5435 174.481 33.9315 171.47 33.9315C168.46 33.9315 165.861 34.5931 163.564 35.8807C161.265 37.1696 159.481 38.9926 158.214 41.351C156.945 43.7106 156.311 46.4746 156.311 49.6466C156.311 52.8187 156.966 55.4648 158.273 57.8232C159.581 60.1815 161.454 61.9951 163.89 63.2639C166.327 64.5328 169.191 65.1672 172.481 65.1672C175.017 65.1672 177.286 64.7014 179.288 63.7698C181.288 62.8394 182.903 61.56 184.132 59.9351C185.183 58.5436 185.901 57.0201 186.285 55.3657C186.386 54.9365 186.062 54.5238 185.621 54.5238H179.467C179.172 54.5238 178.914 54.7148 178.82 54.9943C178.386 56.2761 177.621 57.289 176.523 58.0319C175.294 58.8644 173.768 59.2806 171.946 59.2806C170.439 59.2806 169.122 58.9634 167.993 58.329C166.863 57.6958 165.972 56.8031 165.318 55.6534C165.06 55.1994 164.849 54.7195 164.68 54.2254C164.5 53.6948 164.37 53.1477 164.28 52.5934C164.25 52.4 164.222 52.2043 164.198 52.0086C164.152 51.6053 164.471 51.2527 164.877 51.2527H186.098C186.442 51.2527 186.737 50.998 186.776 50.6548C186.805 50.4037 186.825 50.1478 186.836 49.8848C186.856 49.4096 186.866 48.9733 186.866 48.5771C186.866 45.6445 186.202 43.0679 184.874 40.8475L184.876 40.8463ZM178.499 46.0784H165.208C164.772 46.0784 164.443 45.6739 164.54 45.2482C164.752 44.3155 165.12 43.4736 165.643 42.7189C166.316 41.7484 167.189 41.0043 168.259 40.489C169.33 39.9737 170.498 39.7155 171.766 39.7155C173.827 39.7155 175.532 40.2709 176.879 41.3805C178.036 42.3333 178.797 43.621 179.166 45.2447C179.263 45.6716 178.936 46.0784 178.499 46.0784Z" fill="white"/>
<path d="M50.714 43.9959H44.8879C43.1479 43.9959 41.738 45.4063 41.738 47.1467V55.6051C41.738 57.3456 40.328 58.7559 38.588 58.7559H15.41C13.6699 58.7559 12.26 60.1662 12.26 61.9067V67.7343C12.26 69.4747 13.6699 70.8851 15.41 70.8851H39.9295C41.6696 70.8851 43.0595 69.4747 43.0595 67.7343V63.0588C43.0595 61.3183 44.4694 60.0837 46.2095 60.0837H50.7128C52.4528 60.0837 53.8628 58.6733 53.8628 56.9329V47.1102C53.8628 45.3697 52.4528 43.9959 50.7128 43.9959H50.714Z" fill="white"/>
<path d="M12.2588 32.4186C12.2588 30.6782 13.6687 29.2678 15.4088 29.2678H38.5727C40.3127 29.2678 41.7226 27.8575 41.7226 26.117V20.2895C41.7226 18.549 40.3127 17.1387 38.5727 17.1387H14.066C12.326 17.1387 10.9161 18.549 10.9161 20.2895V24.7798C10.9161 26.5203 9.50611 27.9306 7.76608 27.9306H3.28279C1.54276 27.9306 0.132812 29.3409 0.132812 31.0814V40.9147C0.132812 42.6552 1.54865 43.9948 3.28868 43.9948H9.11472C10.8548 43.9948 12.2647 42.5845 12.2647 40.844L12.2588 32.4186Z" fill="white"/>
<path d="M24.2563 37.87H29.8524C31.6762 37.87 33.1557 39.3511 33.1557 41.1741V46.7718C33.1557 48.596 31.675 50.0759 29.8524 50.0759H24.2563C22.4326 50.0759 20.9531 48.5948 20.9531 46.7718V41.1741C20.9531 39.3499 22.4337 37.87 24.2563 37.87Z" fill="white"/>
</svg>
