<svg width="449" height="88" viewBox="0 0 449 88" fill="none" xmlns="http://www.w3.org/2000/svg">
<path fill-rule="evenodd" clip-rule="evenodd" d="M65.2012 17.8576C68.7381 21.2829 71.4744 25.2253 73.4096 29.62C75.4116 34.1441 76.4794 38.9912 76.4794 43.9678C76.4794 48.944 75.4785 53.7912 73.4765 58.3798C71.541 62.7746 68.805 66.717 65.2677 70.1421C61.7308 73.5676 57.6599 76.2173 53.1218 78.0914C48.3837 80.0304 43.3785 81 38.2398 81C33.1012 81 28.0959 80.0304 23.3576 78.0914C18.8196 76.2821 14.7487 73.6321 11.2117 70.207C7.67465 66.7815 4.93846 62.8391 3.00312 58.4446C1.00104 53.8557 0 49.0088 0 44.0322C0 38.9912 1.00104 34.1441 3.00312 29.62C4.93846 25.2253 7.67465 21.2829 11.2117 17.8576C14.7487 14.4323 18.8196 11.7825 23.3576 9.90829C28.0291 7.96943 33.0343 7 38.2398 7C43.3785 7 48.3837 7.96943 53.1218 9.90829C57.6599 11.7825 61.664 14.4323 65.2012 17.8576ZM39.3076 30.2663C32.7006 30.2663 27.0948 34.5965 25.5599 40.5423H69.0718C68.6715 36.9231 67.6035 33.4332 65.8686 30.2663H39.3076ZM65.8686 57.7981C67.5369 54.6315 68.6715 51.1415 69.0718 47.5222H25.5599C27.1616 53.4036 32.7006 57.7981 39.3076 57.7981H65.8686ZM38.2398 13.9799C29.9645 13.9799 22.1564 17.0821 16.2836 22.7694C11.2784 27.6166 8.20855 33.8209 7.40771 40.5423H18.2189C18.8863 36.3414 20.9551 32.4637 24.1584 29.3615C28.2293 25.4192 33.5683 23.2864 39.3076 23.2864H60.7297L60.1959 22.7694C54.3233 17.0821 46.5151 13.9799 38.2398 13.9799ZM16.2836 65.2952C22.1564 70.9825 29.9645 74.0845 38.2398 74.0845C46.5151 74.0845 54.3233 70.9825 60.1959 65.2952L60.7297 64.778H39.3076C33.5683 64.778 28.2293 62.6453 24.1584 58.7029C21.0219 55.6008 18.953 51.7229 18.2189 47.5222H7.40771C8.20855 54.1791 11.2784 60.448 16.2836 65.2952Z" fill="white"/>
<path fill-rule="evenodd" clip-rule="evenodd" d="M142.682 44.0329C142.682 32.5291 152.359 23.1579 164.238 23.1579C176.117 23.1579 185.794 32.4645 185.794 44.0329C185.794 55.5369 176.117 64.9079 164.238 64.9079C152.359 64.9079 142.682 55.5369 142.682 44.0329ZM178.786 44.0329C178.786 36.2775 172.246 29.9439 164.238 29.9439C156.163 29.9439 149.689 36.2775 149.689 44.0329C149.689 51.7883 156.23 58.1221 164.238 58.1221C172.246 58.1221 178.786 51.7883 178.786 44.0329Z" fill="white"/>
<path fill-rule="evenodd" clip-rule="evenodd" d="M351.499 44.0329C351.499 32.5291 361.177 23.1579 373.054 23.1579C384.999 23.1579 394.61 32.4645 394.61 44.0329C394.61 55.5369 384.932 64.9079 373.054 64.9079C361.177 64.9079 351.499 55.5369 351.499 44.0329ZM387.604 44.0329C387.604 36.2775 381.063 29.9439 373.054 29.9439C365.046 29.9439 358.505 36.2775 358.505 44.0329C358.505 51.7883 365.046 58.1221 373.054 58.1221C381.063 58.1221 387.604 51.7883 387.604 44.0329Z" fill="white"/>
<path d="M340.552 48.8801C338.485 54.309 333.145 58.1221 326.872 58.1221C318.863 58.1221 312.324 51.7883 312.324 44.0329C312.324 36.2775 318.863 29.9439 326.872 29.9439C333.145 29.9439 338.485 33.8217 340.552 39.186H347.828C345.625 30.0086 337.084 23.1579 326.872 23.1579C314.993 23.1579 305.316 32.5291 305.316 44.0329C305.316 55.5369 314.993 64.9079 326.872 64.9079C337.084 64.9079 345.625 58.0573 347.828 48.8801H340.552Z" fill="white"/>
<path fill-rule="evenodd" clip-rule="evenodd" d="M265.076 23.8027H280.092C291.637 23.8027 300.98 32.8507 300.98 44.0315C300.98 55.2121 291.637 64.2604 280.092 64.2604H265.076V23.8027ZM293.972 44.5484C294.24 36.9223 287.899 30.5887 280.092 30.5887H272.083V57.4742H279.758C287.299 57.4742 293.706 51.8515 293.972 44.5484Z" fill="white"/>
<path d="M406.757 23.8675H399.748V64.1958H406.757V23.8675Z" fill="white"/>
<path d="M113.251 34.7262L105.309 64.3906H95.6992L84.8213 23.6747H92.0289L100.504 55.2782L108.98 23.6747H117.522L125.997 55.2782L134.473 23.6747H141.68L130.802 64.3906H121.193L113.251 34.7262Z" fill="white"/>
<path d="M420.77 35.5005L441.991 64.1955H449V23.8673H441.991V52.5625L420.77 23.8027H420.235L420.168 23.8673H413.765V64.1955H420.77V35.5005Z" fill="white"/>
<path d="M230.707 23.8675H237.714V57.4097H259.938V64.1958H230.707V23.8675Z" fill="white"/>
<path fill-rule="evenodd" clip-rule="evenodd" d="M217.226 47.5866C221.498 45.5186 224.434 41.3176 224.434 36.4059C224.434 29.4906 218.628 23.9326 211.554 23.9326H191.133V64.2609H198.34V48.8793H202.344C210.887 49.1379 217.694 55.8593 217.694 64.1961H224.901C224.968 57.6041 221.965 51.6583 217.226 47.5866ZM198.34 41.8993V30.8478H211.554C214.691 30.8478 217.226 33.3037 217.226 36.3413C217.226 39.379 214.691 41.8993 211.554 41.8993H198.34Z" fill="white"/>
</svg>
