<svg width="40" height="40" viewBox="0 0 40 40" fill="none" xmlns="http://www.w3.org/2000/svg">
<path d="M38.5657 12.5719C38.0345 11.2439 37.3617 9.98672 36.5648 8.80035C32.9703 3.48827 26.8791 0 19.9911 0C8.94201 0 0 8.95972 0 19.9911C0 31.0403 8.95972 40 19.9911 40C26.8969 40 32.9703 36.5117 36.5648 31.1996C37.3617 30.031 38.0168 28.7738 38.5657 27.4458C39.4865 25.1439 40 22.6295 40 20.0089C39.9823 17.3882 39.4865 14.8738 38.5657 12.5719ZM35.892 17.9726H12.9969C13.351 16.7331 14.0062 15.6352 14.8915 14.7676C16.2373 13.4219 18.0965 12.5896 20.1505 12.5896H34.2098C35.0775 14.2364 35.6441 16.0425 35.892 17.9726ZM19.8849 3.87782C24.4356 3.87782 28.5613 5.77246 31.5007 8.81806H20.6463C17.5476 8.81806 14.7499 10.0753 12.7313 12.0938C11.1554 13.6698 10.0575 15.6884 9.65029 17.9726H3.89553C4.88712 10.0221 11.6689 3.87782 19.8849 3.87782ZM19.8849 36.1576C11.6689 36.1576 4.88712 30.0133 3.87782 22.0629H9.63258C10.5888 27.2687 15.1571 31.2174 20.6463 31.2174H31.5007C28.579 34.2629 24.4533 36.1576 19.8849 36.1576ZM20.1505 27.4635C16.7508 27.4635 13.8822 25.1793 12.9969 22.0629H35.892C35.6441 23.9929 35.0598 25.799 34.2098 27.4635H20.1505Z" fill="white"/>
</svg>
