<svg width="121" height="88" viewBox="0 0 121 88" fill="none" xmlns="http://www.w3.org/2000/svg">
<path d="M0 56.8835L17.3432 30.5635H1.95016V23.693H26.1224V30.0665L8.05394 57.4365H26.8338V64.307H0V56.8835Z" fill="white"/>
<path d="M26.3167 44.2485C26.3167 39.4115 27.0281 35.425 28.4438 32.296C29.8631 29.167 31.7161 26.8325 34.0063 25.303C36.2965 23.7665 39.0691 23 42.3309 23C47.0571 23 50.9054 24.82 53.8792 28.4565C56.853 32.0965 58.3416 37.2765 58.3416 44C58.3416 50.7235 56.7662 56.1065 53.6155 59.9285C50.8498 63.3095 47.0953 64.9965 42.3517 64.9965C37.6082 64.9965 33.8016 63.327 31.036 59.9845C27.8886 56.1625 26.3132 50.916 26.3167 44.2485ZM33.1839 43.972C33.1839 48.6445 34.0653 52.148 35.8246 54.486C37.5839 56.824 39.7666 57.993 42.3726 57.993C44.9751 57.993 47.1681 56.8345 48.8927 54.5175C50.6173 52.2005 51.4779 48.641 51.4779 43.8355C51.4779 39.0335 50.6382 35.6455 48.9587 33.3915C47.2826 31.141 45.0826 30.0105 42.3691 30.0105C39.6555 30.0105 37.4451 31.1445 35.7413 33.4195C34.0341 35.6875 33.1839 39.205 33.1839 43.972Z" fill="white"/>
<path d="M60.212 64.3035V23.693H74.2448C77.8328 23.693 80.3972 24.057 81.9344 24.785C83.4751 25.5165 84.7382 26.78 85.7237 28.579C86.7126 30.378 87.2054 32.5375 87.2054 35.047C87.2054 38.225 86.4524 40.78 84.9394 42.7225C83.4334 44.665 81.289 45.883 78.5025 46.38C79.9322 47.4125 81.112 48.5465 82.0454 49.775C82.9789 51.0035 84.2524 53.205 85.8625 56.383L89.8738 64.307H81.9205L77.0937 55.4695C75.3587 52.274 74.1789 50.2755 73.5543 49.4705C72.9296 48.6655 72.2703 48.1125 71.5763 47.808C70.8789 47.5035 69.765 47.3495 68.2243 47.3495H66.8502V64.3035H60.212ZM66.8606 40.8675H71.8054C74.8278 40.8675 76.7502 40.7345 77.5726 40.465C78.3984 40.1955 79.0647 39.6565 79.5782 38.8445C80.0883 38.0325 80.3451 36.9545 80.3451 35.6035C80.3451 34.2525 80.0883 33.2725 79.5782 32.4885C79.0647 31.7045 78.3707 31.1655 77.4893 30.868C76.8647 30.665 75.0637 30.5635 72.0795 30.5635H66.8606V40.8675Z" fill="white"/>
<path d="M121 64.3035H113.775L110.885 55.1055H97.6675L94.9366 64.3035H87.8508L100.707 23.693H107.769L121 64.3035ZM108.737 48.235L104.177 33.164L99.7044 48.235H108.737Z" fill="white"/>
</svg>
